<svg width="24" height="24" viewBox="0 0 24 24" fill="none" xmlns="http://www.w3.org/2000/svg">
<path d="M12.85 11.3768C13.2834 10.8434 13.6041 10.2934 13.8125 9.72676C14.0209 9.16011 14.125 8.50176 14.125 7.75176C14.125 7.00176 14.0209 6.34341 13.8125 5.77676C13.6041 5.21011 13.2834 4.66011 12.85 4.12676C14.1167 3.84342 15.2291 4.03509 16.1875 4.70176C17.1459 5.36841 17.625 6.38511 17.625 7.75176C17.625 9.11841 17.1459 10.1351 16.1875 10.8018C15.2291 11.4684 14.1167 11.6601 12.85 11.3768ZM18.25 19.5268V17.1768C18.25 16.3268 18.0334 15.5351 17.6 14.8018C17.1667 14.0684 16.4167 13.4518 15.35 12.9518C18.2334 13.3184 20.2042 13.8518 21.2625 14.5518C22.3209 15.2518 22.85 16.1268 22.85 17.1768V19.5268H18.25ZM8.875 11.5018C7.775 11.5018 6.875 11.1518 6.175 10.4518C5.475 9.75176 5.125 8.85176 5.125 7.75176C5.125 6.65176 5.475 5.75176 6.175 5.05176C6.875 4.35176 7.775 4.00176 8.875 4.00176C9.975 4.00176 10.875 4.35176 11.575 5.05176C12.275 5.75176 12.625 6.65176 12.625 7.75176C12.625 8.85176 12.275 9.75176 11.575 10.4518C10.875 11.1518 9.975 11.5018 8.875 11.5018ZM1 19.5268V17.1768C1 16.5934 1.15417 16.0643 1.4625 15.5893C1.77084 15.1143 2.18334 14.7601 2.7 14.5268C3.9 13.9934 4.97083 13.6101 5.9125 13.3768C6.85415 13.1434 7.84165 13.0268 8.875 13.0268C9.90835 13.0268 10.8916 13.1434 11.825 13.3768C12.7583 13.6101 13.825 13.9934 15.025 14.5268C15.5416 14.7601 15.9583 15.1143 16.275 15.5893C16.5916 16.0643 16.75 16.5934 16.75 17.1768V19.5268H1ZM8.875 10.0018C9.525 10.0018 10.0625 9.78926 10.4875 9.36426C10.9125 8.93926 11.125 8.40176 11.125 7.75176C11.125 7.10176 10.9125 6.56426 10.4875 6.13926C10.0625 5.71426 9.525 5.50176 8.875 5.50176C8.225 5.50176 7.6875 5.71426 7.2625 6.13926C6.8375 6.56426 6.625 7.10176 6.625 7.75176C6.625 8.40176 6.8375 8.93926 7.2625 9.36426C7.6875 9.78926 8.225 10.0018 8.875 10.0018ZM2.5 18.0268H15.25V17.1768C15.25 16.9101 15.1834 16.6601 15.05 16.4268C14.9167 16.1934 14.7084 16.0101 14.425 15.8768C13.275 15.3434 12.3 14.9851 11.5 14.8018C10.7 14.6184 9.825 14.5268 8.875 14.5268C7.925 14.5268 7.05415 14.6184 6.2625 14.8018C5.47083 14.9851 4.48333 15.3434 3.3 15.8768C3.05 15.9934 2.85416 16.1726 2.7125 16.4143C2.57083 16.6559 2.5 16.9101 2.5 17.1768V18.0268Z" fill="#4A4F5B"/>
</svg>
