<svg width="20" height="20" viewBox="0 0 20 20" fill="none" xmlns="http://www.w3.org/2000/svg">
<path d="M1.66602 15.8337V10.5212C1.66602 10.174 1.73546 9.84753 1.87435 9.54199C2.01324 9.23645 2.22157 8.98645 2.49935 8.79199V6.37533C2.49935 5.75033 2.71115 5.22603 3.13477 4.80241C3.55838 4.37878 4.08268 4.16699 4.70768 4.16699H8.45768C8.76322 4.16699 9.04797 4.23645 9.31185 4.37533C9.57572 4.5142 9.80489 4.7017 9.99935 4.93783C10.1938 4.7017 10.4195 4.5142 10.6764 4.37533C10.9334 4.23645 11.2146 4.16699 11.5202 4.16699H15.2702C15.8952 4.16699 16.423 4.37878 16.8535 4.80241C17.2841 5.22603 17.4993 5.75033 17.4993 6.37533V8.79199C17.7771 8.98645 17.9855 9.23645 18.1243 9.54199C18.2632 9.84753 18.3327 10.174 18.3327 10.5212V15.8337H17.0827V14.167H2.91602V15.8337H1.66602ZM10.6243 8.43783H16.2493V6.37533C16.2493 6.09753 16.1556 5.86837 15.9681 5.68783C15.7806 5.50728 15.548 5.41699 15.2702 5.41699H11.4577C11.2216 5.41699 11.0236 5.5142 10.8639 5.70866C10.7042 5.90312 10.6243 6.12533 10.6243 6.37533V8.43783ZM3.74935 8.43783H9.37435V6.37533C9.37435 6.12533 9.29447 5.90312 9.13477 5.70866C8.97506 5.5142 8.77714 5.41699 8.54102 5.41699H4.70768C4.44381 5.41699 4.2181 5.51074 4.0306 5.69824C3.8431 5.88574 3.74935 6.11145 3.74935 6.37533V8.43783ZM2.91602 12.917H17.0827V10.5212C17.0827 10.285 17.0028 10.0871 16.8431 9.92741C16.6834 9.7677 16.4855 9.68783 16.2493 9.68783H3.74935C3.51324 9.68783 3.31532 9.7677 3.1556 9.92741C2.99588 10.0871 2.91602 10.285 2.91602 10.5212V12.917Z" fill="#4A4F5B"/>
</svg>
