<svg width="24" height="24" viewBox="0 0 24 24" fill="none" xmlns="http://www.w3.org/2000/svg">
<path d="M17.1 14.4756C16.442 14.4756 15.8859 14.2484 15.4315 13.7941C14.9772 13.3397 14.75 12.7836 14.75 12.1256C14.75 11.4676 14.9772 10.9114 15.4315 10.4571C15.8859 10.0027 16.442 9.77559 17.1 9.77559C17.758 9.77559 18.3141 10.0027 18.7685 10.4571C19.2228 10.9114 19.45 11.4676 19.45 12.1256C19.45 12.7836 19.2228 13.3397 18.7685 13.7941C18.3141 14.2484 17.758 14.4756 17.1 14.4756ZM12.2 20.0006V18.7256C12.2 18.2922 12.2917 17.9214 12.475 17.6131C12.6584 17.3047 12.9166 17.0672 13.25 16.9006C13.8666 16.5839 14.4916 16.3506 15.125 16.2006C15.7584 16.0506 16.4167 15.9756 17.1 15.9756C17.7834 15.9756 18.4417 16.0464 19.075 16.1881C19.7084 16.3297 20.3334 16.5672 20.95 16.9006C21.2834 17.0506 21.5417 17.2839 21.725 17.6006C21.9084 17.9172 22 18.2922 22 18.7256V20.0006H12.2ZM10 11.9756C8.9 11.9756 8 11.6256 7.3 10.9256C6.6 10.2256 6.25 9.32559 6.25 8.22559C6.25 7.12559 6.6 6.22559 7.3 5.52559C8 4.82559 8.9 4.47559 10 4.47559C11.1 4.47559 12 4.82559 12.7 5.52559C13.4 6.22559 13.75 7.12559 13.75 8.22559C13.75 9.32559 13.4 10.2256 12.7 10.9256C12 11.6256 11.1 11.9756 10 11.9756ZM2 20.0006V17.6506C2 17.0839 2.14166 16.5631 2.425 16.0881C2.70833 15.6131 3.13059 15.2506 3.69175 15.0006C4.81392 14.5006 5.8875 14.1256 6.9125 13.8756C7.9375 13.6256 8.9646 13.5006 9.99375 13.5006C10.5312 13.5006 11.0084 13.5256 11.425 13.5756C11.8417 13.6256 12.2916 13.7006 12.775 13.8006L12.1375 14.4381L11.5 15.0756C11.2834 15.0422 11.05 15.0214 10.8 15.0131C10.55 15.0047 10.2833 15.0006 10 15.0006C9.05615 15.0006 8.13275 15.0964 7.22975 15.2881C6.3266 15.4797 5.35 15.8339 4.3 16.3506C4.06667 16.4672 3.875 16.6506 3.725 16.9006C3.575 17.1506 3.5 17.4006 3.5 17.6506V18.5006H10.7V20.0006H2ZM10 10.4756C10.65 10.4756 11.1875 10.2631 11.6125 9.83809C12.0375 9.41309 12.25 8.87559 12.25 8.22559C12.25 7.57559 12.0375 7.03809 11.6125 6.61309C11.1875 6.18809 10.65 5.97559 10 5.97559C9.35 5.97559 8.8125 6.18809 8.3875 6.61309C7.9625 7.03809 7.75 7.57559 7.75 8.22559C7.75 8.87559 7.9625 9.41309 8.3875 9.83809C8.8125 10.2631 9.35 10.4756 10 10.4756Z" fill="#4A4F5B"/>
</svg>
