<svg width="32" height="32" viewBox="0 0 32 32" fill="none" xmlns="http://www.w3.org/2000/svg">
<path d="M15.3332 8.00001H5.33317V26.6667H23.9998V16.6667H26.6665V28C26.6664 28.7363 26.0694 29.3333 25.3332 29.3333H3.99984C3.26356 29.3333 2.66668 28.7363 2.6665 28V6.66668L2.67301 6.52996C2.74145 5.85779 3.3096 5.33335 3.99984 5.33335H15.3332V8.00001ZM23.1586 2.96616C23.6824 2.53903 24.4544 2.56915 24.9425 3.05731L28.9425 7.05731L29.0337 7.15887C29.4321 7.64764 29.4322 8.35249 29.0337 8.84116L28.9425 8.94272L17.8853 20H11.9998V14.1145L23.0572 3.05731L23.1586 2.96616ZM14.6665 15.2188V17.3333H16.781L22.3905 11.724L20.2758 9.60939L14.6665 15.2188Z" fill="#101828"/>
</svg>
