<svg width="28" height="28" viewBox="0 0 28 28" fill="none" xmlns="http://www.w3.org/2000/svg">
<path d="M14.0003 3.47168L26.8337 13.0383L25.842 14.4092L23.3337 12.5133V24.5008H4.66699V12.5133L2.15866 14.4092L1.16699 13.0383L14.0003 3.47168ZM9.04199 14.0592C9.04199 14.9925 9.54757 16.0523 10.5587 17.2383C11.5697 18.4244 12.717 19.5911 14.0003 20.7383C15.2837 19.5911 16.4309 18.4244 17.442 17.2383C18.4531 16.0523 18.9587 14.9925 18.9587 14.0592C18.9587 13.3008 18.7107 12.6738 18.2149 12.1779C17.7191 11.6821 17.092 11.4342 16.3337 11.4342C15.8864 11.4342 15.4587 11.546 15.0503 11.7696C14.642 11.9932 14.292 12.2606 14.0003 12.5717C13.7087 12.2606 13.3587 11.9932 12.9503 11.7696C12.542 11.546 12.1142 11.4342 11.667 11.4342C10.9087 11.4342 10.2816 11.6821 9.78574 12.1779C9.28991 12.6738 9.04199 13.3008 9.04199 14.0592ZM21.5837 22.7508V11.3175L14.0003 5.65918L6.41699 11.3175V22.7508H21.5837Z" fill="#101828"/>
</svg>
