<svg width="64" height="64" viewBox="0 0 64 64" fill="none" xmlns="http://www.w3.org/2000/svg">
<path d="M51.9997 53.3337H17.333C16.2663 53.3337 15.333 52.9337 14.533 52.1337C13.733 51.3337 13.333 50.4003 13.333 49.3337V6.66699C13.333 5.60033 13.733 4.66699 14.533 3.86699C15.333 3.06699 16.2663 2.66699 17.333 2.66699H40.533L55.9997 18.1337V49.3337C55.9997 50.4003 55.5997 51.3337 54.7997 52.1337C53.9997 52.9337 53.0663 53.3337 51.9997 53.3337ZM38.533 19.867V6.66699H17.333V49.3337H51.9997V19.867H38.533ZM9.33301 61.3337C8.26634 61.3337 7.33301 60.9337 6.53301 60.1337C5.73301 59.3337 5.33301 58.4003 5.33301 57.3337V16.067H9.33301V57.3337H42.533V61.3337H9.33301Z" fill="#101828"/>
</svg>
