<svg width="20" height="20" viewBox="0 0 20 20" fill="none" xmlns="http://www.w3.org/2000/svg">
<path d="M10.0025 9.79199C10.4041 9.79199 10.7472 9.64899 11.0319 9.36303C11.3166 9.07708 11.459 8.73333 11.459 8.33178C11.459 7.93024 11.316 7.58712 11.03 7.30241C10.7441 7.0177 10.4003 6.87533 9.99878 6.87533C9.59723 6.87533 9.25411 7.01832 8.9694 7.30428C8.68469 7.59024 8.54232 7.93399 8.54232 8.33553C8.54232 8.73708 8.68532 9.0802 8.97128 9.36491C9.25723 9.64962 9.60098 9.79199 10.0025 9.79199ZM10.0007 16.6878C11.8479 15.0073 13.2124 13.483 14.0944 12.1149C14.9764 10.7469 15.4173 9.54199 15.4173 8.50033C15.4173 6.86437 14.8945 5.52478 13.8488 4.48158C12.8031 3.43852 11.5204 2.91699 10.0007 2.91699C8.48094 2.91699 7.19823 3.43852 6.15253 4.48158C5.10682 5.52478 4.58398 6.86437 4.58398 8.50033C4.58398 9.54199 5.03536 10.7469 5.93815 12.1149C6.84094 13.483 8.19511 15.0073 10.0007 16.6878ZM10.0007 18.3337C7.76453 16.4309 6.0944 14.6635 4.99023 13.0316C3.88607 11.3996 3.33398 9.8892 3.33398 8.50033C3.33398 6.41699 4.00412 4.75728 5.3444 3.52116C6.68469 2.28505 8.23678 1.66699 10.0007 1.66699C11.7645 1.66699 13.3166 2.28505 14.6569 3.52116C15.9972 4.75728 16.6673 6.41699 16.6673 8.50033C16.6673 9.8892 16.1152 11.3996 15.0111 13.0316C13.9069 14.6635 12.2368 16.4309 10.0007 18.3337Z" fill="#4A4F5B"/>
</svg>
