<svg width="40" height="40" viewBox="0 0 40 40" fill="none" xmlns="http://www.w3.org/2000/svg">
<path d="M20 33.3749C23.6944 30.0138 26.4235 26.9652 28.1875 24.2291C29.9514 21.493 30.8333 19.0833 30.8333 16.9999C30.8333 13.728 29.7876 11.0488 27.6962 8.96242C25.6048 6.87631 23.0394 5.83325 20 5.83325C16.9605 5.83325 14.3951 6.87631 12.3037 8.96242C10.2123 11.0488 9.16663 13.728 9.16663 16.9999C9.16663 19.0833 10.0694 21.493 11.875 24.2291C13.6805 26.9652 16.3889 30.0138 20 33.3749ZM20 36.6666C15.5277 32.861 12.1875 29.3263 9.97913 26.0624C7.77079 22.7985 6.66663 19.7777 6.66663 16.9999C6.66663 12.8333 8.0069 9.51383 10.6875 7.04158C13.368 4.56936 16.4722 3.33325 20 3.33325C23.5277 3.33325 26.6319 4.56936 29.3125 7.04158C31.993 9.51383 33.3333 12.8333 33.3333 16.9999C33.3333 19.7777 32.2291 22.7985 30.0208 26.0624C27.8125 29.3263 24.4722 32.861 20 36.6666Z" fill="#101828"/>
<path d="M17.7958 20.478L20 19.1583L22.2042 20.4921L21.6145 17.9931L23.5519 16.3083L20.9968 16.0837L20 13.7251L19.0032 16.0697L16.4481 16.2943L18.3855 17.979L17.7958 20.478ZM20 20.1411L17.3887 21.7135C17.3138 21.7603 17.2343 21.7813 17.15 21.7767C17.0658 21.772 16.9909 21.7462 16.9254 21.6994C16.8599 21.6526 16.8107 21.5918 16.778 21.5169C16.7452 21.442 16.7382 21.3578 16.7569 21.2642L17.4448 18.2879L15.1424 16.2803C15.0675 16.2148 15.0231 16.1422 15.009 16.0627C14.995 15.9831 14.9973 15.9059 15.016 15.831C15.0348 15.7561 15.0769 15.6929 15.1424 15.6415C15.2079 15.59 15.2875 15.5596 15.3811 15.5502L18.4276 15.2835L19.6069 12.4756C19.6443 12.3914 19.7005 12.3282 19.7754 12.2861C19.8503 12.244 19.9251 12.2229 20 12.2229C20.0749 12.2229 20.1497 12.244 20.2246 12.2861C20.2995 12.3282 20.3557 12.3914 20.3931 12.4756L21.5724 15.2835L24.6189 15.5502C24.7125 15.5596 24.7921 15.59 24.8576 15.6415C24.9231 15.6929 24.9652 15.7561 24.984 15.831C25.0027 15.9059 25.005 15.9831 24.991 16.0627C24.9769 16.1422 24.9325 16.2148 24.8576 16.2803L22.5552 18.2879L23.2431 21.2642C23.2618 21.3578 23.2548 21.442 23.222 21.5169C23.1893 21.5918 23.1401 21.6526 23.0746 21.6994C23.0091 21.7462 22.9342 21.772 22.85 21.7767C22.7657 21.7813 22.6862 21.7603 22.6113 21.7135L20 20.1411Z" fill="#101828"/>
<path d="M17.7958 20.478L20 19.1583L22.2042 20.4921L21.6145 17.9931L23.5519 16.3083L20.9968 16.0837L20 13.7251L19.0032 16.0697L16.4481 16.2943L18.3855 17.979L17.7958 20.478Z" fill="#101828"/>
</svg>
