<svg width="150" height="21" viewBox="0 0 150 21" fill="none" xmlns="http://www.w3.org/2000/svg">
<g clip-path="url(#clip0_732_1596)">
<mask id="mask0_732_1596" style="mask-type:luminance" maskUnits="userSpaceOnUse" x="0" y="0" width="150" height="21">
<path d="M0 0H150V21H0V0Z" fill="white"/>
</mask>
<g mask="url(#mask0_732_1596)">
<path d="M18.4122 20.9507H3.0229C1.35115 20.9507 0 19.6301 0 17.9961V2.95459C0 1.32061 1.35115 0 3.0229 0H18.4351C20.1069 0 21.458 1.32061 21.458 2.95459V18.0185C21.4351 19.6301 20.0839 20.9507 18.4122 20.9507ZM3.0229 2.12641C2.56489 2.12641 2.19847 2.48454 2.19847 2.9322V17.9961C2.19847 18.4438 2.56489 18.8019 3.0229 18.8019H18.4351C18.8931 18.8019 19.2596 18.4438 19.2596 17.9961V2.95459C19.2596 2.50692 18.8931 2.14879 18.4351 2.14879H3.0229V2.12641Z" fill="white"/>
<path d="M3.29759 11.5498H1.09912V9.40104H3.32049C6.80141 9.40104 9.61818 6.64788 9.61818 3.22325V1.07446H11.7938V3.24564C11.8166 7.81181 7.99225 11.5498 3.29759 11.5498Z" fill="white"/>
<path d="M20.3358 11.5498H18.1144C13.4426 11.5498 9.61826 7.81181 9.61826 3.22325V1.07446H11.7938V3.24564C11.8167 6.64788 14.6335 9.40104 18.1373 9.40104H20.3587V11.5498H20.3358ZM11.8166 19.8764H9.61818V17.7051C9.61818 14.303 6.77851 11.5274 3.29759 11.5274H1.09912V9.40104H3.32049C8.01514 9.40104 11.8166 13.139 11.8166 17.7051V19.8764ZM39.5725 10.9678C39.3892 10.744 39.1832 10.5649 38.9541 10.4306C38.8396 10.3635 38.7022 10.2963 38.5648 10.2291C38.5877 10.2067 38.6106 10.2067 38.6336 10.1844C38.7938 10.0725 38.9541 9.9158 39.1144 9.73669C39.2748 9.55767 39.4121 9.33384 39.5037 9.06522C39.6183 8.79659 39.6641 8.48326 39.6641 8.14752C39.6641 7.78939 39.5953 7.45363 39.4579 7.11789C39.3206 6.78214 39.1144 6.51354 38.8396 6.26733C38.5648 6.02111 38.1984 5.84204 37.7861 5.68536C37.374 5.55106 36.8472 5.46153 36.2748 5.46153H33.5037C33.1602 5.46153 32.8855 5.55106 32.7022 5.73013C32.519 5.9092 32.4274 6.1554 32.4274 6.46878V14.9296C32.4274 15.2206 32.6794 15.4668 32.9771 15.4668H36.6411C37.3282 15.4668 37.9007 15.3773 38.3358 15.1983C38.7938 15.0192 39.1373 14.7729 39.4121 14.5044C39.6869 14.2134 39.8702 13.9224 39.9847 13.5866C40.0991 13.2509 40.1449 12.9375 40.1449 12.6465C40.1449 12.3108 40.0991 12.0198 39.9847 11.7288C39.893 11.4379 39.7556 11.1916 39.5725 10.9678ZM37.3969 9.19953C37.1449 9.44575 36.7328 9.58007 36.1832 9.58007H34.5114C34.3969 9.58007 34.3053 9.49047 34.3053 9.37855V7.25219C34.3053 7.14027 34.3969 7.05074 34.5114 7.05074H36.1373C36.7099 7.05074 37.1449 7.16265 37.3969 7.38649C37.6488 7.61032 37.7861 7.9013 37.7861 8.25943C37.7861 8.63995 37.6488 8.9309 37.3969 9.19953ZM34.3053 13.6985V11.3484C34.3053 11.2364 34.3969 11.1468 34.5114 11.1468H36.5495C36.8472 11.1468 37.0991 11.1916 37.3053 11.2588C37.5114 11.326 37.6946 11.4379 37.8091 11.5498C37.9465 11.6617 38.0381 11.8184 38.1068 11.9974C38.1755 12.1765 38.1984 12.3556 38.1984 12.5346C38.1984 12.9375 38.061 13.2733 37.8091 13.5195C37.5343 13.7657 37.1221 13.9 36.5267 13.9H34.4884C34.3969 13.9 34.3053 13.8104 34.3053 13.6985ZM50.2213 13.8329H46.1449C46.0304 13.8329 45.9388 13.7433 45.9388 13.6314V5.70776L45.8472 5.663C45.7785 5.61823 45.6869 5.59585 45.5266 5.55109C45.3664 5.50631 45.206 5.48393 45.0229 5.48393C44.7251 5.48393 44.4961 5.55109 44.3129 5.70776C44.1296 5.86445 44.0381 6.08828 44.0381 6.37926V14.9744C44.0381 15.2654 44.29 15.5116 44.5877 15.5116H50.2213C50.519 15.5116 50.7709 15.2654 50.7709 14.9744V14.3701C50.7709 14.0567 50.519 13.8329 50.2213 13.8329ZM62.3358 5.55109C62.1754 5.50631 62.0152 5.48393 61.8319 5.48393C61.2137 5.48393 60.8472 5.7973 60.8472 6.35688V10.923C60.8472 11.4379 60.8014 11.8855 60.7099 12.2885C60.6183 12.669 60.4579 13.0047 60.2748 13.2733C60.0686 13.5419 59.7938 13.7433 59.4732 13.9C59.1296 14.0343 58.7175 14.1239 58.2137 14.1239C57.7098 14.1239 57.2976 14.0567 56.9541 13.9C56.6335 13.7657 56.3587 13.5419 56.1526 13.2733C55.9465 13.0047 55.7861 12.669 55.7175 12.2885C55.6258 11.8855 55.58 11.4379 55.58 10.923V5.70776L55.4884 5.663C55.4198 5.61823 55.3281 5.59585 55.1907 5.55109C55.0304 5.50631 54.8702 5.48393 54.6869 5.48393C54.3892 5.48393 54.1373 5.55109 53.977 5.70776C53.7938 5.86445 53.7022 6.08828 53.7022 6.37926V11.0797C53.7022 12.6018 54.0686 13.7657 54.8243 14.5491C55.58 15.3326 56.7251 15.7354 58.2365 15.7354C59.748 15.7354 60.916 15.3326 61.6488 14.5491C62.3815 13.7657 62.7709 12.6018 62.7709 11.0797V5.70776L62.6793 5.663C62.5877 5.64062 62.4732 5.59585 62.3358 5.55109ZM68.9999 7.1403H73.5801L73.6259 7.05076C73.6717 6.98361 73.6946 6.89408 73.7633 6.78216C73.8091 6.64786 73.8549 6.46879 73.8549 6.31211C73.8549 5.77491 73.5343 5.48393 72.9618 5.48393H67.9923C67.6488 5.48393 67.374 5.57347 67.1907 5.75253C67.0076 5.9316 66.916 6.17781 66.916 6.49118V14.952C66.916 15.243 67.1679 15.4892 67.4656 15.4892H73.2366C73.5343 15.4892 73.7862 15.243 73.7862 14.952V14.3477C73.7862 14.0567 73.5343 13.8105 73.2366 13.8105H69.0228C68.9083 13.8105 68.8167 13.721 68.8167 13.609V11.4155C68.8167 11.3036 68.9083 11.214 69.0228 11.214H73.3968L73.4426 11.1245C73.4656 11.0797 73.5114 10.9902 73.5801 10.8559C73.6259 10.7216 73.6717 10.565 73.6717 10.3859C73.6717 9.84869 73.3511 9.55767 72.7786 9.55767H69.0228C68.9083 9.55767 68.8167 9.46815 68.8167 9.35624V7.34174C68.7938 7.22983 68.8855 7.1403 68.9999 7.1403ZM80.061 7.7894C80.3587 7.47602 80.748 7.22982 81.1602 7.07313C81.5954 6.91644 82.0534 6.82691 82.5572 6.82691C82.9007 6.82691 83.2213 6.87168 83.519 6.93883C83.8167 7.00598 84.0686 7.09551 84.2976 7.20743C84.5037 7.29696 84.7098 7.40888 84.8472 7.5208C85.0076 7.63271 85.1221 7.74462 85.1908 7.83416L85.2824 7.92369L85.3969 7.85654C85.4427 7.83416 85.5114 7.7894 85.5801 7.72224C85.6717 7.65509 85.7404 7.58794 85.8091 7.49841C85.8778 7.40888 85.9466 7.31935 86.0152 7.20743C86.0839 7.09551 86.1068 6.96122 86.1068 6.82691C86.1068 6.69262 86.061 6.53593 85.9694 6.37925C85.8778 6.22257 85.7404 6.08827 85.5572 5.97635C85.4656 5.90921 85.3053 5.81967 85.1221 5.73014C84.9389 5.64061 84.7328 5.55107 84.4809 5.48392C84.229 5.41677 83.9541 5.34963 83.6336 5.30485C83.3129 5.26009 82.9694 5.2377 82.5801 5.2377C81.8014 5.2377 81.0686 5.34963 80.4045 5.59583C79.7404 5.84205 79.145 6.20019 78.6641 6.64785C78.1832 7.09551 77.7939 7.65509 77.519 8.3042C77.2443 8.9533 77.1068 9.66958 77.1068 10.4754C77.1068 11.3484 77.2443 12.1093 77.542 12.7585C77.8397 13.4076 78.229 13.9671 78.7328 14.3925C79.2366 14.8177 79.8549 15.1535 80.542 15.3773C81.229 15.6011 82.0076 15.6906 82.8091 15.6906C83.2213 15.6906 83.5878 15.6907 83.9541 15.6683C84.3206 15.6459 84.6412 15.6235 84.916 15.6011C85.1908 15.5787 85.4198 15.5564 85.603 15.534C85.8549 15.5116 85.9236 15.4892 85.9465 15.4892L86.0839 15.4668V10.8111C86.0839 10.162 85.7175 9.82629 85.0305 9.82629H82.1221L82.0763 9.9158C82.0533 9.98292 82.0075 10.0725 81.9389 10.1844C81.8931 10.3187 81.8472 10.4978 81.8472 10.6545C81.8472 11.1692 82.1679 11.4603 82.7404 11.4603H84.0228C84.1374 11.4603 84.229 11.5498 84.229 11.6617V13.8328C84.229 13.9224 84.1602 14.0119 84.0458 14.0343L83.8855 14.0567C83.6564 14.0791 83.3129 14.1015 82.9007 14.1015C82.3282 14.1015 81.8014 14.0343 81.3205 13.8776C80.8625 13.7433 80.4503 13.5195 80.1068 13.2286C79.7633 12.9375 79.5114 12.557 79.3282 12.1093C79.145 11.6617 79.0533 11.1021 79.0533 10.4754C79.0533 9.8934 79.145 9.37864 79.3053 8.9309C79.5114 8.48327 79.7633 8.10276 80.061 7.7894ZM97.9464 14.3029C97.7408 13.9671 97.5343 13.5866 97.282 13.2285C97.0534 12.8704 96.8011 12.4899 96.5496 12.1541C96.412 11.9526 96.2743 11.7736 96.1376 11.5945C96.0917 11.5498 96.0917 11.505 96.0917 11.4379C96.0917 11.3707 96.1376 11.326 96.1834 11.3036C96.6184 11.0573 96.9617 10.7216 97.1911 10.3187C97.5114 9.80389 97.672 9.24433 97.672 8.63995C97.672 8.21466 97.6031 7.78939 97.4426 7.40887C97.282 7.02836 97.0534 6.67022 96.7552 6.40162C96.4578 6.11064 96.0687 5.88681 95.6337 5.70775C95.1987 5.55106 94.672 5.46153 94.0764 5.46153H91.5343C90.847 5.46153 90.4578 5.81966 90.4578 6.44639V14.9072C90.4578 15.1983 90.7102 15.4444 91.0076 15.4444H91.7858C92.084 15.4444 92.3355 15.1983 92.3355 14.9072V12.0198C92.3355 11.9079 92.4273 11.8184 92.5649 11.8184L92.8393 11.8407C93.0917 11.8631 93.4349 11.8631 93.847 11.8631H94.0993C94.3049 12.1093 94.5343 12.4004 94.7408 12.7137C94.9923 13.0718 95.2217 13.4076 95.4273 13.7433C95.6337 14.0791 95.8393 14.3924 95.9999 14.6834C96.1146 14.8624 96.1834 15.0416 96.2514 15.1759C96.3431 15.3549 96.5267 15.4668 96.7331 15.4668H97.672C97.8546 15.4668 98.0381 15.3773 98.1299 15.1983C98.2217 15.0416 98.2217 14.8401 98.1299 14.6834C98.084 14.5715 98.0152 14.4372 97.9464 14.3029ZM92.3355 7.25219C92.3355 7.14027 92.4273 7.05074 92.542 7.05074H93.8011C94.4884 7.05074 94.9923 7.20742 95.2896 7.52079C95.6108 7.83415 95.7484 8.21466 95.7484 8.68471C95.7484 8.9085 95.7026 9.13242 95.6337 9.33384C95.5649 9.53527 95.4273 9.69198 95.2667 9.8486C95.084 10.0053 94.8546 10.1172 94.5573 10.2067C94.259 10.2963 93.8928 10.3411 93.4808 10.3411C93.0917 10.3411 92.7934 10.3187 92.5878 10.2963C92.4731 10.2739 92.3814 10.2739 92.3355 10.2739V7.25219ZM109.9 6.73738C109.443 6.26733 108.893 5.90921 108.229 5.64061C107.588 5.37201 106.878 5.2377 106.099 5.2377C105.32 5.2377 104.611 5.37201 103.992 5.64061C103.351 5.90921 102.801 6.26733 102.343 6.73738C101.885 7.20743 101.519 7.76701 101.267 8.39374C101.015 9.0205 100.878 9.73669 100.878 10.4754C100.878 11.214 101.015 11.9079 101.267 12.557C101.519 13.1838 101.885 13.7433 102.343 14.2134C102.801 14.6834 103.351 15.064 103.992 15.3102C104.634 15.5787 105.343 15.713 106.099 15.713C106.878 15.713 107.588 15.5787 108.229 15.3102C108.87 15.0416 109.42 14.661 109.9 14.2134C110.358 13.7433 110.725 13.1838 110.977 12.557C111.229 11.9303 111.366 11.214 111.366 10.4754C111.366 9.73669 111.229 9.04282 110.977 8.39374C110.725 7.76701 110.358 7.20743 109.9 6.73738ZM109.168 11.9303C109.008 12.378 108.778 12.7585 108.504 13.0718C108.229 13.3852 107.862 13.6538 107.473 13.8328C107.084 14.0119 106.626 14.1015 106.122 14.1015C105.641 14.1015 105.183 14.0119 104.77 13.8328C104.358 13.6538 104.015 13.4076 103.741 13.0718C103.465 12.7585 103.237 12.3556 103.076 11.9303C102.916 11.4827 102.847 10.9902 102.847 10.4754C102.847 9.9606 102.916 9.46815 103.076 9.0205C103.237 8.57281 103.465 8.19229 103.741 7.87893C104.015 7.56556 104.381 7.31935 104.77 7.14028C105.183 6.96122 105.618 6.87168 106.122 6.87168C106.603 6.87168 107.061 6.96122 107.473 7.14028C107.862 7.31935 108.229 7.56556 108.504 7.87893C108.801 8.19229 109.008 8.57281 109.168 9.0205C109.328 9.46815 109.397 9.9382 109.397 10.4754C109.397 10.9902 109.328 11.4827 109.168 11.9303ZM123.458 5.55109C123.297 5.50631 123.138 5.48393 122.954 5.48393C122.335 5.48393 121.969 5.7973 121.969 6.35688V10.923C121.969 11.4379 121.923 11.8855 121.832 12.2885C121.741 12.669 121.603 13.0047 121.397 13.2733C121.191 13.5419 120.916 13.7433 120.595 13.9C120.252 14.0343 119.839 14.1239 119.335 14.1239C118.832 14.1239 118.42 14.0567 118.076 13.9C117.756 13.7657 117.481 13.5419 117.274 13.2733C117.069 13.0047 116.908 12.669 116.839 12.2885C116.748 11.8855 116.703 11.4379 116.703 10.923V5.70776L116.611 5.663C116.542 5.61823 116.45 5.59585 116.313 5.55109C116.153 5.50631 115.992 5.48393 115.809 5.48393C115.511 5.48393 115.26 5.55109 115.099 5.70776C114.916 5.86445 114.824 6.08828 114.824 6.37926V11.0797C114.824 12.6018 115.191 13.7657 115.946 14.5491C116.703 15.3326 117.847 15.7354 119.358 15.7354C120.87 15.7354 122.038 15.3326 122.77 14.5491C123.504 13.7657 123.893 12.6018 123.893 11.0797V5.70776L123.801 5.663C123.71 5.64062 123.618 5.59585 123.458 5.55109ZM136.282 5.55106C136.122 5.50629 135.962 5.48391 135.778 5.48391C135.481 5.48391 135.252 5.55106 135.092 5.70775C134.908 5.86442 134.816 6.08826 134.816 6.37924V11.7512C134.816 11.8184 134.793 11.8631 134.748 11.9079C134.703 11.9526 134.657 11.9526 134.611 11.9526C134.565 11.9526 134.496 11.9303 134.427 11.8407L134.29 11.6169C133.992 11.1468 133.672 10.6768 133.328 10.1844C133.008 9.69198 132.687 9.22193 132.366 8.75188C132.046 8.28181 131.748 7.85653 131.496 7.47602C131.222 7.0955 130.992 6.75976 130.764 6.46878C130.58 6.22256 130.443 6.02111 130.351 5.9092C130.305 5.86442 130.26 5.81966 130.214 5.77489C130.122 5.73013 130.031 5.66298 129.893 5.59582C129.71 5.50629 129.481 5.46153 129.206 5.46153C128.839 5.46153 128.542 5.57344 128.358 5.77489C128.176 5.97634 128.061 6.20018 128.061 6.44639V14.952C128.061 15.243 128.313 15.4892 128.611 15.4892H129.389C129.687 15.4892 129.939 15.243 129.939 14.952V8.84139C129.939 8.7071 130.053 8.63995 130.145 8.63995C130.191 8.63995 130.26 8.66233 130.305 8.72948C130.557 9.11002 130.855 9.51287 131.153 9.9382C131.45 10.3859 131.77 10.8335 132.092 11.326C132.412 11.8184 132.733 12.2885 133.053 12.7808C133.374 13.2733 133.672 13.7209 133.969 14.1686C134.222 14.5491 134.45 14.8848 134.657 15.2206C134.748 15.3773 134.931 15.4668 135.115 15.4668H136.168C136.465 15.4668 136.718 15.2206 136.718 14.9296V5.70775L136.626 5.66298C136.534 5.6406 136.42 5.59582 136.282 5.55106ZM149.634 8.41612C149.381 7.78939 149.015 7.27457 148.557 6.82691C148.076 6.40162 147.504 6.06587 146.839 5.81966C146.176 5.57344 145.42 5.46153 144.595 5.46153H142.03C141.687 5.46153 141.412 5.55106 141.229 5.73013C141.046 5.9092 140.954 6.1554 140.954 6.46878V14.9296C140.954 15.2206 141.206 15.4668 141.504 15.4668H144.618C145.443 15.4668 146.199 15.3549 146.862 15.1087C147.527 14.8624 148.099 14.5267 148.58 14.1015C149.061 13.6538 149.427 13.139 149.657 12.5123C149.908 11.9079 150.023 11.214 150.023 10.453C150.023 9.69198 149.885 9.0205 149.634 8.41612ZM147.824 11.8407C147.664 12.2437 147.435 12.6242 147.138 12.9151C146.839 13.2062 146.473 13.4524 146.038 13.6314C145.603 13.8104 145.076 13.8776 144.504 13.8776H143.038C142.923 13.8776 142.832 13.7881 142.832 13.6762V7.27457C142.832 7.16265 142.923 7.07312 143.038 7.07312H144.504C145.076 7.07312 145.603 7.16265 146.038 7.31934C146.473 7.47602 146.839 7.72223 147.138 8.01321C147.435 8.30419 147.664 8.68471 147.824 9.08762C147.985 9.51287 148.053 9.96052 148.053 10.453C148.053 10.9454 147.962 11.4155 147.824 11.8407Z" fill="white"/>
</g>
</g>
<defs>
<clipPath id="clip0_732_1596">
<rect width="150" height="21" fill="white"/>
</clipPath>
</defs>
</svg>
