<svg width="40" height="45" viewBox="0 0 40 45" fill="none" xmlns="http://www.w3.org/2000/svg">
<path d="M40 20C40 30.0756 32.5494 38.4111 22.8572 39.7975C21.924 39.9309 20.9701 40 20 40C19.0299 40 18.076 39.9309 17.1429 39.7975C7.45059 38.4111 0 30.0756 0 20C0 8.95431 8.95431 0 20 0C31.0457 0 40 8.95431 40 20Z" fill="#0E3599"/>
<path d="M20 40C19.0299 40 18.076 39.9309 17.1429 39.7975L19.5097 43.7522C19.7315 44.1228 20.2685 44.1228 20.4903 43.7522L22.8572 39.7975C21.924 39.9309 20.9701 40 20 40Z" fill="#0E3599"/>
<g clip-path="url(#clip0_596_1233)">
<path fill-rule="evenodd" clip-rule="evenodd" d="M20.9236 10.8318C20.4135 10.3217 19.5865 10.3217 19.0765 10.8318L11.2397 18.6685C10.7297 19.1786 10.7297 20.0056 11.2397 20.5156C11.7498 21.0257 12.5768 21.0257 13.0869 20.5156L13.4694 20.1331V26.1227C13.4694 26.8441 14.0542 27.4288 14.7755 27.4288H25.2245C25.9459 27.4288 26.5306 26.8441 26.5306 26.1227V20.1331L26.9132 20.5156C27.4233 21.0257 28.2503 21.0257 28.7603 20.5156C29.2704 20.0056 29.2704 19.1786 28.7603 18.6685L20.9236 10.8318Z" fill="white"/>
</g>
<defs>
<clipPath id="clip0_596_1233">
<rect width="18.2857" height="18.2857" fill="white" transform="translate(10.8572 9.14355)"/>
</clipPath>
</defs>
</svg>
