<svg width="40" height="40" viewBox="0 0 40 40" fill="none" xmlns="http://www.w3.org/2000/svg">
<path d="M31.875 3H7.125C4.85075 3 3 4.85075 3 7.125V36H36V7.125C36 4.85075 34.1493 3 31.875 3ZM33.25 33.25H5.75V7.125C5.75 6.36738 6.366 5.75 7.125 5.75H31.875C32.634 5.75 33.25 6.36738 33.25 7.125V33.25ZM21.5625 9.875H16.75C14.4757 9.875 12.625 11.7257 12.625 14V29.125H15.375V22.25H21.5625C24.9739 22.25 27.75 19.4739 27.75 16.0625C27.75 12.6511 24.9739 9.875 21.5625 9.875ZM21.5625 19.5H15.375V14C15.375 13.2424 15.991 12.625 16.75 12.625H21.5625C23.4586 12.625 25 14.1677 25 16.0625C25 17.9573 23.4586 19.5 21.5625 19.5Z" fill="black"/>
</svg>
