<svg width="41" height="40" viewBox="0 0 41 40" fill="none" xmlns="http://www.w3.org/2000/svg">
<path d="M3.83398 35.0007V32.334C4.83398 32.2507 5.63259 31.959 6.22982 31.459C6.82704 30.959 7.76454 30.709 9.04232 30.709C10.3201 30.709 11.3617 31.0076 12.1673 31.6048C12.9729 32.2021 13.9034 32.5007 14.959 32.5007C16.0146 32.5007 16.8826 32.2021 17.5632 31.6048C18.2437 31.0076 19.2229 30.709 20.5007 30.709C21.7784 30.709 22.8201 31.0076 23.6257 31.6048C24.4312 32.2021 25.3617 32.5007 26.4173 32.5007C27.4729 32.5007 28.3479 32.2021 29.0423 31.6048C29.7367 31.0076 30.7229 30.709 32.0007 30.709C33.2784 30.709 34.209 30.959 34.7923 31.459C35.3757 31.959 36.1673 32.2507 37.1673 32.334V35.0007C36.1951 34.9173 35.3548 34.6048 34.6465 34.0632C33.9381 33.5215 33.0562 33.2507 32.0007 33.2507C30.9451 33.2507 30.0423 33.5423 29.2923 34.1257C28.5423 34.709 27.584 35.0007 26.4173 35.0007C25.2507 35.0007 24.2367 34.709 23.3757 34.1257C22.5146 33.5423 21.5562 33.2507 20.5007 33.2507C19.4451 33.2507 18.5215 33.5423 17.7298 34.1257C16.9382 34.709 15.959 35.0007 14.7923 35.0007C13.6257 35.0007 12.6396 34.709 11.834 34.1257C11.0284 33.5423 10.0979 33.2507 9.04232 33.2507C7.98676 33.2507 7.09788 33.5215 6.37565 34.0632C5.65343 34.6048 4.80621 34.9173 3.83398 35.0007ZM3.83398 27.1673V24.6673C4.83398 24.584 5.63259 24.2992 6.22982 23.8132C6.82704 23.3271 7.76454 23.084 9.04232 23.084C10.3201 23.084 11.334 23.3479 12.084 23.8757C12.834 24.4034 13.7367 24.6673 14.7923 24.6673C15.8479 24.6673 16.7437 24.4034 17.4798 23.8757C18.2159 23.3479 19.2229 23.084 20.5007 23.084C21.7784 23.084 22.7923 23.3479 23.5423 23.8757C24.2923 24.4034 25.1951 24.6673 26.2507 24.6673C27.3062 24.6673 28.209 24.4034 28.959 23.8757C29.709 23.3479 30.7229 23.084 32.0007 23.084C33.2784 23.084 34.209 23.3271 34.7923 23.8132C35.3757 24.2992 36.1673 24.584 37.1673 24.6673V27.1673C36.1951 27.084 35.3548 26.7715 34.6465 26.2298C33.9381 25.6882 33.0562 25.4173 32.0007 25.4173C30.9451 25.4173 30.0423 25.709 29.2923 26.2923C28.5423 26.8757 27.584 27.1673 26.4173 27.1673C25.2507 27.1673 24.2367 26.8757 23.3757 26.2923C22.5146 25.709 21.5562 25.4173 20.5007 25.4173C19.4451 25.4173 18.5492 25.709 17.8132 26.2923C17.0771 26.8757 16.1257 27.1673 14.959 27.1673C13.7923 27.1673 12.7784 26.8757 11.9173 26.2923C11.0562 25.709 10.0979 25.4173 9.04232 25.4173C7.98676 25.4173 7.09788 25.6882 6.37565 26.2298C5.65343 26.7715 4.80621 27.084 3.83398 27.1673ZM12.5007 18.5007L18.1257 12.8757L15.8757 10.6257C14.9312 9.68123 13.9729 9.04923 13.0007 8.72982C12.0284 8.4104 10.7923 8.25065 9.29232 8.25065V4.95898C11.2923 4.95898 12.9382 5.20898 14.2298 5.70898C15.5215 6.20898 16.7784 7.07009 18.0007 8.29232L28.5423 18.834C28.2367 19.084 27.8826 19.2646 27.4798 19.3757C27.0771 19.4867 26.6673 19.5423 26.2507 19.5423C25.1951 19.5423 24.2854 19.2507 23.5215 18.6673C22.7576 18.084 21.7507 17.7923 20.5007 17.7923C19.2507 17.7923 18.2507 18.084 17.5007 18.6673C16.7507 19.2507 15.8479 19.5423 14.7923 19.5423C14.2923 19.5423 13.8409 19.4451 13.4382 19.2507C13.0354 19.0562 12.7229 18.8062 12.5007 18.5007ZM28.334 5.12565C29.4451 5.12565 30.3826 5.50759 31.1465 6.27148C31.9104 7.03537 32.2923 7.97287 32.2923 9.08398C32.2923 10.1951 31.9104 11.1326 31.1465 11.8965C30.3826 12.6604 29.4451 13.0423 28.334 13.0423C27.2229 13.0423 26.2854 12.6604 25.5215 11.8965C24.7576 11.1326 24.3757 10.1951 24.3757 9.08398C24.3757 7.97287 24.7576 7.03537 25.5215 6.27148C26.2854 5.50759 27.2229 5.12565 28.334 5.12565Z" fill="#101828"/>
</svg>
