<svg width="36" height="35" viewBox="0 0 36 35" fill="none" xmlns="http://www.w3.org/2000/svg">
<path d="M17.9443 17.4994L13.9854 12.692C13.1238 11.6458 11.8554 11.0465 10.5005 11.0452L7.81508 11.0426H7.8125C6.95096 11.0426 6.13979 11.3784 5.53012 11.9868C4.91917 12.5964 4.58333 13.4075 4.58333 14.2716V17.5006H2V29.771C2 31.5508 3.44925 33 5.22917 33H29.7708C31.5507 33 33 31.5508 33 29.771V17.4994H17.9443ZM13.625 18.791V31.7071H9.75V18.791H13.625ZM14.9167 18.791H20.0833V31.7071H14.9167V18.791ZM21.375 18.791H25.25V31.7071H21.375V18.791ZM5.875 14.2703C5.875 13.7524 6.0765 13.2654 6.44333 12.8999C6.81017 12.5344 7.29583 12.3329 7.81379 12.3329L10.5005 12.3355C11.4679 12.3355 12.3747 12.7656 12.9895 13.5121L16.2729 17.4981H5.875V14.269V14.2703ZM3.29167 29.7697V18.791H8.45833V31.7071H5.22917C4.16096 31.7071 3.29167 30.8378 3.29167 29.7697ZM31.7083 29.7697C31.7083 30.8378 30.839 31.7071 29.7708 31.7071H26.5417V18.791H31.7083V29.7697ZM9.10417 8.45806C10.8841 8.45806 12.3333 7.00887 12.3333 5.22903C12.3333 3.44919 10.8841 2 9.10417 2C7.32425 2 5.875 3.44919 5.875 5.22903C5.875 7.00887 7.32425 8.45806 9.10417 8.45806ZM9.10417 3.29161C10.1724 3.29161 11.0417 4.16087 11.0417 5.22903C11.0417 6.2972 10.1724 7.16645 9.10417 7.16645C8.03596 7.16645 7.16667 6.2972 7.16667 5.22903C7.16667 4.16087 8.03596 3.29161 9.10417 3.29161ZM24.1469 7.62368C23.1924 6.66918 22.6667 5.39953 22.6667 4.0485V2H23.9583V4.0485C23.9583 5.05337 24.3497 5.99883 25.0614 6.71051C26.016 7.66501 26.5417 8.93467 26.5417 10.2857V12.3329H25.25V10.2857C25.25 9.27953 24.8586 8.33407 24.1469 7.62368ZM29.3833 6.39278C28.359 5.37757 27.832 4.10791 27.832 2.75818V2H29.1237V2.75689C29.1237 3.76176 29.5151 4.70722 30.2268 5.4189C31.1736 6.11766 31.6799 7.30336 31.707 8.98375V11.0426H30.4154V8.99538C30.3947 7.75284 30.0576 6.8965 29.3833 6.39278Z" fill="black" stroke="black" stroke-width="0.5"/>
</svg>
