<svg width="20" height="20" viewBox="0 0 20 20" fill="none" xmlns="http://www.w3.org/2000/svg">
<path d="M6.20866 14.5208C6.04199 14.5208 5.89616 14.4583 5.77116 14.3333C5.64616 14.2083 5.58366 14.0625 5.58366 13.8958C5.58366 13.7292 5.64616 13.5833 5.77116 13.4583C5.89616 13.3333 6.04199 13.2708 6.20866 13.2708C6.37533 13.2708 6.52116 13.3333 6.64616 13.4583C6.77116 13.5833 6.83366 13.7292 6.83366 13.8958C6.83366 14.0625 6.77116 14.2083 6.64616 14.3333C6.52116 14.4583 6.37533 14.5208 6.20866 14.5208ZM10.0003 14.5208C9.83366 14.5208 9.68783 14.4583 9.56283 14.3333C9.43783 14.2083 9.37533 14.0625 9.37533 13.8958C9.37533 13.7292 9.43783 13.5833 9.56283 13.4583C9.68783 13.3333 9.83366 13.2708 10.0003 13.2708C10.167 13.2708 10.3128 13.3333 10.4378 13.4583C10.5628 13.5833 10.6253 13.7292 10.6253 13.8958C10.6253 14.0625 10.5628 14.2083 10.4378 14.3333C10.3128 14.4583 10.167 14.5208 10.0003 14.5208ZM13.792 14.5208C13.6253 14.5208 13.4795 14.4583 13.3545 14.3333C13.2295 14.2083 13.167 14.0625 13.167 13.8958C13.167 13.7292 13.2295 13.5833 13.3545 13.4583C13.4795 13.3333 13.6253 13.2708 13.792 13.2708C13.9587 13.2708 14.1045 13.3333 14.2295 13.4583C14.3545 13.5833 14.417 13.7292 14.417 13.8958C14.417 14.0625 14.3545 14.2083 14.2295 14.3333C14.1045 14.4583 13.9587 14.5208 13.792 14.5208ZM4.16699 11.3958V10.1458C4.16699 8.65971 4.67045 7.36112 5.67741 6.25C6.68437 5.13888 7.91699 4.50696 9.37533 4.35417V2.5H10.6253V4.35417C12.0837 4.50696 13.3163 5.13888 14.3232 6.25C15.3302 7.36112 15.8337 8.65971 15.8337 10.1458V11.3958H4.16699ZM5.41699 10.1458H14.5837C14.5837 8.88196 14.1372 7.80208 13.2443 6.90625C12.3514 6.01042 11.2715 5.5625 10.0047 5.5625C8.73791 5.5625 7.65658 6.00937 6.76074 6.90312C5.86491 7.79687 5.41699 8.87779 5.41699 10.1458ZM6.20866 17.5C6.04199 17.5 5.89616 17.4375 5.77116 17.3125C5.64616 17.1875 5.58366 17.0417 5.58366 16.875C5.58366 16.7083 5.64616 16.5625 5.77116 16.4375C5.89616 16.3125 6.04199 16.25 6.20866 16.25C6.37533 16.25 6.52116 16.3125 6.64616 16.4375C6.77116 16.5625 6.83366 16.7083 6.83366 16.875C6.83366 17.0417 6.77116 17.1875 6.64616 17.3125C6.52116 17.4375 6.37533 17.5 6.20866 17.5ZM10.0003 17.5C9.83366 17.5 9.68783 17.4375 9.56283 17.3125C9.43783 17.1875 9.37533 17.0417 9.37533 16.875C9.37533 16.7083 9.43783 16.5625 9.56283 16.4375C9.68783 16.3125 9.83366 16.25 10.0003 16.25C10.167 16.25 10.3128 16.3125 10.4378 16.4375C10.5628 16.5625 10.6253 16.7083 10.6253 16.875C10.6253 17.0417 10.5628 17.1875 10.4378 17.3125C10.3128 17.4375 10.167 17.5 10.0003 17.5ZM13.792 17.5C13.6253 17.5 13.4795 17.4375 13.3545 17.3125C13.2295 17.1875 13.167 17.0417 13.167 16.875C13.167 16.7083 13.2295 16.5625 13.3545 16.4375C13.4795 16.3125 13.6253 16.25 13.792 16.25C13.9587 16.25 14.1045 16.3125 14.2295 16.4375C14.3545 16.5625 14.417 16.7083 14.417 16.875C14.417 17.0417 14.3545 17.1875 14.2295 17.3125C14.1045 17.4375 13.9587 17.5 13.792 17.5Z" fill="#4A4F5B"/>
</svg>
