<svg width="40" height="40" viewBox="0 0 40 40" fill="none" xmlns="http://www.w3.org/2000/svg">
<path d="M26.9166 20.9999L20.0833 14.3333C19.2689 13.5627 18.5791 12.7087 18.0141 11.7712C17.4491 10.8337 17.1666 9.81267 17.1666 8.70825C17.1666 7.23603 17.6527 5.97214 18.625 4.91659C19.5972 3.86103 20.8055 3.33325 22.25 3.33325C23.1944 3.33325 24.0555 3.57631 24.8333 4.06242C25.611 4.54853 26.3055 5.15269 26.9166 5.87492C27.5277 5.15269 28.2222 4.54853 29 4.06242C29.7777 3.57631 30.6389 3.33325 31.5833 3.33325C33.0277 3.33325 34.236 3.86103 35.2083 4.91659C36.1805 5.97214 36.6666 7.23603 36.6666 8.70825C36.6666 9.80992 36.3819 10.8284 35.8125 11.7637C35.243 12.6989 34.5555 13.5555 33.75 14.3333L26.9166 20.9999ZM26.9166 17.5416L31.9166 12.5833C32.4755 12.0318 32.9902 11.4441 33.4608 10.8199C33.9314 10.1958 34.1666 9.49184 34.1666 8.70825C34.1666 7.93048 33.9235 7.25686 33.4375 6.68742C32.9514 6.11798 32.3333 5.83325 31.5833 5.83325C31.0277 5.83325 30.5139 5.98603 30.0416 6.29159C29.5694 6.59714 29.1527 6.97214 28.7916 7.41658L26.9166 9.70825L25.0416 7.41658C24.6805 6.97214 24.2639 6.59714 23.7916 6.29159C23.3194 5.98603 22.8055 5.83325 22.25 5.83325C21.5 5.83325 20.8819 6.11798 20.3958 6.68742C19.9097 7.25686 19.6666 7.93048 19.6666 8.70825C19.6666 9.49184 19.9019 10.1958 20.3725 10.8199C20.843 11.4441 21.3577 12.0318 21.9166 12.5833L26.9166 17.5416ZM10.625 31.6666L23.4166 35.4166L33.75 32.1666C33.75 31.611 33.5347 31.1458 33.1041 30.7708C32.6735 30.3958 32.1666 30.2083 31.5833 30.2083H22.875C22.4305 30.2083 21.993 30.1735 21.5625 30.1041C21.1319 30.0347 20.7083 29.9305 20.2916 29.7916L16.2916 28.5833L17.0833 26.0416L21 27.3749C21.3055 27.486 21.618 27.5693 21.9375 27.6249C22.2569 27.6805 22.5694 27.7083 22.875 27.7083H25.2083C25.2083 27.1249 25.0139 26.618 24.625 26.1874C24.236 25.7568 23.7639 25.4305 23.2083 25.2083L14.125 21.7499H10.625V31.6666ZM1.66663 36.6666V19.2499H14.0833C14.2314 19.2499 14.3795 19.2638 14.5279 19.2916C14.676 19.3193 14.8194 19.361 14.9583 19.4166L24.0416 22.8333C25.0972 23.2222 25.993 23.8472 26.7291 24.7083C27.4652 25.5693 27.8333 26.5693 27.8333 27.7083H31.5833C32.9952 27.7083 34.1955 28.2222 35.1841 29.2499C36.1725 30.2777 36.6666 31.4999 36.6666 32.9166V33.9999L23.625 37.9999L10.625 34.2916V36.6666H1.66663ZM4.16663 34.1666H8.08329V21.7499H4.16663V34.1666Z" fill="#101828"/>
</svg>
