<svg width="40" height="40" viewBox="0 0 40 40" fill="none" xmlns="http://www.w3.org/2000/svg">
<path d="M10.833 36.6673V34.7923C10.1386 34.7923 9.54826 34.5475 9.06217 34.0577C8.57609 33.5683 8.33301 32.9798 8.33301 32.2923V12.5007C8.33301 11.8132 8.57784 11.2246 9.06759 10.7348C9.55701 10.2454 10.1455 10.0007 10.833 10.0007H15.208V4.79232C15.208 4.40343 15.3538 4.06315 15.6455 3.77148C15.9372 3.47982 16.2774 3.33398 16.6663 3.33398H23.333C23.7219 3.33398 24.0622 3.47982 24.3538 3.77148C24.6455 4.06315 24.7913 4.40343 24.7913 4.79232V10.0007H29.1663C29.8538 10.0007 30.4424 10.2454 30.9322 10.7348C31.4216 11.2246 31.6663 11.8132 31.6663 12.5007V32.2923C31.6663 32.9798 31.4216 33.5683 30.9322 34.0577C30.4424 34.5475 29.8538 34.7923 29.1663 34.7923V36.6673H26.6663V34.7923H13.333V36.6673H10.833ZM17.708 10.0007H22.2913V5.83398H17.708V10.0007ZM19.9997 19.7923C21.6108 19.7923 23.2011 19.6117 24.7705 19.2507C26.3399 18.8896 27.8053 18.2784 29.1663 17.4173V12.5007H10.833V17.4173C12.1941 18.2784 13.6594 18.8896 15.2288 19.2507C16.7983 19.6117 18.3886 19.7923 19.9997 19.7923ZM18.7497 24.1673V22.459C17.333 22.3757 15.958 22.1465 14.6247 21.7715C13.2913 21.3965 12.0274 20.8479 10.833 20.1257V32.2923H29.1663V20.1257C27.9719 20.8479 26.708 21.3965 25.3747 21.7715C24.0413 22.1465 22.6663 22.3757 21.2497 22.459V24.1673H18.7497Z" fill="#101828"/>
</svg>
