<svg width="140" height="37" viewBox="0 0 140 37" fill="none" xmlns="http://www.w3.org/2000/svg">
<g clip-path="url(#clip0_2039_4)">
<g clip-path="url(#clip1_2039_4)">
<mask id="mask0_2039_4" style="mask-type:luminance" maskUnits="userSpaceOnUse" x="0" y="-1" width="140" height="38">
<path d="M140 -0.00359344H0V36.4236H140V-0.00359344Z" fill="white"/>
</mask>
<g mask="url(#mask0_2039_4)">
<path d="M44.4677 14.9301C44.0999 14.5445 43.6136 14.2027 43.0047 13.9091C42.396 13.6155 41.6514 13.3482 40.7709 13.1072C40.1095 12.9232 39.5707 12.7567 39.1545 12.6121C38.7383 12.4674 38.4407 12.336 38.2566 12.2265C38.0726 12.0818 37.9283 11.9197 37.8274 11.7444C37.7265 11.5692 37.6741 11.3807 37.6741 11.1792C37.6741 10.9776 37.7135 10.7936 37.7967 10.627C37.8799 10.4605 38.0025 10.3203 38.1691 10.1976C38.3355 10.0749 38.5413 9.99165 38.7911 9.93469C39.0406 9.87772 39.3209 9.85143 39.6319 9.85143C39.9826 9.85143 40.3678 9.93032 40.7927 10.0881C41.2176 10.2458 41.6381 10.4474 42.063 10.6971C42.4836 10.9469 42.8647 11.2361 43.1931 11.5648L45.2912 9.22042C44.8312 8.76033 44.2927 8.36156 43.6794 8.01977C43.0618 7.67798 42.4004 7.41508 41.6909 7.23541C40.9811 7.05137 40.2495 6.95933 39.4962 6.95933C38.4844 6.95933 37.5515 7.14339 36.6973 7.51147C35.8432 7.87955 35.1554 8.39663 34.643 9.0583C34.1262 9.71996 33.8721 10.4956 33.8721 11.3763C33.8721 11.9285 33.9596 12.4368 34.1349 12.8969C34.31 13.357 34.5642 13.7601 34.8926 14.1107C35.2957 14.5357 35.8212 14.9082 36.4652 15.2281C37.1089 15.5524 37.9019 15.8328 38.8392 16.0694C39.4481 16.2359 39.9475 16.3849 40.3417 16.5252C40.7359 16.661 41.0074 16.7881 41.1564 16.8976C41.4891 17.1167 41.6514 17.4322 41.6514 17.8353C41.6514 18.0545 41.6117 18.2516 41.5286 18.4138C41.4454 18.5803 41.3228 18.7205 41.1564 18.8432C40.9898 18.9615 40.7973 19.0535 40.5782 19.1193C40.3591 19.185 40.1182 19.2157 39.8597 19.2157C39.1415 19.2157 38.4363 19.0842 37.7486 18.8169C37.0608 18.5496 36.4301 18.1114 35.8563 17.5067L33.399 19.6056C34.0604 20.4163 34.9189 21.0429 35.9789 21.4811C37.0347 21.9237 38.2392 22.1428 39.5794 22.1428C40.6834 22.1428 41.6732 21.9456 42.545 21.5512C43.4165 21.1569 44.1086 20.6047 44.6124 19.8949C45.1161 19.185 45.37 18.3831 45.37 17.4804C45.37 16.9853 45.3001 16.5208 45.1642 16.0869C45.0286 15.6531 44.7918 15.2719 44.459 14.9389L44.4677 14.9301Z" fill="white"/>
<path d="M58.9269 7.93213C57.7662 7.27921 56.4434 6.95058 54.9539 6.95058C53.4648 6.95058 52.1637 7.27921 50.9942 7.93213C49.8248 8.58504 48.9048 9.48773 48.2347 10.6358C47.5647 11.7839 47.2273 13.0985 47.2273 14.5708C47.2273 16.0431 47.5647 17.3226 48.2347 18.4619C48.9048 19.6013 49.8248 20.4996 50.9942 21.1525C52.1637 21.8054 53.4822 22.134 54.9539 22.134C56.4257 22.134 57.7705 21.8054 58.9269 21.1525C60.0874 20.4996 60.9987 19.6013 61.6731 18.4619C62.3435 17.3226 62.6806 16.0256 62.6806 14.5708C62.6806 13.116 62.3435 11.7882 61.6731 10.6358C61.003 9.48773 60.0874 8.58504 58.9269 7.93213ZM58.2215 16.696C57.8975 17.3226 57.4552 17.8178 56.8857 18.1859C56.3161 18.554 55.6724 18.738 54.9539 18.738C54.2357 18.738 53.5874 18.554 53.0092 18.1859C52.4309 17.8178 51.9797 17.3226 51.6556 16.696C51.3316 16.0694 51.1826 15.3639 51.2 14.5708C51.1826 13.7426 51.3316 13.0152 51.6556 12.3886C51.9753 11.762 52.4266 11.2668 53.0092 10.8987C53.5874 10.5306 54.2357 10.3466 54.9539 10.3466C55.6724 10.3466 56.3161 10.5262 56.8857 10.8856C57.4552 11.2449 57.9018 11.74 58.2215 12.3754C58.5415 13.0108 58.6948 13.7426 58.6771 14.5708C58.6948 15.3639 58.5415 16.0694 58.2215 16.696Z" fill="white"/>
<path d="M75.1512 15.9818C75.1512 16.4068 75.0767 16.7924 74.9321 17.143C74.7831 17.4936 74.5817 17.7959 74.3231 18.0544C74.0649 18.313 73.7582 18.5102 73.3991 18.646C73.0397 18.7862 72.6412 18.852 72.1989 18.852C71.3361 18.852 70.657 18.5627 70.1707 17.9843C69.6846 17.4059 69.4394 16.5996 69.4394 15.5699V7.25729H65.5192V16.2841C65.5192 17.4979 65.7249 18.5452 66.1411 19.4172C66.5571 20.2892 67.1486 20.9641 67.9193 21.4329C68.6902 21.9018 69.6015 22.1384 70.6527 22.1384C71.4804 22.1384 72.2514 21.9807 72.9699 21.6695C73.6881 21.3584 74.3057 20.9246 74.8315 20.3725C74.9935 20.2016 75.1378 20.0219 75.2694 19.8379L75.3439 21.8624H79.0671V7.25729H75.1468V15.9818H75.1512Z" fill="white"/>
<path d="M86.9645 1.43369H83.0442V21.8624H86.9645V1.43369Z" fill="white"/>
<path d="M99.9474 7.50706C99.0713 7.13899 98.0464 6.95495 96.8723 6.95495C95.5846 6.95495 94.3934 7.20472 93.2981 7.69988C92.2031 8.19502 91.2133 8.90492 90.3328 9.82511L92.7332 12.1432C93.25 11.5166 93.8019 11.0565 94.3888 10.7629C94.976 10.4693 95.6504 10.3203 96.4037 10.3203C97.1572 10.3203 97.8273 10.5262 98.296 10.9425C98.7646 11.3544 99.0012 11.9504 99.0012 12.7216V13.1335H96.6271C95.5409 13.1335 94.5905 13.2343 93.7711 13.4359C92.9521 13.6374 92.2733 13.9266 91.7301 14.3035C91.187 14.6803 90.7795 15.158 90.5036 15.7407C90.2276 16.3192 90.0876 16.9896 90.0876 17.7433C90.0876 18.6285 90.3021 19.3953 90.7357 20.0482C91.1693 20.7011 91.7565 21.2138 92.5011 21.5819C93.2457 21.95 94.0778 22.134 94.9977 22.134C95.7162 22.134 96.395 21.9982 97.039 21.7177C97.6827 21.4417 98.2786 21.0648 98.8304 20.5872C98.8873 20.539 98.94 20.482 98.9968 20.4338V21.858H102.694V11.9504C102.694 10.8286 102.453 9.89962 101.975 9.16344C101.498 8.42729 100.819 7.87514 99.9474 7.50706ZM98.5806 18.107C98.1954 18.44 97.7572 18.6942 97.2711 18.8782C96.7848 19.0623 96.2724 19.1543 95.7379 19.1543C95.3701 19.1543 95.0415 19.0886 94.7568 18.9615C94.4722 18.8344 94.2444 18.6504 94.0821 18.4094C93.9158 18.1728 93.8326 17.8923 93.8326 17.5812C93.8326 17.2876 93.894 17.029 94.0123 16.8099C94.1305 16.5909 94.3056 16.398 94.5377 16.2315C94.7655 16.065 95.0502 15.9467 95.3919 15.8722C95.7336 15.7977 96.1234 15.7627 96.566 15.7627H98.9925V17.6951C98.8655 17.8397 98.7296 17.9799 98.5806 18.1114V18.107Z" fill="white"/>
<path d="M116.018 14.9301C115.651 14.5445 115.164 14.2027 114.555 13.9091C113.947 13.6155 113.202 13.3482 112.322 13.1072C111.66 12.9232 111.121 12.7567 110.705 12.6121C110.289 12.4674 109.991 12.336 109.807 12.2265C109.623 12.0818 109.479 11.9197 109.378 11.7444C109.277 11.5692 109.225 11.3807 109.225 11.1792C109.225 10.9776 109.264 10.7936 109.347 10.627C109.431 10.4605 109.553 10.3203 109.72 10.1976C109.886 10.0749 110.092 9.99165 110.342 9.93469C110.591 9.87772 110.872 9.85143 111.183 9.85143C111.533 9.85143 111.919 9.93032 112.343 10.0881C112.768 10.2458 113.189 10.4474 113.614 10.6971C114.034 10.9469 114.415 11.2361 114.744 11.5648L116.842 9.22042C116.382 8.76033 115.843 8.36156 115.23 8.01977C114.612 7.67798 113.951 7.41508 113.242 7.23541C112.532 7.05137 111.8 6.95933 111.047 6.95933C110.035 6.95933 109.102 7.14339 108.248 7.51147C107.394 7.87955 106.706 8.39663 106.194 9.0583C105.677 9.71996 105.423 10.4956 105.423 11.3763C105.423 11.9285 105.51 12.4368 105.686 12.8969C105.861 13.357 106.115 13.7601 106.443 14.1107C106.846 14.5357 107.372 14.9082 108.016 15.2281C108.66 15.5524 109.453 15.8328 110.39 16.0694C110.999 16.2359 111.498 16.3849 111.892 16.5252C112.287 16.661 112.558 16.7881 112.707 16.8976C113.04 17.1167 113.202 17.4322 113.202 17.8353C113.202 18.0545 113.163 18.2516 113.079 18.4138C112.996 18.5803 112.873 18.7205 112.707 18.8432C112.541 18.9615 112.348 19.0535 112.129 19.1193C111.91 19.185 111.669 19.2157 111.41 19.2157C110.692 19.2157 109.987 19.0842 109.299 18.8169C108.611 18.5496 107.981 18.1114 107.407 17.5067L104.95 19.6056C105.611 20.4163 106.47 21.0429 107.53 21.4811C108.585 21.9237 109.79 22.1428 111.13 22.1428C112.234 22.1428 113.224 21.9456 114.096 21.5512C114.967 21.1569 115.659 20.6047 116.163 19.8949C116.667 19.185 116.921 18.3831 116.921 17.4804C116.921 16.9853 116.851 16.5208 116.715 16.0869C116.579 15.6531 116.343 15.2719 116.01 14.9389L116.018 14.9301Z" fill="white"/>
<path d="M122.037 -0.00359344C121.284 -0.00359344 120.688 0.193595 120.258 0.592353C119.825 0.986729 119.61 1.49942 119.61 2.12604C119.61 2.80524 119.82 3.33107 120.245 3.69915C120.666 4.06725 121.257 4.25129 122.01 4.25129C122.764 4.25129 123.355 4.05847 123.776 3.67286C124.201 3.28725 124.411 2.77017 124.411 2.12604C124.411 1.48189 124.201 0.94291 123.776 0.56606C123.351 0.189212 122.773 0.000788501 122.037 0.000788501V-0.00359344Z" fill="white"/>
<path d="M123.995 7.25729H120.075V21.8624H123.995V7.25729Z" fill="white"/>
<path d="M139.282 9.16344C138.804 8.42729 138.125 7.87514 137.254 7.50706C136.378 7.13899 135.353 6.95495 134.179 6.95495C132.891 6.95495 131.7 7.20472 130.605 7.69988C129.51 8.19502 128.52 8.90492 127.639 9.82511L130.04 12.1432C130.556 11.5166 131.108 11.0565 131.695 10.7629C132.282 10.4693 132.957 10.3203 133.71 10.3203C134.464 10.3203 135.134 10.5262 135.602 10.9425C136.071 11.3544 136.308 11.9504 136.308 12.7216V13.1335H133.934C132.847 13.1335 131.897 13.2343 131.078 13.4359C130.258 13.6374 129.58 13.9266 129.037 14.3035C128.493 14.6803 128.086 15.158 127.81 15.7407C127.534 16.3192 127.394 16.9896 127.394 17.7433C127.394 18.6285 127.609 19.3953 128.042 20.0482C128.476 20.7011 129.063 21.2138 129.808 21.5819C130.552 21.95 131.384 22.134 132.304 22.134C133.022 22.134 133.701 21.9982 134.345 21.7177C134.989 21.4417 135.585 21.0648 136.137 20.5872C136.194 20.539 136.246 20.482 136.303 20.4338V21.858H140V11.9504C140 10.8286 139.759 9.89962 139.282 9.16344ZM135.887 18.107C135.502 18.44 135.064 18.6942 134.578 18.8782C134.091 19.0623 133.579 19.1543 133.044 19.1543C132.677 19.1543 132.348 19.0886 132.063 18.9615C131.778 18.8344 131.551 18.6504 131.389 18.4094C131.222 18.1728 131.139 17.8923 131.139 17.5812C131.139 17.2876 131.2 17.029 131.319 16.8099C131.437 16.5909 131.612 16.398 131.844 16.2315C132.072 16.065 132.357 15.9467 132.698 15.8722C133.04 15.7977 133.43 15.7627 133.872 15.7627H136.299V17.6951C136.172 17.8397 136.036 17.9799 135.887 18.1114V18.107Z" fill="white"/>
<path d="M94.3407 32.0724C94.0868 32.0724 93.8854 32.16 93.7277 32.331C93.57 32.5017 93.4912 32.7251 93.4912 32.9926C93.4912 33.2816 93.5654 33.5097 93.7144 33.6717C93.8634 33.834 94.0781 33.9128 94.3497 33.9128C94.6036 33.9128 94.8097 33.825 94.9717 33.6543C95.1337 33.4833 95.2125 33.2642 95.2125 32.9926C95.2125 32.7034 95.1337 32.4756 94.9847 32.3133C94.8314 32.1513 94.6169 32.0724 94.3407 32.0724Z" fill="#EF8716"/>
<path d="M98.3531 29.1058C98.6157 28.9392 98.9224 28.8603 99.2641 28.8603C99.4568 28.8603 99.6539 28.8997 99.8553 28.9742C100.057 29.0487 100.245 29.1539 100.425 29.2855C100.6 29.4168 100.745 29.5614 100.863 29.7237L101.634 28.7815C101.397 28.4221 101.056 28.1372 100.605 27.9271C100.158 27.7167 99.6669 27.6115 99.1284 27.6115C98.5633 27.6115 98.0552 27.7474 97.5996 28.0233C97.1486 28.2995 96.7935 28.6763 96.5309 29.1496C96.2681 29.6229 96.1411 30.1616 96.1411 30.7578C96.1411 31.3537 96.2724 31.8928 96.5309 32.366C96.7892 32.839 97.1486 33.2161 97.5996 33.492C98.0508 33.7682 98.5589 33.9039 99.1284 33.9039C99.6275 33.9039 100.105 33.7989 100.565 33.5842C101.025 33.3694 101.38 33.0932 101.634 32.7559L100.863 31.8136C100.718 31.9977 100.561 32.1513 100.385 32.2739C100.215 32.3965 100.035 32.4886 99.851 32.5544C99.6669 32.6199 99.4699 32.6507 99.2641 32.6507C98.9357 32.6507 98.6377 32.5675 98.3705 32.3965C98.1033 32.2301 97.8888 32.0023 97.7355 31.7174C97.5778 31.4325 97.499 31.1126 97.499 30.7535C97.499 30.3941 97.5735 30.0698 97.7265 29.7849C97.8798 29.4956 98.0902 29.2722 98.3531 29.1058Z" fill="#EF8716"/>
<path d="M107.07 28.0146C106.597 27.743 106.058 27.6071 105.462 27.6071C104.866 27.6071 104.319 27.743 103.841 28.0146C103.364 28.2862 102.996 28.6589 102.724 29.1319C102.453 29.6052 102.317 30.1443 102.317 30.7488C102.317 31.3537 102.453 31.8928 102.724 32.3704C102.996 32.848 103.368 33.2161 103.841 33.4877C104.314 33.7592 104.853 33.8952 105.462 33.8952C106.071 33.8952 106.592 33.7592 107.07 33.4877C107.547 33.2161 107.915 32.8437 108.187 32.3704C108.458 31.8971 108.594 31.358 108.594 30.7488C108.594 30.1399 108.458 29.6052 108.187 29.1319C107.915 28.6589 107.543 28.2862 107.07 28.0146ZM106.96 31.7218C106.811 32.0067 106.605 32.2345 106.347 32.4008C106.088 32.5675 105.79 32.6463 105.462 32.6463C105.133 32.6463 104.836 32.5631 104.573 32.4008C104.31 32.2388 104.104 32.011 103.96 31.7218C103.815 31.4325 103.741 31.1126 103.741 30.7535C103.741 30.3941 103.815 30.0698 103.96 29.7849C104.104 29.4956 104.31 29.2722 104.573 29.1058C104.836 28.9392 105.133 28.8603 105.462 28.8603C105.79 28.8603 106.084 28.9392 106.347 29.1015C106.605 29.2635 106.811 29.4869 106.96 29.7718C107.109 30.0611 107.179 30.3854 107.175 30.7535C107.183 31.1126 107.113 31.4369 106.96 31.7218Z" fill="#EF8716"/>
<path d="M118.099 27.9051C117.792 27.721 117.411 27.6291 116.951 27.6291C116.754 27.6291 116.548 27.6596 116.338 27.721C116.128 27.7825 115.926 27.8743 115.734 27.9926C115.541 28.1111 115.37 28.2468 115.217 28.4004C115.081 28.536 114.971 28.685 114.884 28.8473C114.805 28.6325 114.709 28.4398 114.59 28.2862C114.42 28.0627 114.205 27.9007 113.955 27.7912C113.701 27.686 113.412 27.6291 113.084 27.6291C112.856 27.6291 112.633 27.6642 112.418 27.7387C112.203 27.8132 112.002 27.9138 111.809 28.041C111.616 28.1679 111.454 28.3213 111.314 28.4966C111.279 28.536 111.257 28.5844 111.227 28.6238L111.209 27.7297H109.834V33.7813H111.244V30.1529C111.244 29.9689 111.279 29.8025 111.349 29.6492C111.419 29.4956 111.516 29.36 111.642 29.2415C111.77 29.1232 111.914 29.0313 112.081 28.9655C112.247 28.8997 112.427 28.869 112.628 28.869C112.974 28.869 113.237 28.9829 113.425 29.2154C113.614 29.4432 113.706 29.7762 113.706 30.2144V33.7856H115.116V30.1793C115.116 29.9866 115.151 29.8156 115.221 29.6579C115.291 29.5002 115.388 29.3643 115.515 29.2461C115.642 29.1276 115.786 29.0357 115.957 28.9699C116.124 28.9041 116.308 28.8734 116.509 28.8734C116.886 28.8734 117.162 28.9829 117.341 29.2067C117.521 29.4301 117.613 29.7675 117.613 30.2274V33.7856H119.023V30.1356C119.023 29.5834 118.949 29.1232 118.796 28.7464C118.642 28.3696 118.414 28.0935 118.108 27.9094L118.099 27.9051Z" fill="#EF8716"/>
<path d="M121.117 32.0724C120.863 32.0724 120.662 32.16 120.504 32.331C120.346 32.5017 120.267 32.7251 120.267 32.9926C120.267 33.2816 120.342 33.5097 120.491 33.6717C120.639 33.834 120.854 33.9128 121.126 33.9128C121.38 33.9128 121.586 33.825 121.748 33.6543C121.91 33.4833 121.989 33.2642 121.989 32.9926C121.989 32.7034 121.91 32.4756 121.761 32.3133C121.608 32.1513 121.393 32.0724 121.117 32.0724Z" fill="#EF8716"/>
<path d="M131.55 27.9051C131.244 27.721 130.863 27.6291 130.403 27.6291C130.206 27.6291 130 27.6596 129.79 27.721C129.579 27.7825 129.378 27.8743 129.185 27.9926C128.992 28.1111 128.822 28.2468 128.668 28.4004C128.532 28.536 128.423 28.685 128.335 28.8473C128.257 28.6325 128.16 28.4398 128.042 28.2862C127.871 28.0627 127.657 27.9007 127.407 27.7912C127.153 27.686 126.864 27.6291 126.535 27.6291C126.307 27.6291 126.084 27.6642 125.869 27.7387C125.655 27.8132 125.453 27.9138 125.261 28.041C125.068 28.1679 124.906 28.3213 124.766 28.4966C124.73 28.536 124.709 28.5844 124.678 28.6238L124.661 27.7297H123.285V33.7813H124.696V30.1529C124.696 29.9689 124.73 29.8025 124.801 29.6492C124.871 29.4956 124.967 29.36 125.094 29.2415C125.221 29.1232 125.366 29.0313 125.532 28.9655C125.698 28.8997 125.878 28.869 126.08 28.869C126.426 28.869 126.689 28.9829 126.877 29.2154C127.065 29.4432 127.157 29.7762 127.157 30.2144V33.7856H128.568V30.1793C128.568 29.9866 128.603 29.8156 128.673 29.6579C128.743 29.5002 128.839 29.3643 128.966 29.2461C129.093 29.1276 129.238 29.0357 129.409 28.9699C129.575 28.9041 129.759 28.8734 129.96 28.8734C130.337 28.8734 130.613 28.9829 130.793 29.2067C130.972 29.4301 131.064 29.7675 131.064 30.2274V33.7856H132.475V30.1356C132.475 29.5834 132.4 29.1232 132.247 28.7464C132.094 28.3696 131.866 28.0935 131.559 27.9094L131.55 27.9051Z" fill="#EF8716"/>
<path d="M138.344 27.7341L136.921 31.7174C136.864 31.8794 136.807 32.0417 136.75 32.1994C136.741 32.1687 136.732 32.1423 136.724 32.1119C136.671 31.9452 136.614 31.8139 136.562 31.7174L134.884 27.7341H133.263L136.032 33.9346L134.958 36.4236H136.426L137.447 33.7813L139.961 27.7297H138.331L138.344 27.7341Z" fill="#EF8716"/>
<path d="M2.08057 8.31336C5.31753 5.67543 9.43494 4.09792 13.9378 4.09792C18.4406 4.09792 22.558 5.67543 25.795 8.31336C24.7744 9.10211 23.8107 9.97411 22.9128 10.8987C20.2759 9.60603 17.3105 8.87425 14.1699 8.87425C11.0293 8.87425 7.83617 9.66301 5.11607 11.0652C4.17869 10.0705 3.17124 9.15906 2.08496 8.31773L2.08057 8.31336ZM24.516 18.7731C23.618 18.7731 22.7201 18.8125 21.8397 18.8958C20.9593 18.979 20.0876 19.0842 19.2291 19.2376C18.8086 19.3077 18.3881 19.3997 17.9763 19.483C17.7573 19.5224 17.5558 19.5794 17.3368 19.6319C16.1804 19.9168 15.0372 20.2717 13.9378 20.6792C12.8384 20.2717 11.7082 19.9168 10.5387 19.6319C10.3329 19.5794 10.1183 19.5355 9.89923 19.483C9.47874 19.3866 9.07138 19.3077 8.64649 19.2376C7.78797 19.0886 6.92071 18.9659 6.03591 18.8958C5.15111 18.8125 4.26631 18.7731 3.3596 18.7731C2.2295 18.7731 1.11693 18.8432 0.0306396 18.9615C1.29652 18.0764 2.6938 17.3972 4.19182 16.937C5.59351 16.4901 7.08713 16.2579 8.63773 16.2579H8.94872C10.0482 16.2841 11.1126 16.42 12.1419 16.6654C12.7551 16.8143 13.3508 16.9896 13.9378 17.2087C14.5203 16.9896 15.1204 16.8012 15.7337 16.6654C16.7543 16.42 17.8274 16.2841 18.9268 16.2579H19.2378C20.7884 16.2579 22.2821 16.4901 23.6969 16.9239C25.1905 17.3884 26.5922 18.0807 27.8581 18.9484C26.7411 18.8257 25.6417 18.7731 24.5116 18.7731H24.516ZM19.7459 14.9082C19.5839 14.9082 19.4043 14.895 19.2422 14.895C17.3806 14.895 15.5979 15.2368 13.9378 15.8459C12.2908 15.2325 10.4993 14.895 8.63336 14.895C8.47128 14.895 8.2917 14.895 8.12963 14.9082C6.36003 14.9608 4.66051 15.3289 3.10115 15.9424C2.57116 15.4954 2.02801 15.0572 1.47173 14.6497C2.81645 13.5629 4.31448 12.6384 5.91763 11.9285C8.37932 10.8418 11.0994 10.2283 13.9509 10.2283C16.8024 10.2283 19.5269 10.8418 21.9842 11.9285C23.5874 12.634 25.0854 13.5585 26.4301 14.6497C25.8738 15.0572 25.3132 15.491 24.8007 15.9424C23.2107 15.3289 21.5112 14.9651 19.7416 14.9082H19.7459Z" fill="#EF8716"/>
<path d="M9.25974 24.417C8.67717 24.3075 8.10336 24.1716 7.54709 24.0095C7.1266 23.9 6.70608 23.7641 6.28122 23.6283C6.07535 23.5582 5.87386 23.4924 5.66799 23.4092C3.64432 22.673 1.73894 21.6695 0 20.4426C1.11695 20.3199 2.24266 20.2542 3.38591 20.2542C4.73061 20.2542 6.04906 20.3506 7.34122 20.5127C7.34122 20.5127 8.19973 20.6486 8.55017 20.7011C9.42181 20.8501 10.2891 21.0429 11.1345 21.2708C11.4061 21.3409 11.6908 21.4198 11.9623 21.503C12.6413 21.709 13.2939 21.9237 13.9466 22.1691C14.5992 21.9237 15.265 21.6915 15.9308 21.503C16.2024 21.4198 16.4871 21.3409 16.7587 21.2708C17.5997 21.0385 18.4713 20.8501 19.343 20.7011C19.6978 20.6486 20.184 20.5522 20.5519 20.5127C21.8441 20.3506 23.1757 20.2542 24.5072 20.2542C25.6505 20.2673 26.7762 20.3243 27.8801 20.4601C26.1542 21.6827 24.2488 22.6905 22.2251 23.4267C22.0193 23.4968 21.8178 23.5757 21.6119 23.6458C21.1914 23.7816 20.784 23.9175 20.346 24.027C19.7766 24.176 19.2028 24.3119 18.6334 24.4346C18.4845 24.4608 18.3224 24.4871 18.1691 24.5178C17.42 24.6537 16.6754 24.7501 15.9133 24.8026C15.2606 24.8552 14.608 24.8859 13.9422 24.8859C13.2764 24.8859 12.6237 24.8596 11.9711 24.8026C11.2089 24.7325 10.4599 24.6405 9.71529 24.5178L9.25098 24.4214L9.25974 24.417Z" fill="#EF8716"/>
</g>
</g>
</g>
<defs>
<clipPath id="clip0_2039_4">
<rect width="140" height="36.42" fill="white"/>
</clipPath>
<clipPath id="clip1_2039_4">
<rect width="140" height="36.4272" fill="white" transform="translate(0 -0.00359344)"/>
</clipPath>
</defs>
</svg>
