<svg width="515" height="134" viewBox="0 0 515 134" fill="none" xmlns="http://www.w3.org/2000/svg">
<g clip-path="url(#clip0_259_194)">
<path d="M163.578 54.9347C162.225 53.5162 160.436 52.2589 158.196 51.1789C155.957 50.0989 153.218 49.1156 149.979 48.2291C147.546 47.5521 145.564 46.9395 144.033 46.4076C142.502 45.8756 141.407 45.3921 140.73 44.9891C140.053 44.4571 139.522 43.8607 139.151 43.216C138.78 42.5712 138.587 41.8781 138.587 41.1366C138.587 40.3951 138.732 39.7181 139.038 39.1055C139.344 38.493 139.795 37.9772 140.408 37.5258C141.02 37.0745 141.777 36.7682 142.696 36.5587C143.614 36.3491 144.645 36.2524 145.789 36.2524C147.079 36.2524 148.496 36.5426 150.059 37.1229C151.622 37.7031 153.169 38.4446 154.732 39.3634C156.279 40.2822 157.681 41.3461 158.889 42.5551L166.607 33.9312C164.915 32.2387 162.934 30.7718 160.678 29.5145C158.406 28.2572 155.973 27.2901 153.363 26.6292C150.752 25.9522 148.061 25.6136 145.29 25.6136C141.568 25.6136 138.136 26.2907 134.994 27.6447C131.852 28.9987 129.322 30.9008 127.437 33.3348C125.536 35.7688 124.601 38.6219 124.601 41.8619C124.601 43.893 124.923 45.7628 125.568 47.4553C126.212 49.1479 127.147 50.6309 128.355 51.9204C129.838 53.484 131.771 54.8541 134.14 56.0308C136.508 57.2237 139.425 58.2553 142.873 59.1257C145.113 59.7383 146.95 60.2863 148.4 60.8022C149.85 61.3019 150.849 61.7693 151.397 62.1723C152.621 62.9783 153.218 64.1389 153.218 65.6218C153.218 66.4278 153.072 67.1532 152.766 67.7496C152.46 68.3621 152.009 68.8779 151.397 69.3293C150.784 69.7645 150.076 70.103 149.27 70.3448C148.464 70.5866 147.578 70.6994 146.627 70.6994C143.985 70.6994 141.391 70.2158 138.861 69.2326C136.331 68.2493 134.011 66.6373 131.9 64.4129L122.861 72.134C125.294 75.1161 128.452 77.4212 132.351 79.0331C136.235 80.6612 140.666 81.4671 145.596 81.4671C149.657 81.4671 153.298 80.7418 156.505 79.291C159.711 77.8403 162.257 75.8092 164.11 73.1979C165.963 70.5866 166.897 67.6368 166.897 64.3162C166.897 62.4947 166.64 60.786 166.14 59.1902C165.641 57.5944 164.77 56.192 163.546 54.967L163.578 54.9347Z" fill="white"/>
<path d="M216.767 29.1922C212.497 26.7904 207.631 25.5814 202.152 25.5814C196.674 25.5814 191.888 26.7904 187.586 29.1922C183.284 31.5939 179.9 34.9145 177.435 39.1378C174.97 43.361 173.729 48.1968 173.729 53.6129C173.729 59.029 174.97 63.7359 177.435 67.9269C179.9 72.1179 183.284 75.4224 187.586 77.8242C191.888 80.226 196.738 81.4349 202.152 81.4349C207.566 81.4349 212.513 80.226 216.767 77.8242C221.036 75.4224 224.388 72.1179 226.869 67.9269C229.335 63.7359 230.575 58.9646 230.575 53.6129C230.575 48.2613 229.335 43.3772 226.869 39.1378C224.404 34.9145 221.036 31.5939 216.767 29.1922ZM214.172 61.4308C212.98 63.7359 211.353 65.5574 209.258 66.9114C207.163 68.2654 204.795 68.9424 202.152 68.9424C199.51 68.9424 197.125 68.2654 194.998 66.9114C192.871 65.5574 191.211 63.7359 190.019 61.4308C188.827 59.1258 188.279 56.5305 188.343 53.6129C188.279 50.5664 188.827 47.8906 190.019 45.5855C191.195 43.2804 192.855 41.459 194.998 40.1049C197.125 38.7509 199.51 38.0739 202.152 38.0739C204.795 38.0739 207.163 38.7348 209.258 40.0566C211.353 41.3784 212.996 43.1999 214.172 45.5372C215.349 47.8745 215.913 50.5664 215.848 53.6129C215.913 56.5305 215.349 59.1258 214.172 61.4308Z" fill="white"/>
<path d="M276.449 58.8033C276.449 60.3669 276.175 61.7854 275.643 63.0749C275.095 64.3645 274.354 65.4767 273.403 66.4277C272.453 67.3788 271.325 68.1042 270.004 68.6039C268.682 69.1197 267.216 69.3615 265.589 69.3615C262.415 69.3615 259.917 68.2976 258.128 66.1698C256.34 64.0421 255.438 61.0761 255.438 57.2881V26.7097H241.017V59.9155C241.017 64.3806 241.774 68.2331 243.305 71.4409C244.835 74.6486 247.011 77.131 249.846 78.8558C252.682 80.5805 256.034 81.451 259.901 81.451C262.946 81.451 265.782 80.8707 268.425 79.7262C271.067 78.5817 273.339 76.9859 275.273 74.9549C275.869 74.3262 276.4 73.6653 276.884 72.9883L277.158 80.4355H290.854V26.7097H276.433V58.8033H276.449Z" fill="white"/>
<path d="M319.905 5.28711H305.484V80.4354H319.905V5.28711Z" fill="white"/>
<path d="M367.664 27.6286C364.441 26.2745 360.671 25.5975 356.352 25.5975C351.615 25.5975 347.233 26.5163 343.204 28.3378C339.176 30.1593 335.535 32.7706 332.296 36.1557L341.126 44.6828C343.027 42.3778 345.057 40.6852 347.216 39.6052C349.376 38.5252 351.857 37.9772 354.628 37.9772C357.4 37.9772 359.865 38.7348 361.589 40.2661C363.313 41.7813 364.183 43.9736 364.183 46.8106V48.3258H355.45C351.454 48.3258 347.958 48.6965 344.944 49.438C341.931 50.1795 339.434 51.2434 337.436 52.6297C335.438 54.0159 333.939 55.7729 332.924 57.9168C331.909 60.0445 331.394 62.5108 331.394 65.2833C331.394 68.5394 332.183 71.3603 333.778 73.7621C335.373 76.1639 337.533 78.0498 340.272 79.4039C343.011 80.7579 346.072 81.4349 349.456 81.4349C352.099 81.4349 354.596 80.9352 356.965 79.9036C359.333 78.888 361.525 77.5018 363.555 75.7448C363.764 75.5675 363.958 75.3579 364.167 75.1806V80.4194H377.766V43.9736C377.766 39.847 376.88 36.4297 375.124 33.7217C373.368 31.0136 370.87 28.9826 367.664 27.6286ZM362.636 66.6212C361.219 67.8463 359.607 68.7812 357.819 69.4582C356.03 70.1352 354.145 70.4738 352.179 70.4738C350.826 70.4738 349.617 70.232 348.57 69.7645C347.523 69.297 346.685 68.62 346.088 67.7335C345.476 66.863 345.17 65.8314 345.17 64.6869C345.17 63.6069 345.396 62.6559 345.831 61.8499C346.266 61.0439 346.91 60.3347 347.764 59.7222C348.602 59.1096 349.649 58.6744 350.906 58.4004C352.163 58.1263 353.597 57.9974 355.225 57.9974H364.151V65.106C363.684 65.638 363.184 66.1538 362.636 66.6374V66.6212Z" fill="white"/>
<path d="M426.782 54.9347C425.429 53.5162 423.64 52.2589 421.4 51.1789C419.161 50.0989 416.422 49.1156 413.183 48.2291C410.75 47.5521 408.768 46.9395 407.237 46.4076C405.707 45.8756 404.611 45.3921 403.934 44.9891C403.257 44.4571 402.726 43.8607 402.355 43.216C401.984 42.5712 401.791 41.8781 401.791 41.1366C401.791 40.3951 401.936 39.7181 402.242 39.1055C402.548 38.493 403 37.9772 403.612 37.5258C404.224 37.0745 404.981 36.7682 405.9 36.5587C406.818 36.3491 407.85 36.2524 408.994 36.2524C410.283 36.2524 411.701 36.5426 413.263 37.1229C414.826 37.7031 416.373 38.4446 417.936 39.3634C419.483 40.2822 420.885 41.3461 422.093 42.5551L429.811 33.9312C428.12 32.2387 426.138 30.7718 423.882 29.5145C421.61 28.2572 419.177 27.2901 416.567 26.6292C413.956 25.9522 411.265 25.6136 408.494 25.6136C404.772 25.6136 401.34 26.2907 398.198 27.6447C395.056 28.9987 392.526 30.9008 390.641 33.3348C388.74 35.7688 387.805 38.6219 387.805 41.8619C387.805 43.893 388.127 45.7628 388.772 47.4553C389.416 49.1479 390.351 50.6309 391.559 51.9204C393.042 53.484 394.975 54.8541 397.344 56.0308C399.713 57.2237 402.629 58.2553 406.077 59.1257C408.317 59.7383 410.154 60.2863 411.604 60.8022C413.054 61.3019 414.053 61.7693 414.601 62.1723C415.825 62.9783 416.422 64.1389 416.422 65.6218C416.422 66.4278 416.277 67.1532 415.97 67.7496C415.664 68.3621 415.213 68.8779 414.601 69.3293C413.989 69.7645 413.28 70.103 412.474 70.3448C411.668 70.5866 410.782 70.6994 409.831 70.6994C407.189 70.6994 404.595 70.2158 402.065 69.2326C399.535 68.2493 397.215 66.6373 395.104 64.4129L386.065 72.134C388.498 75.1161 391.656 77.4212 395.555 79.0331C399.439 80.6612 403.87 81.4671 408.8 81.4671C412.861 81.4671 416.502 80.7418 419.709 79.291C422.915 77.8403 425.461 75.8092 427.314 73.1979C429.167 70.5866 430.101 67.6368 430.101 64.3162C430.101 62.4947 429.844 60.786 429.344 59.1902C428.845 57.5944 427.975 56.192 426.75 54.967L426.782 54.9347Z" fill="white"/>
<path d="M448.921 0C446.15 0 443.958 0.72537 442.379 2.19223C440.784 3.64297 439.995 5.52893 439.995 7.834C439.995 10.3325 440.768 12.2668 442.331 13.6208C443.878 14.9749 446.053 15.6519 448.824 15.6519C451.596 15.6519 453.771 14.9426 455.318 13.5241C456.881 12.1056 457.654 10.2035 457.654 7.834C457.654 5.46445 456.881 3.48178 455.318 2.09551C453.755 0.70925 451.628 0.0161193 448.921 0.0161193V0Z" fill="white"/>
<path d="M456.124 26.7097H441.703V80.4355H456.124V26.7097Z" fill="white"/>
<path d="M512.358 33.7217C510.602 31.0136 508.104 28.9826 504.898 27.6286C501.675 26.2745 497.905 25.5975 493.586 25.5975C488.849 25.5975 484.466 26.5163 480.438 28.3378C476.41 30.1593 472.768 32.7706 469.53 36.1557L478.36 44.6828C480.261 42.3778 482.291 40.6852 484.45 39.6052C486.609 38.5252 489.091 37.9772 491.862 37.9772C494.634 37.9772 497.099 38.7348 498.823 40.2661C500.547 41.7813 501.417 43.9736 501.417 46.8106V48.3258H492.684C488.688 48.3258 485.191 48.6965 482.178 49.438C479.165 50.1795 476.668 51.2434 474.67 52.6297C472.672 54.0159 471.173 55.7729 470.158 57.9168C469.143 60.0445 468.627 62.5108 468.627 65.2833C468.627 68.5394 469.417 71.3603 471.012 73.7621C472.607 76.1639 474.766 78.0498 477.506 79.4039C480.245 80.7579 483.306 81.4349 486.69 81.4349C489.332 81.4349 491.83 80.9352 494.199 79.9036C496.567 78.888 498.759 77.5018 500.789 75.7448C500.998 75.5675 501.192 75.3579 501.401 75.1806V80.4194H515V43.9736C515 39.847 514.114 36.4297 512.358 33.7217ZM499.87 66.6212C498.452 67.8463 496.841 68.7812 495.053 69.4582C493.264 70.1352 491.379 70.4738 489.413 70.4738C488.06 70.4738 486.851 70.232 485.804 69.7645C484.756 69.297 483.919 68.62 483.322 67.7335C482.71 66.863 482.404 65.8314 482.404 64.6869C482.404 63.6069 482.63 62.6559 483.065 61.8499C483.5 61.0439 484.144 60.3347 484.998 59.7222C485.836 59.1096 486.883 58.6744 488.14 58.4004C489.397 58.1263 490.831 57.9974 492.458 57.9974H501.385V65.106C500.918 65.638 500.418 66.1538 499.87 66.6374V66.6212Z" fill="white"/>
<path d="M347.039 117.993C346.105 117.993 345.364 118.316 344.784 118.944C344.204 119.573 343.914 120.395 343.914 121.378C343.914 122.442 344.187 123.281 344.735 123.877C345.283 124.473 346.073 124.764 347.072 124.764C348.006 124.764 348.764 124.441 349.36 123.812C349.956 123.184 350.246 122.378 350.246 121.378C350.246 120.315 349.956 119.476 349.408 118.88C348.844 118.284 348.055 117.993 347.039 117.993Z" fill="white"/>
<path d="M361.799 107.081C362.765 106.468 363.893 106.178 365.15 106.178C365.859 106.178 366.584 106.323 367.325 106.597C368.067 106.871 368.759 107.258 369.42 107.742C370.065 108.225 370.596 108.757 371.031 109.353L373.867 105.888C372.997 104.566 371.74 103.518 370.081 102.745C368.437 101.971 366.632 101.584 364.651 101.584C362.572 101.584 360.703 102.084 359.027 103.099C357.368 104.115 356.062 105.501 355.096 107.242C354.129 108.983 353.662 110.965 353.662 113.158C353.662 115.35 354.145 117.333 355.096 119.073C356.046 120.814 357.368 122.201 359.027 123.216C360.687 124.232 362.556 124.731 364.651 124.731C366.487 124.731 368.244 124.344 369.936 123.555C371.627 122.765 372.933 121.749 373.867 120.508L371.031 117.042C370.5 117.719 369.92 118.284 369.275 118.735C368.647 119.186 367.986 119.525 367.309 119.767C366.632 120.008 365.907 120.121 365.15 120.121C363.942 120.121 362.846 119.815 361.863 119.186C360.88 118.574 360.091 117.736 359.527 116.688C358.947 115.64 358.657 114.463 358.657 113.142C358.657 111.82 358.931 110.627 359.494 109.579C360.058 108.515 360.832 107.693 361.799 107.081Z" fill="white"/>
<path d="M393.863 103.067C392.123 102.068 390.141 101.568 387.95 101.568C385.759 101.568 383.744 102.068 381.988 103.067C380.232 104.066 378.878 105.437 377.879 107.177C376.88 108.918 376.381 110.901 376.381 113.125C376.381 115.35 376.88 117.333 377.879 119.09C378.878 120.847 380.248 122.201 381.988 123.2C383.728 124.199 385.71 124.699 387.95 124.699C390.19 124.699 392.107 124.199 393.863 123.2C395.62 122.201 396.973 120.83 397.972 119.09C398.971 117.349 399.471 115.366 399.471 113.125C399.471 110.885 398.971 108.918 397.972 107.177C396.973 105.437 395.604 104.066 393.863 103.067ZM393.461 116.704C392.913 117.752 392.155 118.59 391.205 119.202C390.254 119.815 389.158 120.105 387.95 120.105C386.741 120.105 385.646 119.799 384.679 119.202C383.712 118.606 382.955 117.768 382.423 116.704C381.891 115.64 381.618 114.463 381.618 113.142C381.618 111.82 381.891 110.627 382.423 109.579C382.955 108.515 383.712 107.693 384.679 107.081C385.646 106.468 386.741 106.178 387.95 106.178C389.158 106.178 390.238 106.468 391.205 107.065C392.155 107.661 392.913 108.483 393.461 109.531C394.008 110.595 394.266 111.788 394.25 113.142C394.282 114.463 394.024 115.656 393.461 116.704Z" fill="white"/>
<path d="M434.436 102.664C433.308 101.987 431.906 101.648 430.214 101.648C429.489 101.648 428.732 101.761 427.958 101.987C427.185 102.213 426.444 102.551 425.735 102.986C425.026 103.422 424.397 103.921 423.834 104.485C423.334 104.985 422.931 105.533 422.609 106.13C422.319 105.34 421.964 104.631 421.529 104.066C420.901 103.244 420.111 102.648 419.193 102.245C418.258 101.858 417.195 101.648 415.987 101.648C415.149 101.648 414.327 101.777 413.537 102.051C412.748 102.325 412.007 102.696 411.298 103.164C410.589 103.631 409.993 104.195 409.477 104.84C409.348 104.985 409.267 105.162 409.155 105.308L409.09 102.019H404.031V124.28H409.219V110.933C409.219 110.256 409.348 109.644 409.606 109.079C409.864 108.515 410.218 108.016 410.685 107.58C411.153 107.145 411.684 106.807 412.297 106.565C412.909 106.323 413.57 106.21 414.311 106.21C415.584 106.21 416.55 106.629 417.243 107.484C417.936 108.322 418.275 109.547 418.275 111.159V124.296H423.463V111.03C423.463 110.321 423.592 109.692 423.85 109.112C424.107 108.531 424.462 108.032 424.929 107.596C425.396 107.161 425.928 106.823 426.557 106.581C427.169 106.339 427.846 106.226 428.587 106.226C429.972 106.226 430.988 106.629 431.648 107.451C432.309 108.273 432.647 109.515 432.647 111.207V124.296H437.836V110.869C437.836 108.838 437.562 107.145 436.998 105.759C436.434 104.373 435.596 103.357 434.468 102.68L434.436 102.664Z" fill="white"/>
<path d="M445.538 117.993C444.603 117.993 443.862 118.316 443.282 118.944C442.702 119.573 442.412 120.395 442.412 121.378C442.412 122.442 442.686 123.281 443.233 123.877C443.781 124.473 444.571 124.764 445.57 124.764C446.504 124.764 447.262 124.441 447.858 123.812C448.454 123.184 448.744 122.378 448.744 121.378C448.744 120.315 448.454 119.476 447.906 118.88C447.342 118.284 446.553 117.993 445.538 117.993Z" fill="white"/>
<path d="M483.918 102.664C482.79 101.987 481.388 101.648 479.697 101.648C478.972 101.648 478.214 101.761 477.441 101.987C476.667 102.213 475.926 102.551 475.217 102.986C474.508 103.422 473.88 103.921 473.316 104.485C472.816 104.985 472.414 105.533 472.091 106.13C471.801 105.34 471.447 104.631 471.012 104.066C470.383 103.244 469.594 102.648 468.675 102.245C467.741 101.858 466.677 101.648 465.469 101.648C464.631 101.648 463.809 101.777 463.02 102.051C462.23 102.325 461.489 102.696 460.78 103.164C460.071 103.631 459.475 104.195 458.959 104.84C458.83 104.985 458.75 105.162 458.637 105.308L458.573 102.019H453.513V124.28H458.702V110.933C458.702 110.256 458.83 109.644 459.088 109.079C459.346 108.515 459.701 108.016 460.168 107.58C460.635 107.145 461.167 106.807 461.779 106.565C462.391 106.323 463.052 106.21 463.793 106.21C465.066 106.21 466.033 106.629 466.726 107.484C467.419 108.322 467.757 109.547 467.757 111.159V124.296H472.945V111.03C472.945 110.321 473.074 109.692 473.332 109.112C473.59 108.531 473.944 108.032 474.412 107.596C474.879 107.161 475.411 106.823 476.039 106.581C476.651 106.339 477.328 106.226 478.069 106.226C479.455 106.226 480.47 106.629 481.131 107.451C481.791 108.273 482.13 109.515 482.13 111.207V124.296H487.318V110.869C487.318 108.838 487.044 107.145 486.48 105.759C485.916 104.373 485.078 103.357 483.95 102.68L483.918 102.664Z" fill="white"/>
<path d="M508.91 102.035L503.673 116.688C503.464 117.284 503.254 117.881 503.045 118.461C503.012 118.348 502.98 118.251 502.948 118.138C502.755 117.526 502.545 117.042 502.352 116.688L496.181 102.035H490.219L500.402 124.844L496.454 134H501.852L505.607 124.28L514.855 102.019H508.861L508.91 102.035Z" fill="white"/>
<path d="M7.65362 30.5944C19.561 20.8906 34.7072 15.0876 51.2712 15.0876C67.8352 15.0876 82.9814 20.8906 94.8888 30.5944C91.1345 33.4959 87.5896 36.7037 84.2865 40.1048C74.5865 35.3496 63.6781 32.6577 52.1252 32.6577C40.5722 32.6577 28.826 35.5592 18.8199 40.7174C15.3717 37.0583 11.6657 33.7055 7.66974 30.6106L7.65362 30.5944ZM90.1838 69.0713C86.8807 69.0713 83.5775 69.2164 80.3388 69.5226C77.1002 69.8289 73.8937 70.2158 70.7356 70.7799C69.1887 71.0378 67.6419 71.3764 66.1273 71.6826C65.3216 71.8277 64.5804 72.0372 63.7748 72.2307C59.521 73.2784 55.3155 74.5841 51.2712 76.0832C47.2269 74.5841 43.0697 73.2784 38.7676 72.2307C38.0103 72.0372 37.2208 71.8761 36.4151 71.6826C34.8683 71.328 33.3698 71.0378 31.8068 70.7799C28.6487 70.2319 25.4584 69.7805 22.2036 69.5226C18.9488 69.2164 15.694 69.0713 12.3586 69.0713C8.20146 69.0713 4.10879 69.3292 0.112793 69.7644C4.76942 66.5083 9.90943 64.0098 15.42 62.3173C20.5762 60.6731 26.0706 59.8188 31.7746 59.8188H32.9186C36.963 59.9155 40.8784 60.4152 44.6649 61.3179C46.9207 61.8659 49.1121 62.5107 51.2712 63.3167C53.4142 62.5107 55.6217 61.8176 57.8775 61.3179C61.6318 60.4152 65.5794 59.9155 69.6238 59.8188H70.7678C76.4717 59.8188 81.9662 60.6731 87.1707 62.2689C92.6652 63.9776 97.8213 66.5244 102.478 69.7161C98.3692 69.2647 94.3248 69.0713 90.1677 69.0713H90.1838ZM72.6369 54.854C72.0407 54.854 71.3801 54.8057 70.7839 54.8057C63.9359 54.8057 57.378 56.063 51.2712 58.3036C45.2128 56.0469 38.6226 54.8057 31.7585 54.8057C31.1623 54.8057 30.5017 54.8057 29.9055 54.854C23.3959 55.0475 17.1441 56.4015 11.4079 58.6582C9.45827 57.014 7.46027 55.4021 5.41393 53.903C10.3606 49.9054 15.8712 46.5042 21.7685 43.8929C30.824 39.8953 40.8301 37.6386 51.3195 37.6386C61.809 37.6386 71.8312 39.8953 80.8706 43.8929C86.7679 46.4881 92.2785 49.8893 97.2251 53.903C95.1788 55.4021 93.1164 56.9979 91.2312 58.6582C85.3822 56.4015 79.1304 55.0636 72.6208 54.854H72.6369Z" fill="white"/>
<path d="M34.0626 89.833C31.9196 89.43 29.8088 88.9303 27.7625 88.3339C26.2157 87.9309 24.6688 87.4312 23.1059 86.9315C22.3486 86.6736 21.6074 86.4318 20.8501 86.1256C13.4059 83.4175 6.39682 79.7262 0 75.2128C4.10879 74.7614 8.2498 74.5197 12.4553 74.5197C17.4019 74.5197 22.2519 74.8743 27.0052 75.4707C27.0052 75.4707 30.1633 75.9704 31.4524 76.1638C34.6588 76.7119 37.8492 77.4211 40.959 78.2593C41.958 78.5172 43.0053 78.8074 44.0043 79.1137C46.5018 79.8713 48.9026 80.6611 51.3034 81.5638C53.7042 80.6611 56.1534 79.8068 58.6026 79.1137C59.6016 78.8074 60.6489 78.5172 61.6479 78.2593C64.7416 77.405 67.948 76.7119 71.1545 76.1638C72.4596 75.9704 74.2482 75.6158 75.6017 75.4707C80.355 74.8743 85.2533 74.5197 90.1516 74.5197C94.3571 74.568 98.4981 74.7776 102.559 75.2773C96.21 79.7746 89.2009 83.482 81.7568 86.1901C80.9995 86.448 80.2583 86.7381 79.501 86.996C77.9541 87.4957 76.4556 87.9954 74.8443 88.3984C72.7497 88.9465 70.6389 89.4462 68.5442 89.8975C67.9964 89.9942 67.4002 90.0909 66.8362 90.2038C64.0809 90.7035 61.3418 91.0581 58.5381 91.2515C56.1373 91.445 53.7365 91.5578 51.2873 91.5578C48.8382 91.5578 46.4373 91.4611 44.0365 91.2515C41.2329 90.9936 38.4776 90.6551 35.7384 90.2038L34.0304 89.8491L34.0626 89.833Z" fill="white"/>
</g>
<defs>
<clipPath id="clip0_259_194">
<rect width="515" height="134" fill="white"/>
</clipPath>
</defs>
</svg>
