<svg width="40" height="40" viewBox="0 0 40 40" fill="none" xmlns="http://www.w3.org/2000/svg">
<path d="M16.667 36.6673V34.1673H38.3337V36.6673H16.667ZM18.3337 31.6673C18.3337 29.4173 19.042 27.4521 20.4587 25.7715C21.8753 24.0909 23.667 23.0596 25.8337 22.6777V21.6548C25.8337 21.1909 25.9934 20.7992 26.3128 20.4798C26.6322 20.1604 27.0281 20.0006 27.5003 20.0006C27.9726 20.0006 28.3684 20.1604 28.6878 20.4798C29.0072 20.7992 29.167 21.1951 29.167 21.6673V22.6823C31.3059 23.0612 33.0906 24.0909 34.5212 25.7715C35.9517 27.4521 36.667 29.4173 36.667 31.6673H18.3337ZM21.292 29.1673H33.667C33.167 27.9451 32.3614 26.9451 31.2503 26.1673C30.1392 25.3896 28.8922 25.0006 27.5091 25.0006C26.0866 25.0006 24.8197 25.3896 23.7087 26.1673C22.5976 26.9451 21.792 27.9451 21.292 29.1673ZM1.66699 21.584V5.16732H10.6253V7.54232L23.5837 3.83398L36.667 7.83398V9.79231C36.667 10.834 36.2503 11.7194 35.417 12.4486C34.5837 13.1777 33.6392 13.5423 32.5837 13.5423H27.8337C27.8337 14.0701 27.5072 14.8271 26.8545 15.8131C26.2017 16.7992 25.6392 17.3896 25.167 17.584L14.542 21.584H1.66699ZM4.16699 19.084H8.08366V7.66732H4.16699V19.084ZM10.6253 19.084H14.1253L24.3337 15.209C24.5837 15.1256 24.7851 14.8896 24.9378 14.5006C25.0906 14.1117 25.167 13.7923 25.167 13.5423H21.9587L17.167 15.1256L16.2503 12.709L21.6253 11.0423H32.5837C32.9726 11.0423 33.3197 10.9069 33.6253 10.6361C33.9309 10.3652 34.0837 10.0423 34.0837 9.66731L23.417 6.41732L10.6253 10.1673V19.084Z" fill="#101828"/>
</svg>
