<svg width="28" height="28" viewBox="0 0 28 28" fill="none" xmlns="http://www.w3.org/2000/svg">
<path d="M11.083 25.6663C10.6163 25.6663 10.208 25.4913 9.85801 25.1413C9.50801 24.7913 9.33301 24.383 9.33301 23.9163V11.083C9.33301 10.6163 9.50801 10.208 9.85801 9.85801C10.208 9.50801 10.6163 9.33301 11.083 9.33301H23.9163C24.383 9.33301 24.7913 9.50801 25.1413 9.85801C25.4913 10.208 25.6663 10.6163 25.6663 11.083V23.9163C25.6663 24.383 25.4913 24.7913 25.1413 25.1413C24.7913 25.4913 24.383 25.6663 23.9163 25.6663H11.083ZM11.083 23.9163H23.9163V11.083H11.083V23.9163ZM5.83301 22.5747V7.58301C5.83301 7.11634 6.00801 6.70801 6.35801 6.35801C6.70801 6.00801 7.11634 5.83301 7.58301 5.83301H22.5747V7.58301H7.58301V22.5747H5.83301ZM2.33301 19.0747V4.08301C2.33301 3.61634 2.50801 3.20801 2.85801 2.85801C3.20801 2.50801 3.61634 2.33301 4.08301 2.33301H19.0747V4.08301H4.08301V19.0747H2.33301Z" fill="#101828"/>
</svg>
