<svg width="64" height="64" viewBox="0 0 64 64" fill="none" xmlns="http://www.w3.org/2000/svg">
<path d="M10.1337 17.867C10.1337 15.867 10.8337 14.167 12.2337 12.767C13.6337 11.367 15.3337 10.667 17.3337 10.667H46.667C48.667 10.667 50.367 11.367 51.767 12.767C53.167 14.167 53.867 15.867 53.867 17.867V23.4003C56.0003 23.1781 57.7781 23.6447 59.2003 24.8003C60.6226 25.9559 61.3337 27.6226 61.3337 29.8003V46.1337C61.3337 48.1337 60.6337 49.8337 59.2337 51.2337C57.8337 52.6337 56.1337 53.3337 54.1337 53.3337H9.86699C7.86699 53.3337 6.16699 52.6337 4.76699 51.2337C3.36699 49.8337 2.66699 48.1337 2.66699 46.1337V29.8003C2.66699 27.6226 3.38922 25.9559 4.83366 24.8003C6.2781 23.6447 8.04477 23.1781 10.1337 23.4003V17.867ZM14.1337 17.867V25.3337C14.7559 25.9559 15.2447 26.567 15.6003 27.167C15.9559 27.767 16.1337 28.6447 16.1337 29.8003V38.067H47.867V29.8003C47.867 28.6447 48.0447 27.767 48.4003 27.167C48.7559 26.567 49.2447 25.9559 49.867 25.3337V17.867C49.867 16.9337 49.567 16.167 48.967 15.567C48.367 14.967 47.6003 14.667 46.667 14.667H17.3337C16.4003 14.667 15.6337 14.967 15.0337 15.567C14.4337 16.167 14.1337 16.9337 14.1337 17.867ZM51.867 42.067H12.1337V29.8003C12.1337 29.3559 12.0781 28.967 11.967 28.6337C11.8559 28.3003 11.6781 28.0114 11.4337 27.767C11.1892 27.5226 10.9003 27.3447 10.567 27.2337C10.2337 27.1226 9.85366 27.067 9.42699 27.067C8.52033 27.067 7.83366 27.3003 7.36699 27.767C6.90033 28.2337 6.66699 28.9114 6.66699 29.8003V46.1443C6.66699 47.0706 6.96699 47.8337 7.56699 48.4337C8.16699 49.0337 8.93366 49.3337 9.86699 49.3337H54.1337C55.067 49.3337 55.8337 49.0337 56.4337 48.4337C57.0337 47.8337 57.3337 47.0706 57.3337 46.1443V29.8003C57.3337 28.9114 57.1003 28.2337 56.6337 27.767C56.167 27.3003 55.4803 27.067 54.5737 27.067C54.147 27.067 53.767 27.1226 53.4337 27.2337C53.1003 27.3447 52.8186 27.5226 52.5883 27.767C52.3586 28.0114 52.1807 28.3003 52.055 28.6337C51.9297 28.967 51.867 29.3559 51.867 29.8003V42.067Z" fill="#101828"/>
</svg>
