<svg width="40" height="40" viewBox="0 0 40 40" fill="none" xmlns="http://www.w3.org/2000/svg">
<path d="M3.33301 35V15L16.6663 5L26.6663 12.5C26.1108 12.5 25.5553 12.5625 24.9997 12.6875C24.4441 12.8125 23.9303 12.9861 23.458 13.2083L16.6663 8.125L5.83301 16.25V32.5H14.1663V35H3.33301ZM16.6663 35V31.8333C16.6663 31.25 16.8122 30.7014 17.1038 30.1875C17.3955 29.6736 17.7913 29.2639 18.2913 28.9583C19.5691 28.2083 20.9094 27.6389 22.3122 27.25C23.7149 26.8611 25.1663 26.6667 26.6663 26.6667C28.1663 26.6667 29.6178 26.8611 31.0205 27.25C32.4233 27.6389 33.7636 28.2083 35.0413 28.9583C35.5413 29.2639 35.9372 29.6736 36.2288 30.1875C36.5205 30.7014 36.6663 31.25 36.6663 31.8333V35H16.6663ZM19.1663 32.5H34.1663V31.2917C32.9997 30.625 31.7882 30.1042 30.5318 29.7292C29.2757 29.3542 27.9872 29.1667 26.6663 29.1667C25.3455 29.1667 24.057 29.3611 22.8009 29.75C21.5445 30.1389 20.333 30.6667 19.1663 31.3333V32.5ZM26.6663 25C25.2774 25 24.0969 24.5139 23.1247 23.5417C22.1524 22.5694 21.6663 21.3889 21.6663 20C21.6663 18.6111 22.1524 17.4306 23.1247 16.4583C24.0969 15.4861 25.2774 15 26.6663 15C28.0553 15 29.2358 15.4861 30.208 16.4583C31.1803 17.4306 31.6663 18.6111 31.6663 20C31.6663 21.3889 31.1803 22.5694 30.208 23.5417C29.2358 24.5139 28.0553 25 26.6663 25ZM26.6663 22.5C27.3747 22.5 27.9684 22.2604 28.4476 21.7812C28.9268 21.3021 29.1663 20.7083 29.1663 20C29.1663 19.2917 28.9268 18.6979 28.4476 18.2188C27.9684 17.7396 27.3747 17.5 26.6663 17.5C25.958 17.5 25.3643 17.7396 24.8851 18.2188C24.4059 18.6979 24.1663 19.2917 24.1663 20C24.1663 20.7083 24.4059 21.3021 24.8851 21.7812C25.3643 22.2604 25.958 22.5 26.6663 22.5Z" fill="#101828"/>
</svg>
