<svg width="64" height="64" viewBox="0 0 64 64" fill="none" xmlns="http://www.w3.org/2000/svg">
<path d="M13.067 41.9339C12.1781 40.3339 11.5559 38.7228 11.2003 37.1005C10.8448 35.4783 10.667 33.8228 10.667 32.1339C10.667 26.3116 12.767 21.3005 16.967 17.1005C21.167 12.9005 26.1781 10.8005 32.0003 10.8005H34.867L29.5337 5.46719L32.1337 2.86719L42.067 12.8005L32.1337 22.7339L29.467 20.0672L34.7337 14.8005H32.0003C27.2447 14.8005 23.167 16.5005 19.767 19.9005C16.367 23.3005 14.667 27.3783 14.667 32.1339C14.667 33.4228 14.7893 34.6449 15.0337 35.8005C15.2781 36.9561 15.5781 38.0449 15.9337 39.0672L13.067 41.9339ZM31.7337 61.3339L21.8003 51.4005L31.7337 41.4672L34.3337 44.0672L29.0003 49.4005H32.0003C36.7559 49.4005 40.8337 47.7005 44.2337 44.3005C47.6337 40.9005 49.3337 36.8228 49.3337 32.0672C49.3337 30.7783 49.2226 29.5561 49.0003 28.4005C48.7781 27.2449 48.4447 26.1561 48.0003 25.1339L50.867 22.2672C51.7559 23.8672 52.3893 25.4783 52.767 27.1005C53.1447 28.7228 53.3337 30.3783 53.3337 32.0672C53.3337 37.8895 51.2337 42.9005 47.0337 47.1005C42.8337 51.3005 37.8226 53.4005 32.0003 53.4005H29.0003L34.3337 58.7339L31.7337 61.3339Z" fill="#101828"/>
</svg>
