<svg width="213" height="159" viewBox="0 0 213 159" fill="none" xmlns="http://www.w3.org/2000/svg">
<path d="M15.8316 32.1109C40.4621 12.0166 71.7918 0 106.054 0C140.317 0 171.647 12.0166 196.277 32.1109C188.512 38.1192 181.179 44.7617 174.347 51.8047C154.282 41.9578 131.718 36.3835 107.821 36.3835C83.9237 36.3835 59.6265 42.3917 38.9289 53.0731C31.7964 45.496 24.1306 38.5531 15.8649 32.1443L15.8316 32.1109ZM186.545 111.787C179.713 111.787 172.88 112.088 166.181 112.722C159.482 113.356 152.849 114.157 146.317 115.326C143.117 115.86 139.917 116.561 136.784 117.195C135.118 117.495 133.585 117.929 131.918 118.33C123.119 120.499 114.42 123.203 106.054 126.307C97.6888 123.203 89.0898 120.499 80.1908 118.33C78.6243 117.929 76.9912 117.595 75.3247 117.195C72.1251 116.46 69.0254 115.86 65.7925 115.326C59.2599 114.191 52.6607 113.256 45.9281 112.722C39.1956 112.088 32.463 111.787 25.5638 111.787C16.9648 111.787 8.49911 112.321 0.233398 113.223C9.86562 106.48 20.4977 101.306 31.8964 97.8014C42.5618 94.3967 53.9272 92.6276 65.7258 92.6276H68.0922C76.4579 92.8279 84.557 93.8627 92.3894 95.7319C97.0555 96.8668 101.588 98.202 106.054 99.8709C110.487 98.202 115.053 96.7667 119.72 95.7319C127.485 93.8627 135.651 92.8279 144.017 92.6276H146.383C158.182 92.6276 169.547 94.3967 180.313 97.7013C191.678 101.239 202.343 106.513 211.976 113.123C203.477 112.188 195.111 111.787 186.512 111.787H186.545ZM150.249 82.3468C149.016 82.3468 147.65 82.2467 146.416 82.2467C132.251 82.2467 118.686 84.8502 106.054 89.49C93.5226 84.8169 79.8909 82.2467 65.6925 82.2467C64.4593 82.2467 63.0928 82.2467 61.8596 82.3468C48.3945 82.7473 35.4627 85.5512 23.5974 90.2243C19.5645 86.8196 15.4316 83.4817 11.1988 80.3774C21.4309 72.0993 32.8296 65.0563 45.0282 59.6489C63.7594 51.3708 84.457 46.6977 106.154 46.6977C127.852 46.6977 148.583 51.3708 167.281 59.6489C179.479 65.0229 190.878 72.066 201.11 80.3774C196.877 83.4817 192.611 86.7862 188.712 90.2243C176.613 85.5512 163.681 82.7807 150.216 82.3468H150.249Z" fill="#EF8716"/>
<path d="M70.4585 154.78C66.0257 153.945 61.6595 152.911 57.4267 151.676C54.2271 150.841 51.0274 149.806 47.7945 148.772C46.228 148.238 44.6948 147.737 43.1283 147.103C27.7301 141.495 13.2318 133.851 0 124.505C8.49902 123.57 17.0647 123.07 25.7637 123.07C35.9958 123.07 46.028 123.804 55.8602 125.039C55.8602 125.039 62.3928 126.074 65.0591 126.474C71.6917 127.609 78.2909 129.078 84.7235 130.814C86.79 131.348 88.9564 131.948 91.0228 132.583C96.1889 134.151 101.155 135.787 106.121 137.656C111.087 135.787 116.153 134.018 121.219 132.583C123.286 131.948 125.452 131.348 127.519 130.814C133.918 129.044 140.55 127.609 147.183 126.474C149.883 126.074 153.582 125.339 156.382 125.039C166.214 123.804 176.346 123.07 186.478 123.07C195.177 123.17 203.743 123.604 212.142 124.638C199.01 133.951 184.512 141.628 169.114 147.236C167.547 147.77 166.014 148.371 164.448 148.905C161.248 149.94 158.148 150.975 154.815 151.809C150.483 152.944 146.116 153.979 141.784 154.913C140.65 155.114 139.417 155.314 138.251 155.548C132.551 156.582 126.885 157.317 121.086 157.717C116.12 158.118 111.154 158.351 106.088 158.351C101.022 158.351 96.0556 158.151 91.0895 157.717C85.2901 157.183 79.5908 156.482 73.9248 155.548L70.3919 154.813L70.4585 154.78Z" fill="#EF8716"/>
</svg>
