<svg width="30" height="31" viewBox="0 0 30 31" fill="none" xmlns="http://www.w3.org/2000/svg">
<path d="M28.1667 30.9585L17.2083 20.0002C16.375 20.7224 15.4033 21.2849 14.2933 21.6877C13.1833 22.0904 12.0022 22.2918 10.75 22.2918C7.74558 22.2918 5.20275 21.2502 3.12167 19.1668C1.04056 17.0835 0 14.5696 0 11.6252C0 8.68075 1.04167 6.16683 3.125 4.0835C5.20833 2.00016 7.72917 0.958496 10.6875 0.958496C13.6458 0.958496 16.1597 2.00016 18.2292 4.0835C20.2986 6.16683 21.3333 8.68283 21.3333 11.6314C21.3333 12.8217 21.1389 13.9724 20.75 15.0835C20.3611 16.1946 19.7777 17.2362 19 18.2085L30 29.1252L28.1667 30.9585ZM10.7083 19.7918C12.9653 19.7918 14.8837 18.9932 16.4637 17.396C18.0435 15.7987 18.8333 13.8752 18.8333 11.6252C18.8333 9.37516 18.0435 7.45158 16.4637 5.85433C14.8837 4.2571 12.9653 3.4585 10.7083 3.4585C8.42833 3.4585 6.49025 4.2571 4.89417 5.85433C3.29806 7.45158 2.5 9.37516 2.5 11.6252C2.5 13.8752 3.29806 15.7987 4.89417 17.396C6.49025 18.9932 8.42833 19.7918 10.7083 19.7918Z" fill="#101828"/>
</svg>
