<svg width="34" height="28" viewBox="0 0 34 28" fill="none" xmlns="http://www.w3.org/2000/svg">
<path d="M33.6673 3.16669V24.8334C33.6673 25.5 33.4173 26.0834 32.9173 26.5834C32.4173 27.0834 31.834 27.3334 31.1673 27.3334H2.83398C2.16732 27.3334 1.58398 27.0834 1.08398 26.5834C0.583985 26.0834 0.333984 25.5 0.333984 24.8334V3.16669C0.333984 2.50002 0.583985 1.91669 1.08398 1.41669C1.58398 0.916687 2.16732 0.666687 2.83398 0.666687H31.1673C31.834 0.666687 32.4173 0.916687 32.9173 1.41669C33.4173 1.91669 33.6673 2.50002 33.6673 3.16669ZM2.83398 7.70835H31.1673V3.16669H2.83398V7.70835ZM2.83398 13.0834V24.8334H31.1673V13.0834H2.83398Z" fill="#101828"/>
</svg>
