<svg width="31" height="31" viewBox="0 0 31 31" fill="none" xmlns="http://www.w3.org/2000/svg">
<path d="M24.3743 29.6667L13.6243 18.8333C12.9855 19.0556 12.3466 19.2361 11.7076 19.375C11.0688 19.5139 10.416 19.5833 9.74931 19.5833C7.05264 19.5833 4.76047 18.6435 2.87268 16.7638C0.984907 14.8843 0.0410156 12.6019 0.0410156 9.91667C0.0410156 9.05558 0.154349 8.21683 0.381015 7.40042C0.607682 6.584 0.924907 5.81167 1.33268 5.08333L7.37431 11.125L11.2076 7.54167L4.99931 1.33333C5.71906 0.912225 6.48239 0.584725 7.28931 0.350833C8.09597 0.116942 8.91597 0 9.74931 0C12.5041 0 14.8455 0.964167 16.7735 2.8925C18.7019 4.82058 19.666 7.16192 19.666 9.91667C19.666 10.5833 19.5966 11.2361 19.4576 11.875C19.3188 12.5139 19.1382 13.1527 18.916 13.7917L29.7077 24.5417C30.0132 24.8461 30.1661 25.2139 30.1661 25.645C30.1661 26.0761 30.0132 26.4444 29.7077 26.75L26.541 29.6667C26.2438 29.9723 25.8847 30.125 25.464 30.125C25.0431 30.125 24.6799 29.9723 24.3743 29.6667ZM25.541 27.2917L27.2077 25.625L15.8326 14.25C16.2771 13.6667 16.6105 12.9792 16.8326 12.1875C17.0549 11.3958 17.166 10.6389 17.166 9.91667C17.166 7.83333 16.3951 6.06942 14.8535 4.625C13.3118 3.18056 11.5549 2.44444 9.58264 2.41667L13.8326 6.75C14.0826 7 14.2007 7.29858 14.1868 7.64583C14.173 7.99308 14.041 8.29167 13.791 8.54167L8.24931 13.75C7.99181 13.9722 7.69131 14.0833 7.34764 14.0833C7.00431 14.0833 6.72156 13.9722 6.49931 13.75L2.41602 9.70833C2.49935 11.8472 3.25866 13.6111 4.69389 15C6.12922 16.3889 7.81431 17.0833 9.74931 17.0833C10.4438 17.0833 11.1799 16.9722 11.9576 16.75C12.7355 16.5278 13.416 16.1944 13.9993 15.75L25.541 27.2917Z" fill="#101828"/>
</svg>
