<svg width="36" height="36" viewBox="0 0 36 36" fill="none" xmlns="http://www.w3.org/2000/svg">
<path d="M31.4993 22.7916V9.37498L22.7493 3.24998L13.9993 9.37498V14.75H11.4993V8.12498L22.7493 0.083313L33.9993 8.12498V22.7916H31.4993ZM23.5827 11.75H25.2493V10.0833H23.5827V11.75ZM20.2493 11.75H21.916V10.0833H20.2493V11.75ZM23.5827 15.0833H25.2493V13.4166H23.5827V15.0833ZM20.2493 15.0833H21.916V13.4166H20.2493V15.0833ZM9.62435 29.6666L22.416 33.4166L32.7493 30.1666C32.7493 29.6111 32.5341 29.1458 32.1035 28.7708C31.6729 28.3958 31.166 28.2083 30.5827 28.2083H21.8743C21.4299 28.2083 20.9924 28.1736 20.5618 28.1041C20.1313 28.0347 19.7077 27.9306 19.291 27.7916L15.291 26.5833L16.0827 24.0416L19.9993 25.375C20.3049 25.4861 20.6174 25.5694 20.9368 25.625C21.2563 25.6806 21.5688 25.7083 21.8743 25.7083H24.2077C24.2077 25.125 24.0133 24.6181 23.6243 24.1875C23.2354 23.7569 22.7633 23.4306 22.2077 23.2083L13.1243 19.75H9.62435V29.6666ZM0.666016 34.6666V17.25H13.0827C13.2308 17.25 13.3789 17.2639 13.5273 17.2916C13.6753 17.3194 13.8188 17.3611 13.9577 17.4166L23.041 20.8333C24.0966 21.2222 24.9924 21.8472 25.7285 22.7083C26.4646 23.5694 26.8327 24.5694 26.8327 25.7083H30.5827C31.9946 25.7083 33.1949 26.2222 34.1835 27.25C35.1718 28.2777 35.666 29.5 35.666 30.9166V32L22.6243 36L9.62435 32.2916V34.6666H0.666016ZM3.16602 32.1666H7.08268V19.75H3.16602V32.1666Z" fill="#101828"/>
</svg>
