<svg width="34" height="34" viewBox="0 0 34 34" fill="none" xmlns="http://www.w3.org/2000/svg">
<path d="M14.1667 31.1664V29.0414H32.5834V31.1664H14.1667ZM15.5834 26.9164C15.5834 25.0039 16.1855 23.3334 17.3897 21.9049C18.5938 20.4764 20.1167 19.5999 21.9584 19.2752V18.4058C21.9584 18.0114 22.0942 17.6785 22.3657 17.407C22.6372 17.1355 22.9737 16.9997 23.3751 16.9997C23.7765 16.9997 24.113 17.1355 24.3845 17.407C24.656 17.6785 24.7917 18.015 24.7917 18.4164V19.2791C26.6098 19.6012 28.1268 20.4764 29.3428 21.9049C30.5588 23.3334 31.1667 25.0039 31.1667 26.9164H15.5834ZM18.098 24.7914H28.6167C28.1917 23.7525 27.507 22.9025 26.5626 22.2414C25.6182 21.5803 24.5581 21.2497 23.3825 21.2497C22.1734 21.2497 21.0966 21.5803 20.1522 22.2414C19.2077 22.9025 18.523 23.7525 18.098 24.7914ZM1.41675 18.3456V4.39139H9.03133V6.41014L20.0459 3.25806L31.1667 6.65806V8.32263C31.1667 9.20805 30.8126 9.96065 30.1042 10.5804C29.3959 11.2002 28.5932 11.5101 27.6959 11.5101H23.6584C23.6584 11.9587 23.381 12.6022 22.8261 13.4403C22.2713 14.2785 21.7932 14.7803 21.3917 14.9456L12.3605 18.3456H1.41675ZM3.54175 16.2206H6.87091V6.51639H3.54175V16.2206ZM9.03133 16.2206H12.0063L20.6834 12.9268C20.8959 12.856 21.0671 12.6553 21.197 12.3247C21.3268 11.9941 21.3917 11.7226 21.3917 11.5101H18.6647L14.5917 12.856L13.8126 10.8018L18.3813 9.38513H27.6959C28.0265 9.38513 28.3216 9.27003 28.5813 9.03982C28.8411 8.80961 28.9709 8.53513 28.9709 8.21638L19.9042 5.45389L9.03133 8.64138V16.2206Z" fill="#B3B3B3"/>
</svg>
