<svg width="34" height="34" viewBox="0 0 34 34" fill="none" xmlns="http://www.w3.org/2000/svg">
<path d="M17.0095 31.1666C15.0559 31.1666 13.2201 30.7947 11.5022 30.051C9.78399 29.3072 8.28154 28.292 6.99471 27.0051C5.7079 25.7183 4.69263 24.215 3.94888 22.4952C3.20513 20.7753 2.83325 18.9377 2.83325 16.9822C2.83325 15.0267 3.20513 13.1891 3.94888 11.4693C4.69263 9.74942 5.7079 8.252 6.99471 6.977C8.28154 5.702 9.78484 4.69263 11.5047 3.94888C13.2245 3.20513 15.0621 2.83325 17.0176 2.83325C18.9731 2.83325 20.8108 3.20513 22.5306 3.94888C24.2504 4.69263 25.7478 5.702 27.0228 6.977C28.2978 8.252 29.3072 9.75133 30.051 11.4749C30.7947 13.1985 31.1666 15.037 31.1666 16.9904C31.1666 18.9439 30.7947 20.7797 30.051 22.4976C29.3072 24.2159 28.2978 25.7162 27.0228 26.9988C25.7478 28.281 24.2485 29.2964 22.5249 30.0446C20.8013 30.7926 18.9629 31.1666 17.0095 31.1666ZM16.9999 29.0416C20.3617 29.0416 23.209 27.867 25.5421 25.5176C27.8751 23.1683 29.0416 20.3291 29.0416 16.9999V16.5395C28.8999 17.1534 28.5764 17.667 28.0708 18.0801C27.5656 18.4933 26.9683 18.6999 26.2791 18.6999H23.4458C22.6666 18.6999 21.9995 18.4225 21.4447 17.8676C20.8899 17.3128 20.6124 16.6458 20.6124 15.8666V14.4499H14.9458V11.6166C14.9458 10.8374 15.2232 10.1704 15.778 9.61554C16.3329 9.06071 16.9999 8.78325 17.7791 8.78325H19.1958V8.00409C19.1958 7.62633 19.3551 7.15409 19.6739 6.58742C19.9926 6.02075 20.3527 5.67839 20.7541 5.56034C20.1638 5.37144 19.5575 5.22388 18.9351 5.11763C18.313 5.01138 17.6679 4.95825 16.9999 4.95825C13.6708 4.95825 10.8315 6.12476 8.48221 8.45777C6.1329 10.7908 4.95825 13.6382 4.95825 16.9999H10.2708C11.8291 16.9999 13.1631 17.5548 14.2728 18.6645C15.3826 19.7742 15.9374 21.1083 15.9374 22.6666V24.0833H11.6874V27.802C12.4902 28.2034 13.3366 28.5103 14.2268 28.7228C15.117 28.9353 16.0413 29.0416 16.9999 29.0416Z" fill="#B3B3B3"/>
</svg>
