<svg width="40" height="40" viewBox="0 0 40 40" fill="none" xmlns="http://www.w3.org/2000/svg">
<path d="M9.58325 35C8.861 35 8.26381 34.7639 7.79158 34.2917C7.31936 33.8194 7.08325 33.2222 7.08325 32.5V17.2083C5.99992 16.5973 5.10409 15.8125 4.39575 14.8542C3.68742 13.8958 3.33325 12.6667 3.33325 11.1667C3.33325 9.41667 3.92353 7.95139 5.10409 6.77083C6.28464 5.59028 7.74992 5 9.49992 5H30.4999C32.2499 5 33.7152 5.59028 34.8958 6.77083C36.0763 7.95139 36.6666 9.41667 36.6666 11.1667C36.6666 12.6667 36.3124 13.8958 35.6041 14.8542C34.8958 15.8125 34.0138 16.5973 32.9583 17.2083V32.5C32.9583 33.2222 32.7222 33.8194 32.2499 34.2917C31.7777 34.7639 31.1805 35 30.4583 35H9.58325ZM9.58325 32.5H30.4583V16.0417L31.9166 15.125C32.5555 14.7361 33.0902 14.2222 33.5208 13.5833C33.9513 12.9444 34.1666 12.1389 34.1666 11.1667C34.1666 10.1389 33.8124 9.27083 33.1041 8.5625C32.3958 7.85417 31.5277 7.5 30.4999 7.5H9.49992C8.47217 7.5 7.60409 7.85417 6.89575 8.5625C6.18742 9.27083 5.83325 10.1389 5.83325 11.1667C5.83325 12.1667 6.04159 12.9792 6.45825 13.6042C6.87492 14.2292 7.43048 14.75 8.12492 15.1667L9.58325 16.0417V32.5ZM19.1249 29.625C19.4027 29.9028 19.7013 30.0417 20.0208 30.0417C20.3402 30.0417 20.6388 29.9028 20.9166 29.625L27.9999 22.5417C28.2777 22.2639 28.4166 21.9653 28.4166 21.6458C28.4166 21.3264 28.2777 21.0278 27.9999 20.75L20.9166 13.6667C20.6943 13.4444 20.3958 13.3333 20.0208 13.3333C19.6458 13.3333 19.3472 13.4444 19.1249 13.6667L12.0416 20.75C11.7638 21.0278 11.6249 21.3264 11.6249 21.6458C11.6249 21.9653 11.7638 22.2639 12.0416 22.5417L19.1249 29.625ZM19.9999 27.0833L14.6666 21.75L19.9999 16.4167L25.3333 21.75L19.9999 27.0833Z" fill="#101828"/>
</svg>
