<svg width="40" height="40" viewBox="0 0 40 40" fill="none" xmlns="http://www.w3.org/2000/svg">
<path d="M1.66663 31.6667V7.29175H4.16663V23.7084H18.875V10.8334H32.2916C33.953 10.8334 35.3754 11.4249 36.5587 12.608C37.7418 13.7913 38.3333 15.2137 38.3333 16.8751V31.6667H35.8333V26.2084H4.16663V31.6667H1.66663ZM11.25 21.2917C9.99996 21.2917 8.95138 20.8682 8.10413 20.0209C7.2569 19.1737 6.83329 18.1251 6.83329 16.8751C6.83329 15.6251 7.2569 14.5765 8.10413 13.7292C8.95138 12.882 9.99996 12.4584 11.25 12.4584C12.5 12.4584 13.5485 12.882 14.3958 13.7292C15.243 14.5765 15.6666 15.6251 15.6666 16.8751C15.6666 18.1251 15.243 19.1737 14.3958 20.0209C13.5485 20.8682 12.5 21.2917 11.25 21.2917ZM21.375 23.7084H35.8333V16.8751C35.8333 15.9012 35.4865 15.0674 34.7929 14.3738C34.0993 13.6802 33.2655 13.3334 32.2916 13.3334H21.375V23.7084ZM11.25 18.7917C11.7777 18.7917 12.2291 18.6042 12.6041 18.2292C12.9791 17.8542 13.1666 17.4028 13.1666 16.8751C13.1666 16.3473 12.9791 15.8959 12.6041 15.5209C12.2291 15.1459 11.7777 14.9584 11.25 14.9584C10.7222 14.9584 10.2708 15.1459 9.89579 15.5209C9.52079 15.8959 9.33329 16.3473 9.33329 16.8751C9.33329 17.4028 9.52079 17.8542 9.89579 18.2292C10.2708 18.6042 10.7222 18.7917 11.25 18.7917Z" fill="#101828"/>
</svg>
