<svg width="34" height="34" viewBox="0 0 34 34" fill="none" xmlns="http://www.w3.org/2000/svg">
<path d="M14.1935 23.3395C16.7492 23.3395 18.9183 22.4451 20.7009 20.6563C22.4836 18.8673 23.3749 16.6951 23.3749 14.1397C23.3749 11.584 22.4805 9.41487 20.6917 7.63221C18.9027 5.84957 16.7305 4.95825 14.1751 4.95825C11.6194 4.95825 9.45027 5.85264 7.66761 7.64142C5.88498 9.43046 4.99365 11.6026 4.99365 14.1581C4.99365 16.7138 5.88804 18.8829 7.67682 20.6655C9.46586 22.4482 11.638 23.3395 14.1935 23.3395ZM12.6082 18.7708L19.9749 11.4041L18.4874 9.88117L12.6082 15.7603L9.52699 12.6437L8.00407 14.1312L12.6082 18.7708ZM14.202 25.4645C11.0617 25.4645 8.38777 24.3607 6.18011 22.153C3.97248 19.9454 2.86865 17.2714 2.86865 14.1312C2.86865 10.9909 3.97248 8.32284 6.18011 6.127C8.38777 3.93117 11.0617 2.83325 14.202 2.83325C17.3422 2.83325 20.0103 3.93707 22.2062 6.14471C24.402 8.35237 25.4999 11.0263 25.4999 14.1666C25.4999 15.5597 25.2717 16.8572 24.8153 18.0592C24.3589 19.2615 23.7135 20.3605 22.8791 21.3562L31.1666 29.6437L29.6791 31.1666L21.3916 22.8791C20.3891 23.7024 19.2825 24.3391 18.072 24.7891C16.8614 25.2394 15.5714 25.4645 14.202 25.4645Z" fill="#B3B3B3"/>
</svg>
