<svg width="40" height="40" viewBox="0 0 40 40" fill="none" xmlns="http://www.w3.org/2000/svg">
<path d="M11.6666 30C8.88888 30 6.52773 29.0278 4.58329 27.0833C2.63885 25.1389 1.66663 22.7778 1.66663 20C1.66663 17.2222 2.63885 14.8611 4.58329 12.9167C6.52773 10.9722 8.88888 10 11.6666 10C13.8333 10 15.6597 10.5208 17.1458 11.5625C18.6319 12.6042 19.736 13.9861 20.4583 15.7083H38.3333V24.2917H33.9166V30H26.1666V24.2917H20.4583C19.736 26.0139 18.6319 27.3958 17.1458 28.4375C15.6597 29.4792 13.8333 30 11.6666 30ZM11.6666 27.5C13.6389 27.5 15.2569 26.8472 16.5208 25.5417C17.7847 24.2361 18.5277 22.9861 18.75 21.7917H28.8333V27.5H31.4166V21.7917H35.8333V18.2083H18.75C18.5277 17.0139 17.7847 15.7639 16.5208 14.4583C15.2569 13.1528 13.6389 12.5 11.6666 12.5C9.58329 12.5 7.81246 13.2292 6.35413 14.6875C4.89579 16.1458 4.16663 17.9167 4.16663 20C4.16663 22.0833 4.89579 23.8542 6.35413 25.3125C7.81246 26.7708 9.58329 27.5 11.6666 27.5ZM11.6666 22.8333C12.4722 22.8333 13.1458 22.5625 13.6875 22.0208C14.2291 21.4792 14.5 20.8056 14.5 20C14.5 19.1944 14.2291 18.5208 13.6875 17.9792C13.1458 17.4375 12.4722 17.1667 11.6666 17.1667C10.861 17.1667 10.1875 17.4375 9.64579 17.9792C9.10413 18.5208 8.83329 19.1944 8.83329 20C8.83329 20.8056 9.10413 21.4792 9.64579 22.0208C10.1875 22.5625 10.861 22.8333 11.6666 22.8333Z" fill="#101828"/>
</svg>
