<svg width="40" height="40" viewBox="0 0 40 40" fill="none" xmlns="http://www.w3.org/2000/svg">
<path d="M20.0001 33.1664C18.3742 33.1664 16.8428 32.8956 15.4059 32.3539C13.9687 31.8123 12.6667 31.0553 11.5001 30.0831L8.91675 32.6248C8.66675 32.8748 8.382 32.9998 8.06258 32.9998C7.74314 32.9998 7.45842 32.8748 7.20842 32.6248C6.95842 32.3748 6.83342 32.09 6.83342 31.7706C6.83342 31.4512 6.95842 31.1664 7.20842 30.9164L9.75008 28.3331C8.76841 27.162 8.00911 25.8623 7.47217 24.4339C6.93522 23.0056 6.66675 21.472 6.66675 19.8331C6.66675 16.1108 7.95842 12.9581 10.5417 10.3748C13.1251 7.79142 16.2778 6.49976 20.0001 6.49976H33.3334V19.8331C33.3334 23.5553 32.0417 26.7081 29.4584 29.2914C26.8751 31.8748 23.7223 33.1664 20.0001 33.1664ZM20.0001 30.6664C23.0092 30.6664 25.5672 29.6133 27.6738 27.5068C29.7802 25.4002 30.8334 22.8423 30.8334 19.8331V8.99976H20.0001C16.9909 8.99976 14.433 10.0529 12.3263 12.1593C10.2199 14.266 9.16675 16.8239 9.16675 19.8331C9.16675 21.1037 9.37508 22.3171 9.79175 23.4735C10.2084 24.6299 10.7778 25.6664 11.5001 26.5831L20.5417 17.5831C20.7917 17.3331 21.0765 17.2081 21.3959 17.2081C21.7153 17.2081 22.0001 17.3331 22.2501 17.5831C22.5001 17.8275 22.6251 18.1178 22.6251 18.4539C22.6251 18.79 22.5001 19.0831 22.2501 19.3331L13.2501 28.3331C14.1667 29.0553 15.2032 29.6248 16.3597 30.0414C17.5161 30.4581 18.7295 30.6664 20.0001 30.6664Z" fill="#101828"/>
</svg>
