<svg width="40" height="40" viewBox="0 0 40 40" fill="none" xmlns="http://www.w3.org/2000/svg">
<path fill-rule="evenodd" clip-rule="evenodd" d="M30.4167 5C31.6897 5 32.7719 5.45139 33.6633 6.35417C34.5544 7.25694 35 8.33333 35 9.58333V16.6667C35 17.9397 34.5544 19.0219 33.6633 19.9133C32.7719 20.8044 31.6897 21.25 30.4167 21.25H7.58333C6.31027 21.25 5.22806 20.7986 4.33667 19.8958C3.44556 18.9931 3 17.9167 3 16.6667V9.58333C3 8.31025 3.44556 7.22808 4.33667 6.33667C5.22806 5.44558 6.31027 5 7.58333 5H30.4167ZM14.1667 18.75V16.25H24.1667V18.75H14.1667ZM11.6667 16.25V18.75H7.58333C6.99308 18.75 6.49817 18.5417 6.09875 18.125C5.69958 17.7083 5.5 17.2222 5.5 16.6667V9.58333C5.5 8.99308 5.69958 8.49817 6.09875 8.09875C6.49817 7.69958 6.99308 7.5 7.58333 7.5H30.4167C31.0069 7.5 31.5018 7.70833 31.9012 8.125C32.3004 8.54167 32.5 9.02775 32.5 9.58333V16.6667C32.5 17.2569 32.3004 17.7518 31.9012 18.1513C31.5018 18.5504 31.0069 18.75 30.4167 18.75H26.6667V16.25C26.6667 15.5625 26.4219 14.974 25.9325 14.4846C25.4427 13.9948 24.8542 13.75 24.1667 13.75H14.1667C13.4792 13.75 12.8907 13.9948 12.4013 14.4846C11.9115 14.974 11.6667 15.5625 11.6667 16.25Z" fill="#101828"/>
<path fill-rule="evenodd" clip-rule="evenodd" d="M17.9167 27.9233C17.8333 28.3356 17.7917 28.7468 17.7917 29.1571C17.7917 29.7468 17.8542 30.3264 17.9792 30.8958C18.1042 31.4653 18.3611 32.0277 18.75 32.5833C19.0861 33.0575 19.3229 33.5093 19.4604 33.9388C19.5979 34.3685 19.6667 34.7778 19.6667 35.1667C19.6667 35.4053 19.6319 35.6664 19.5625 35.95C19.4931 36.2333 19.4167 36.5277 19.3333 36.8333C19.2223 37.1667 19.2413 37.494 19.3904 37.8154C19.5393 38.1368 19.7842 38.3511 20.125 38.4583C20.4583 38.5972 20.7857 38.586 21.1071 38.4246C21.4285 38.2635 21.6427 38.0108 21.75 37.6667C21.8889 37.2364 21.9931 36.8061 22.0625 36.3758C22.1319 35.9452 22.1667 35.5283 22.1667 35.125C22.1667 34.5664 22.0833 33.9823 21.9167 33.3725C21.75 32.7631 21.4583 32.1389 21.0417 31.5C20.7917 31.1111 20.6042 30.7292 20.4792 30.3542C20.3542 29.9792 20.2917 29.6042 20.2917 29.2292C20.2917 28.9481 20.3194 28.659 20.375 28.3621C20.4306 28.0652 20.5 27.7639 20.5833 27.4583C20.6944 27.125 20.6736 26.8056 20.5208 26.5C20.3681 26.1944 20.1419 25.9861 19.8425 25.875C19.5031 25.7639 19.1806 25.7847 18.875 25.9375C18.5694 26.0903 18.3611 26.3333 18.25 26.6667C18.1111 27.0922 18 27.5111 17.9167 27.9233ZM24.8125 27.9375C24.7431 28.3681 24.7083 28.7897 24.7083 29.2025C24.7083 29.7956 24.7917 30.3823 24.9583 30.9629C25.125 31.5432 25.3611 32.0694 25.6667 32.5417C26.0278 33.0417 26.2708 33.5069 26.3958 33.9375C26.5208 34.3681 26.5833 34.7773 26.5833 35.1654C26.5833 35.4046 26.5556 35.666 26.5 35.9496C26.4444 36.2332 26.3611 36.5417 26.25 36.875C26.1389 37.2083 26.1667 37.5277 26.3333 37.8333C26.5 38.1389 26.745 38.3472 27.0683 38.4583C27.4117 38.5694 27.7381 38.5538 28.0475 38.4113C28.3572 38.2685 28.5636 38.0342 28.6667 37.7083C28.8056 37.2639 28.9098 36.8264 28.9792 36.3958C29.0486 35.9652 29.0833 35.5511 29.0833 35.1533C29.0833 34.6067 29 34.0208 28.8333 33.3958C28.6667 32.7708 28.375 32.1389 27.9583 31.5C27.6806 31.1111 27.4861 30.7268 27.375 30.3471C27.2639 29.9677 27.2083 29.5881 27.2083 29.2083C27.2083 28.9703 27.2361 28.7023 27.2917 28.4046C27.3473 28.1071 27.4306 27.7917 27.5417 27.4583C27.6528 27.125 27.625 26.8125 27.4583 26.5208C27.2917 26.2292 27.0586 26.0278 26.7592 25.9167C26.4198 25.8056 26.0893 25.8213 25.7679 25.9638C25.4465 26.1065 25.2323 26.3408 25.125 26.6667C24.9861 27.0833 24.8819 27.5069 24.8125 27.9375ZM10.9792 27.9375C10.9097 28.3681 10.875 28.7917 10.875 29.2083C10.875 29.8364 10.9583 30.4447 11.125 31.0333C11.2917 31.6222 11.5278 32.125 11.8333 32.5417C12.1389 32.9861 12.3681 33.4306 12.5208 33.875C12.6736 34.3194 12.75 34.745 12.75 35.1517C12.75 35.3839 12.7222 35.6389 12.6667 35.9167C12.6111 36.1944 12.5278 36.5139 12.4167 36.875C12.3056 37.2083 12.3264 37.5277 12.4792 37.8333C12.6319 38.1389 12.87 38.3472 13.1933 38.4583C13.5367 38.5694 13.8681 38.5556 14.1875 38.4167C14.5069 38.2778 14.7222 38.0417 14.8333 37.7083C14.9722 37.2917 15.0764 36.8681 15.1458 36.4375C15.2153 36.0069 15.25 35.5965 15.25 35.2062C15.25 34.6862 15.166 34.0881 14.9979 33.4117C14.8298 32.7356 14.5389 32.0983 14.125 31.5C13.8439 31.0998 13.6486 30.715 13.5392 30.3458C13.4298 29.9764 13.375 29.5917 13.375 29.1917C13.375 28.925 13.3958 28.6458 13.4375 28.3542C13.4792 28.0625 13.5556 27.7639 13.6667 27.4583C13.7778 27.125 13.7569 26.8056 13.6042 26.5C13.4514 26.1944 13.2253 25.9861 12.9258 25.875C12.5864 25.7639 12.2569 25.7847 11.9375 25.9375C11.6181 26.0903 11.4028 26.3333 11.2917 26.6667C11.1528 27.0833 11.0486 27.5069 10.9792 27.9375Z" fill="#101828"/>
</svg>
