<svg width="40" height="40" viewBox="0 0 40 40" fill="none" xmlns="http://www.w3.org/2000/svg">
<path d="M17.0416 17H14.7083C14.4193 17 14.1805 16.9056 13.9916 16.7167C13.8027 16.5278 13.7083 16.2889 13.7083 16C13.7083 15.7111 13.8027 15.4723 13.9916 15.2833C14.1805 15.0944 14.4193 15 14.7083 15H21.3749C21.6638 15 21.9027 15.0944 22.0916 15.2833C22.2805 15.4723 22.3749 15.7111 22.3749 16C22.3749 16.2889 22.2805 16.5278 22.0916 16.7167C21.9027 16.9056 21.6638 17 21.3749 17H19.0416V24C19.0416 24.2889 18.9472 24.5278 18.7583 24.7167C18.5693 24.9056 18.3305 25 18.0416 25C17.7527 25 17.5138 24.9056 17.3249 24.7167C17.136 24.5278 17.0416 24.2889 17.0416 24V17ZM5.33325 21.7917V24C5.33325 24.2889 5.23881 24.5278 5.04992 24.7167C4.86103 24.9056 4.62214 25 4.33325 25C4.04436 25 3.80548 24.9056 3.61659 24.7167C3.42769 24.5278 3.33325 24.2889 3.33325 24V16.4167C3.33325 16 3.46519 15.6597 3.72909 15.3958C3.99298 15.1319 4.33325 15 4.74992 15H10.5416C10.9583 15 11.2985 15.1319 11.5624 15.3958C11.8263 15.6597 11.9583 16 11.9583 16.4167V24C11.9583 24.2889 11.8638 24.5278 11.6749 24.7167C11.486 24.9056 11.2472 25 10.9583 25C10.6693 25 10.4305 24.9056 10.2416 24.7167C10.0527 24.5278 9.95825 24.2889 9.95825 24V21.7917H5.33325ZM5.33325 19.7917H9.95825V17H5.33325V19.7917ZM26.4166 17V24C26.4166 24.2889 26.3222 24.5278 26.1333 24.7167C25.9443 24.9056 25.7055 25 25.4166 25C25.1277 25 24.8888 24.9056 24.6999 24.7167C24.511 24.5278 24.4166 24.2889 24.4166 24V16.4167C24.4166 16 24.5485 15.6597 24.8124 15.3958C25.0763 15.1319 25.4166 15 25.8333 15H35.2499C35.6666 15 36.0068 15.1319 36.2708 15.3958C36.5347 15.6597 36.6666 16 36.6666 16.4167V24C36.6666 24.2889 36.5722 24.5278 36.3833 24.7167C36.1943 24.9056 35.9555 25 35.6666 25C35.3777 25 35.1388 24.9056 34.9499 24.7167C34.761 24.5278 34.6666 24.2889 34.6666 24V17H31.5416V22.25C31.5416 22.5389 31.4472 22.7778 31.2583 22.9667C31.0693 23.1556 30.8305 23.25 30.5416 23.25C30.2527 23.25 30.0138 23.1556 29.8249 22.9667C29.636 22.7778 29.5416 22.5389 29.5416 22.25V17H26.4166Z" fill="#101828"/>
</svg>
