<svg width="40" height="40" viewBox="0 0 40 40" fill="none" xmlns="http://www.w3.org/2000/svg">
<path d="M8.04175 35C7.70842 35 7.41675 34.875 7.16675 34.625C6.91675 34.375 6.79175 34.0833 6.79175 33.75V32H6.25008C4.97702 32 3.89481 31.5544 3.00341 30.6633C2.11231 29.7719 1.66675 28.6897 1.66675 27.4167V17.25C1.66675 15.8333 2.09731 14.7569 2.95841 14.0208C3.81952 13.2847 4.83342 12.9167 6.00008 12.9167V9.33333C6.00008 8.05556 6.40286 7.01389 7.20842 6.20833C8.01397 5.40278 9.05566 5 10.3334 5H29.7084C30.9862 5 32.0209 5.40278 32.8126 6.20833C33.6042 7.01389 34.0001 8.05556 34.0001 9.33333V12.9167C35.1667 12.9167 36.1807 13.2847 37.0417 14.0208C37.9028 14.7569 38.3334 15.8333 38.3334 17.25V27.4167C38.3334 28.6897 37.8878 29.7719 36.9967 30.6633C36.1053 31.5544 35.0232 32 33.7501 32H33.2084V33.75C33.2084 34.0833 33.0834 34.375 32.8334 34.625C32.5834 34.875 32.2917 35 31.9584 35C31.6251 35 31.3334 34.875 31.0834 34.625C30.8334 34.375 30.7084 34.0833 30.7084 33.75V32H9.29175V33.75C9.29175 34.0833 9.16675 34.375 8.91675 34.625C8.66675 34.875 8.37508 35 8.04175 35ZM6.25008 29.5H33.7501C34.3057 29.5 34.7917 29.2917 35.2084 28.875C35.6251 28.4583 35.8334 27.9722 35.8334 27.4167V17.25C35.8334 16.6944 35.6667 16.25 35.3334 15.9167C35.0001 15.5833 34.5557 15.4167 34.0001 15.4167C33.4445 15.4167 33.0001 15.5833 32.6667 15.9167C32.3334 16.25 32.1667 16.6944 32.1667 17.25V24.5833H7.83342V17.25C7.83342 16.6944 7.66675 16.25 7.33342 15.9167C7.00008 15.5833 6.55564 15.4167 6.00008 15.4167C5.44452 15.4167 5.00008 15.5833 4.66675 15.9167C4.33341 16.25 4.16675 16.6944 4.16675 17.25V27.4167C4.16675 27.9722 4.37508 28.4583 4.79175 28.875C5.20841 29.2917 5.69452 29.5 6.25008 29.5ZM10.3334 22.0833H29.6667V17.25C29.6667 16.3889 29.8612 15.6736 30.2501 15.1042C30.639 14.5347 31.0557 14.0833 31.5001 13.75V9.33333C31.5001 8.77775 31.3334 8.33333 31.0001 8C30.6667 7.66667 30.2259 7.5 29.6776 7.5H10.3226C9.77425 7.5 9.33342 7.66667 9.00008 8C8.66675 8.33333 8.50008 8.77775 8.50008 9.33333V13.75C8.9445 14.0833 9.36116 14.5347 9.75008 15.1042C10.139 15.6736 10.3334 16.3889 10.3334 17.25V22.0833Z" fill="black"/>
</svg>
