<svg width="40" height="40" viewBox="0 0 40 40" fill="none" xmlns="http://www.w3.org/2000/svg">
<path d="M17.4583 23.0417L13.375 18.9583C13.125 18.7083 12.8264 18.5902 12.4792 18.6042C12.1319 18.6181 11.8333 18.75 11.5833 19C11.3333 19.25 11.2083 19.5486 11.2083 19.8958C11.2083 20.2431 11.3333 20.5417 11.5833 20.7917L16.5833 25.75C16.8333 26 17.125 26.125 17.4583 26.125C17.7917 26.125 18.0833 26 18.3333 25.75L28.625 15.4583C28.875 15.2083 29 14.9097 29 14.5625C29 14.2153 28.875 13.9167 28.625 13.6667C28.375 13.4167 28.0764 13.2917 27.7292 13.2917C27.3819 13.2917 27.0833 13.4167 26.8333 13.6667L17.4583 23.0417ZM7.5 35C6.83333 35 6.25 34.75 5.75 34.25C5.25 33.75 5 33.1667 5 32.5V7.5C5 6.83333 5.25 6.25 5.75 5.75C6.25 5.25 6.83333 5 7.5 5H32.5C33.1667 5 33.75 5.25 34.25 5.75C34.75 6.25 35 6.83333 35 7.5V32.5C35 33.1667 34.75 33.75 34.25 34.25C33.75 34.75 33.1667 35 32.5 35H7.5ZM7.5 32.5H32.5V7.5H7.5V32.5Z" fill="#101828"/>
</svg>
