<svg width="41" height="40" viewBox="0 0 41 40" fill="none" xmlns="http://www.w3.org/2000/svg">
<path d="M18.916 29.9167C15.6938 29.9167 12.9299 28.8056 10.6243 26.5833C8.31879 24.3611 7.16602 21.6528 7.16602 18.4583V7.5C7.16602 6.80556 7.40907 6.21527 7.89518 5.72917C8.38129 5.24306 8.9716 5 9.66602 5H31.7077C33.2077 5 34.4924 5.51389 35.5618 6.54167C36.6313 7.56944 37.166 8.83333 37.166 10.3333C37.166 12 36.6521 13.4722 35.6243 14.75C34.5966 16.0278 33.291 16.6667 31.7077 16.6667H30.666V18.4583C30.666 21.6528 29.5133 24.3611 27.2077 26.5833C24.9021 28.8056 22.1383 29.9167 18.916 29.9167ZM9.66602 14.1667H28.166V7.5H9.66602V14.1667ZM18.916 27.4167C21.4438 27.4167 23.6174 26.5556 25.4368 24.8333C27.2563 23.1111 28.166 20.9861 28.166 18.4583V16.6667H9.66602V18.4583C9.66602 20.9861 10.5758 23.1111 12.3952 24.8333C14.2146 26.5556 16.3883 27.4167 18.916 27.4167ZM30.666 14.1667H31.7077C32.6243 14.1667 33.3466 13.7708 33.8743 12.9792C34.4021 12.1875 34.666 11.3056 34.666 10.3333C34.666 9.52775 34.3744 8.85417 33.791 8.3125C33.2077 7.77083 32.5133 7.5 31.7077 7.5H30.666V14.1667ZM7.16602 35V32.5H33.8327V35H7.16602Z" fill="#101828"/>
</svg>
