<svg width="40" height="40" viewBox="0 0 40 40" fill="none" xmlns="http://www.w3.org/2000/svg">
<path d="M28.75 20.0417C28.75 19.3194 28.7986 18.6667 28.8958 18.0833C28.9931 17.5 29.1667 16.8472 29.4167 16.125H31.6667C31.8802 16.125 32.0727 16.0764 32.2438 15.9792C32.4146 15.8819 32.5694 15.75 32.7083 15.5833L34.0833 13.625C34.25 13.375 34.3237 13.0975 34.3046 12.7925C34.2854 12.4877 34.17 12.2236 33.9583 12L32.375 10.4583C32.125 10.2083 31.8333 10.0903 31.5 10.1042C31.1667 10.1181 30.875 10.2361 30.625 10.4583C29.3194 11.7361 28.3333 13.1944 27.6667 14.8333C27 16.4722 26.6667 18.2083 26.6667 20.0417C26.6667 21.875 27 23.6111 27.6667 25.25C28.3333 26.8889 29.3194 28.3472 30.625 29.625C30.875 29.8472 31.1667 29.9653 31.5 29.9792C31.8333 29.9931 32.125 29.875 32.375 29.625L33.9583 28.0833C34.17 27.8598 34.2854 27.5956 34.3046 27.2908C34.3237 26.9858 34.25 26.7083 34.0833 26.4583L32.7083 24.5C32.5694 24.3333 32.4146 24.2014 32.2438 24.1042C32.0727 24.0069 31.8802 23.9583 31.6667 23.9583H29.4167C29.1667 23.2639 28.9931 22.6181 28.8958 22.0208C28.7986 21.4236 28.75 20.7639 28.75 20.0417ZM2.5 35C1.83333 35 1.25 34.75 0.75 34.25C0.25 33.75 0 33.1667 0 32.5V7.5C0 6.83333 0.25 6.25 0.75 5.75C1.25 5.25 1.83333 5 2.5 5H37.5C38.1667 5 38.75 5.25 39.25 5.75C39.75 6.25 40 6.83333 40 7.5V32.5C40 33.1667 39.75 33.75 39.25 34.25C38.75 34.75 38.1667 35 37.5 35H2.5ZM24.625 32.5H37.5V7.5H2.5V32.5H2.79167C4.01389 30.5833 5.57639 29.0694 7.47917 27.9583C9.38192 26.8472 11.4583 26.2917 13.7083 26.2917C15.9583 26.2917 18.0347 26.8472 19.9375 27.9583C21.8403 29.0694 23.4028 30.5833 24.625 32.5ZM13.7083 23.3333C15.0972 23.3333 16.2778 22.8472 17.25 21.875C18.2222 20.9028 18.7083 19.7223 18.7083 18.3333C18.7083 16.9444 18.2222 15.7639 17.25 14.7917C16.2778 13.8194 15.0972 13.3333 13.7083 13.3333C12.3194 13.3333 11.1389 13.8194 10.1667 14.7917C9.19442 15.7639 8.70833 16.9444 8.70833 18.3333C8.70833 19.7223 9.19442 20.9028 10.1667 21.875C11.1389 22.8472 12.3194 23.3333 13.7083 23.3333ZM5.95833 32.5H21.4583C20.4692 31.3258 19.2983 30.4142 17.9458 29.765C16.5931 29.1161 15.1806 28.7917 13.7083 28.7917C12.2361 28.7917 10.8264 29.1181 9.47917 29.7708C8.13194 30.4236 6.95833 31.3333 5.95833 32.5ZM13.7083 20.8333C13 20.8333 12.4062 20.5938 11.9271 20.1146C11.4479 19.6354 11.2083 19.0417 11.2083 18.3333C11.2083 17.625 11.4479 17.0313 11.9271 16.5521C12.4062 16.0729 13 15.8333 13.7083 15.8333C14.4167 15.8333 15.0104 16.0729 15.4896 16.5521C15.9688 17.0313 16.2083 17.625 16.2083 18.3333C16.2083 19.0417 15.9688 19.6354 15.4896 20.1146C15.0104 20.5938 14.4167 20.8333 13.7083 20.8333Z" fill="black"/>
</svg>
