<svg width="40" height="40" viewBox="0 0 40 40" fill="none" xmlns="http://www.w3.org/2000/svg">
<path d="M1.66602 35V32.5H38.3327V35H1.66602ZM5.83268 30C5.16602 30 4.58268 29.75 4.08268 29.25C3.58268 28.75 3.33268 28.1667 3.33268 27.5V7.5C3.33268 6.83333 3.58268 6.25 4.08268 5.75C4.58268 5.25 5.16602 5 5.83268 5H34.166C34.8327 5 35.416 5.25 35.916 5.75C36.416 6.25 36.666 6.83333 36.666 7.5V27.5C36.666 28.1667 36.416 28.75 35.916 29.25C35.416 29.75 34.8327 30 34.166 30H5.83268ZM5.83268 27.5H34.166V7.5H5.83268V27.5Z" fill="#101828"/>
</svg>
