<svg width="40" height="40" viewBox="0 0 40 40" fill="none" xmlns="http://www.w3.org/2000/svg">
<path d="M22.5833 17.9167H28.6667C28.9275 17.9167 29.1178 17.8125 29.2375 17.6042C29.3569 17.3958 29.3472 17.1806 29.2083 16.9583L26.1667 12.0833C26.0417 11.8889 25.8646 11.7917 25.6354 11.7917C25.4062 11.7917 25.2222 11.8889 25.0833 12.0833L22.0417 16.9583C21.9028 17.1806 21.8931 17.3958 22.0125 17.6042C22.1322 17.8125 22.3225 17.9167 22.5833 17.9167ZM26.1667 27.9167L29.2083 23.0417C29.3472 22.8194 29.3569 22.6042 29.2375 22.3958C29.1178 22.1875 28.9275 22.0833 28.6667 22.0833H22.5833C22.3225 22.0833 22.1322 22.1875 22.0125 22.3958C21.8931 22.6042 21.9028 22.8194 22.0417 23.0417L25.0833 27.9167C25.2083 28.1111 25.3854 28.2083 25.6146 28.2083C25.8437 28.2083 26.0278 28.1111 26.1667 27.9167ZM7.5 35C6.83333 35 6.25 34.75 5.75 34.25C5.25 33.75 5 33.1667 5 32.5V7.5C5 6.86111 5.25 6.28473 5.75 5.77083C6.25 5.25694 6.83333 5 7.5 5H32.5C33.1389 5 33.7153 5.25694 34.2292 5.77083C34.7431 6.28473 35 6.86111 35 7.5V32.5C35 33.1667 34.7431 33.75 34.2292 34.25C33.7153 34.75 33.1389 35 32.5 35H7.5ZM7.5 32.5H32.5V7.5H7.5V32.5Z" fill="#101828"/>
<path d="M11.6667 29.1666V23.3333H11.25C10.8889 23.3333 10.5902 23.2152 10.3542 22.9791C10.1181 22.743 10 22.4443 10 22.0833V18.7499C10 17.8333 10.3264 17.0485 10.9792 16.3958C11.6319 15.743 12.4167 15.4166 13.3333 15.4166H15C15.9167 15.4166 16.7014 15.743 17.3542 16.3958C18.0069 17.0485 18.3333 17.8333 18.3333 18.7499V22.0833C18.3333 22.4443 18.2153 22.743 17.9792 22.9791C17.7431 23.2152 17.4444 23.3333 17.0833 23.3333H16.6667V29.1666C16.6667 29.5208 16.5469 29.8176 16.3075 30.057C16.0677 30.2968 15.7708 30.4166 15.4167 30.4166H12.9167C12.5625 30.4166 12.2657 30.2968 12.0263 30.057C11.7865 29.8176 11.6667 29.5208 11.6667 29.1666Z" fill="#101828"/>
<path d="M15.8125 13.3124C15.3542 13.7708 14.8056 13.9999 14.1667 13.9999C13.5277 13.9999 12.9792 13.7708 12.5208 13.3124C12.0625 12.8541 11.8333 12.3055 11.8333 11.6666C11.8333 11.0277 12.0625 10.4791 12.5208 10.0208C12.9792 9.56242 13.5277 9.33325 14.1667 9.33325C14.8056 9.33325 15.3542 9.56242 15.8125 10.0208C16.2708 10.4791 16.5 11.0277 16.5 11.6666C16.5 12.3055 16.2708 12.8541 15.8125 13.3124Z" fill="#101828"/>
</svg>
