<svg width="40" height="40" viewBox="0 0 40 40" fill="none" xmlns="http://www.w3.org/2000/svg">
<path d="M22.9167 36.5L21.1667 34.75L27.0833 28.8333L11.1667 12.9167L5.25 18.8333L3.5 17.0833L5.83333 14.6667L3.5 12.3333L7.04167 8.79167L5.29167 7.04167L7.04167 5.29167L8.83332 7L12.3333 3.5L14.6667 5.83333L17.0833 3.5L18.8333 5.25L12.9167 11.1667L28.8333 27.0833L34.75 21.1667L36.5 22.9167L34.1667 25.3333L36.5 27.6667L32.9167 31.25L34.6667 33L32.9167 34.75L31.1667 33L27.6667 36.5L25.3333 34.1667L22.9167 36.5Z" fill="#101828"/>
</svg>
