<svg width="40" height="40" viewBox="0 0 40 40" fill="none" xmlns="http://www.w3.org/2000/svg">
<path d="M12.5 36.6664C11.8333 36.6664 11.25 36.4164 10.75 35.9164C10.25 35.4164 10 34.8331 10 34.1664V26.4581C10 24.2081 10.3333 22.0345 11 19.9373C11.6667 17.8401 12.75 15.7637 14.25 13.7081C13 13.7637 11.9792 13.3818 11.1875 12.5623C10.3958 11.7428 10 10.7776 10 9.66642V7.66644C10 6.41644 10.4792 5.38867 11.4375 4.58311C12.3958 3.77755 13.4583 3.43033 14.625 3.54144L30.3333 5.20811C30.7778 5.26366 31.1181 5.47894 31.3542 5.85394C31.5903 6.22894 31.7083 6.56922 31.7083 6.87478V10.4581C31.7083 10.9303 31.5833 11.3123 31.3333 11.6039C31.0833 11.8956 30.75 12.0693 30.3333 12.1248L28.5 12.2914C28.7222 13.4303 29.1111 14.472 29.6667 15.4164C30.2222 16.3609 30.8611 17.1803 31.5833 17.8748C31.8333 18.1248 31.9861 18.4164 32.0417 18.7498C32.0973 19.0831 32.0417 19.4026 31.875 19.7081C31.6806 20.0137 31.4167 20.2012 31.0833 20.2706C30.75 20.3401 30.4583 20.2637 30.2083 20.0414C29.1806 19.1803 28.2986 18.0623 27.5625 16.6873C26.8264 15.3123 26.3056 13.9303 26 12.5414L22.7917 12.9164C23.0139 14.5831 23.4444 16.1595 24.0833 17.6456C24.7223 19.1318 25.5417 20.6664 26.5417 22.2498C27.0694 23.0553 27.4653 23.9789 27.7292 25.0206C27.9931 26.0622 28.125 27.0831 28.125 28.0831V34.1664C28.125 34.8331 27.875 35.4164 27.375 35.9164C26.875 36.4164 26.2917 36.6664 25.625 36.6664H12.5ZM12.5417 7.66644V9.66642C12.5417 10.222 12.7569 10.6456 13.1875 10.9372C13.6181 11.2289 14.0694 11.3331 14.5417 11.2497L29.2083 9.70808V7.58311L14.5417 6.04144C14.0694 5.98588 13.6181 6.10394 13.1875 6.39561C12.7569 6.68728 12.5417 7.11088 12.5417 7.66644ZM12.5 34.1664H25.625V28.0831C25.625 27.3331 25.5278 26.5762 25.3333 25.8123C25.1389 25.0484 24.8473 24.3331 24.4583 23.6664C23.3194 21.7498 22.4375 20.0553 21.8125 18.5831C21.1875 17.1109 20.6806 15.3053 20.2917 13.1664L17.4583 13.4581L16.1667 15.2914C14.9167 17.0414 13.9931 18.8193 13.3958 20.6248C12.7986 22.4303 12.5 24.3747 12.5 26.4581V34.1664Z" fill="#101828"/>
</svg>
