<svg width="40" height="40" viewBox="0 0 40 40" fill="none" xmlns="http://www.w3.org/2000/svg">
<path d="M4.58325 31.6667C4.22214 31.6667 3.92353 31.5487 3.68742 31.3126C3.45131 31.0765 3.33325 30.7778 3.33325 30.4167C3.33325 30.0557 3.45131 29.757 3.68742 29.5209C3.92353 29.2848 4.22214 29.1667 4.58325 29.1667H35.4166C35.7777 29.1667 36.0763 29.2848 36.3124 29.5209C36.5485 29.757 36.6666 30.0557 36.6666 30.4167C36.6666 30.7778 36.5485 31.0765 36.3124 31.3126C36.0763 31.5487 35.7777 31.6667 35.4166 31.6667H4.58325ZM4.58325 26.6667V25.9584C4.58325 21.6528 5.81242 18.1807 8.27075 15.5417C10.7291 12.9028 13.8055 11.1945 17.4999 10.4167V9.16675C17.4999 8.4445 17.736 7.84731 18.2083 7.37508C18.6805 6.90286 19.2777 6.66675 19.9999 6.66675C20.7222 6.66675 21.3193 6.90286 21.7916 7.37508C22.2638 7.84731 22.4999 8.4445 22.4999 9.16675V10.4167C26.1943 11.1945 29.2708 12.9028 31.7291 15.5417C34.1874 18.1807 35.4166 21.6528 35.4166 25.9584V26.6667H4.58325ZM7.20825 24.1667H32.7916C32.4027 20.6112 30.9791 17.8265 28.5208 15.8126C26.0624 13.7987 23.2083 12.7917 19.9583 12.7917C16.7083 12.7917 13.868 13.7987 11.4374 15.8126C9.00684 17.8265 7.59714 20.6112 7.20825 24.1667Z" fill="#101828"/>
</svg>
