<svg width="40" height="40" viewBox="0 0 40 40" fill="none" xmlns="http://www.w3.org/2000/svg">
<path d="M19.9999 36.6666C17.9998 36.6666 15.5693 36.2291 13.5416 35.3541C11.5138 34.4791 9.743 33.2847 8.22909 31.7708C6.71519 30.2568 5.52075 28.4883 4.64575 26.4649C3.77075 24.4416 3.33325 22.2797 3.33325 19.9791C3.33325 17.6785 3.77075 15.5166 4.64575 13.4933C5.52075 11.4699 6.71519 9.70825 8.22909 8.20825C9.743 6.70825 11.5116 5.52075 13.5349 4.64575C15.5583 3.77075 17.7202 3.33325 20.0208 3.33325C22.3491 3.33325 24.518 3.77075 26.5274 4.64575C28.5368 5.52075 30.2916 6.70825 31.7916 8.20825C33.2916 9.70825 34.4791 11.4652 35.3541 13.4791C36.2291 15.493 36.6666 17.6666 36.6666 19.9999C36.6666 20.4722 36.6527 20.9443 36.6249 21.4166C36.5972 21.8888 36.5416 22.361 36.4583 22.8333C36.4027 23.1666 36.2222 23.4305 35.9166 23.6249C35.611 23.8193 35.2916 23.8749 34.9583 23.7916C34.6249 23.7083 34.368 23.5153 34.1874 23.2128C34.0068 22.9103 33.9443 22.5755 33.9999 22.2083C34.0555 21.8472 34.0972 21.486 34.1249 21.1249C34.1527 20.7638 34.1666 20.3888 34.1666 19.9999C34.1666 18.0168 33.8055 16.1668 33.0833 14.4499C32.361 12.7333 31.3472 11.236 30.0416 9.95825C28.7638 8.65267 27.2666 7.63881 25.5499 6.91659C23.833 6.19436 21.983 5.83325 19.9999 5.83325C16.0833 5.83325 12.743 7.20561 9.97909 9.95034C7.21519 12.6951 5.83325 16.0449 5.83325 19.9999C5.83325 23.9166 7.21519 27.2568 9.97909 30.0208C12.743 32.7847 18.8018 34.1666 19.9999 34.1666C21.198 34.1666 22.6425 34.3056 23.7258 33.6667C24.0314 33.4722 24.3508 33.4097 24.6842 33.4792C25.0175 33.5486 25.2894 33.7222 25.5 34C25.7339 34.2778 25.8138 34.5858 25.7396 34.9242C25.6657 35.2625 25.4806 35.5239 25.1842 35.7083C23.8786 36.5139 22 36.6666 19.9999 36.6666ZM21.3749 19.4999L27.0833 25.2499C27.3333 25.4877 27.4583 25.7902 27.4583 26.1574C27.4583 26.5247 27.3333 26.8333 27.0833 27.0833C26.8055 27.361 26.483 27.4999 26.1158 27.4999C25.7485 27.4999 25.446 27.361 25.2083 27.0833L19.2083 20.8749C19.0972 20.736 19.0138 20.5941 18.9583 20.4491C18.9027 20.3043 18.8749 20.1547 18.8749 19.9999V12.3749C18.8749 12.0208 18.9955 11.7238 19.2366 11.4841C19.4774 11.2447 19.776 11.1249 20.1324 11.1249C20.4885 11.1249 20.7847 11.2447 21.0208 11.4841C21.2568 11.7238 21.3749 12.0208 21.3749 12.3749V19.4999Z" fill="#101828"/>
<path d="M30.871 33.5463H28.551C28.404 33.5463 28.2755 33.4931 28.1653 33.3868C28.0551 33.2804 28 33.1465 28 32.9848V30.5592C28 30.4123 28.0531 30.2837 28.1595 30.1735C28.2658 30.0633 28.3975 30.0082 28.5545 30.0082H30.32V28.7902H28.551C28.404 28.7902 28.2755 28.7351 28.1653 28.6249C28.0551 28.5147 28 28.3862 28 28.2392C28 28.0923 28.0531 27.9637 28.1595 27.8535C28.2658 27.7433 28.3963 27.6882 28.551 27.6882H30.871C31.0179 27.6882 31.1465 27.7414 31.2567 27.8477C31.3669 27.954 31.422 28.0845 31.422 28.2392V30.5592C31.422 30.7062 31.3688 30.8347 31.2625 30.9449C31.1561 31.0551 31.0245 31.1102 30.8675 31.1102H29.102V32.4443H30.871C31.0179 32.4443 31.1465 32.4994 31.2567 32.6096C31.3669 32.7198 31.422 32.8483 31.422 32.9953C31.422 33.1422 31.3688 33.2708 31.2625 33.381C31.1561 33.4912 31.0256 33.5463 30.871 33.5463Z" fill="#101828"/>
<path d="M36.294 32.9953V31.1102H34.525C34.3781 31.1102 34.2495 31.0571 34.1393 30.9507C34.0291 30.8444 33.974 30.7139 33.974 30.5592V28.2392C33.974 28.0923 34.0291 27.9637 34.1393 27.8535C34.2495 27.7433 34.3781 27.6882 34.525 27.6882C34.6719 27.6882 34.8005 27.7414 34.9107 27.8477C35.0209 27.954 35.076 28.0857 35.076 28.2427V30.0082H36.294V28.2392C36.294 28.0923 36.3491 27.9637 36.4593 27.8535C36.5695 27.7433 36.6981 27.6882 36.845 27.6882C36.992 27.6882 37.1205 27.7414 37.2307 27.8477C37.3409 27.954 37.396 28.0864 37.396 28.2447V32.9953C37.396 33.1422 37.3409 33.2708 37.2307 33.381C37.1205 33.4912 36.992 33.5463 36.845 33.5463C36.6981 33.5463 36.5695 33.4912 36.4593 33.381C36.3491 33.2708 36.294 33.1422 36.294 32.9953Z" fill="#101828"/>
</svg>
