<svg width="40" height="40" viewBox="0 0 40 40" fill="none" xmlns="http://www.w3.org/2000/svg">
<path d="M12.5833 35C11.8958 35 11.3073 34.7552 10.8178 34.2654C10.3281 33.776 10.0833 33.1875 10.0833 32.5V27.6667H5.83325C5.14575 27.6667 4.55728 27.4218 4.06784 26.9321C3.57811 26.4427 3.33325 25.8542 3.33325 25.1667V17.4167C3.33325 16.1652 3.75686 15.1163 4.60409 14.2696C5.45131 13.4232 6.49992 13 7.74992 13H32.2499C33.5013 13 34.5503 13.4232 35.397 14.2696C36.2434 15.1163 36.6666 16.1652 36.6666 17.4167V25.1667C36.6666 25.8542 36.4218 26.4427 35.9324 26.9321C35.4427 27.4218 34.8541 27.6667 34.1666 27.6667H29.9166V32.5C29.9166 33.1875 29.6718 33.776 29.1824 34.2654C28.6927 34.7552 28.1041 35 27.4166 35H12.5833ZM5.83325 25.1667H10.0833V24.5C10.0833 23.8125 10.3281 23.2239 10.8178 22.7342C11.3073 22.2448 11.8958 22 12.5833 22H27.4166C28.1041 22 28.6927 22.2448 29.1824 22.7342C29.6718 23.2239 29.9166 23.8125 29.9166 24.5V25.1667H34.1666V17.4079C34.1666 16.8582 33.983 16.4027 33.6158 16.0417C33.2483 15.6806 32.793 15.5 32.2499 15.5H7.74992C7.20686 15.5 6.75173 15.6836 6.3845 16.0508C6.017 16.4183 5.83325 16.8736 5.83325 17.4167V25.1667ZM27.4166 13V7.5H12.5833V13H10.0833V7.5C10.0833 6.8125 10.3281 6.22389 10.8178 5.73417C11.3073 5.24472 11.8958 5 12.5833 5H27.4166C28.1041 5 28.6927 5.24472 29.1824 5.73417C29.6718 6.22389 29.9166 6.8125 29.9166 7.5V13H27.4166ZM30.7916 19.4583C31.1249 19.4583 31.4166 19.3333 31.6666 19.0833C31.9166 18.8333 32.0416 18.5417 32.0416 18.2083C32.0416 17.875 31.9166 17.5833 31.6666 17.3333C31.4166 17.0833 31.1249 16.9583 30.7916 16.9583C30.4583 16.9583 30.1666 17.0833 29.9166 17.3333C29.6666 17.5833 29.5416 17.875 29.5416 18.2083C29.5416 18.5417 29.6666 18.8333 29.9166 19.0833C30.1666 19.3333 30.4583 19.4583 30.7916 19.4583ZM27.4166 32.5V24.5H12.5833V32.5H27.4166Z" fill="#101828"/>
</svg>
