<svg width="40" height="40" viewBox="0 0 40 40" fill="none" xmlns="http://www.w3.org/2000/svg">
<path d="M20.0001 36.5004C19.8523 36.5004 19.7151 36.4865 19.5884 36.4587C19.4617 36.431 19.3351 36.3893 19.2084 36.3337C15.3473 35.0282 12.2917 32.6879 10.0417 29.3129C7.79175 25.9379 6.66675 22.235 6.66675 18.2042V10.0421C6.66675 9.50708 6.81786 9.02567 7.12008 8.59792C7.42202 8.16986 7.81258 7.85957 8.29175 7.66707L19.1251 3.62541C19.4307 3.5143 19.7223 3.45874 20.0001 3.45874C20.2778 3.45874 20.5695 3.5143 20.8751 3.62541L31.7084 7.66707C32.1876 7.85957 32.5782 8.16986 32.8805 8.59792C33.1824 9.02567 33.3334 9.50708 33.3334 10.0421V18.2042C33.3334 22.235 32.2084 25.9379 29.9584 29.3129C27.7084 32.6879 24.6528 35.0282 20.7917 36.3337C20.6651 36.3893 20.5384 36.431 20.4117 36.4587C20.2851 36.4865 20.1478 36.5004 20.0001 36.5004ZM20.0001 34.0421C23.1945 32.9865 25.7987 30.9935 27.8126 28.0629C29.8265 25.1323 30.8334 21.8477 30.8334 18.2087V10.0421L20.0001 5.95874L9.16675 10.0421V18.2087C9.16675 21.8477 10.1737 25.1323 12.1876 28.0629C14.2015 30.9935 16.8057 32.9865 20.0001 34.0421Z" fill="#101828"/>
<path d="M17.125 24.4167H13.7917C13.5805 24.4167 13.3958 24.3403 13.2375 24.1875C13.0792 24.0347 13 23.8423 13 23.61V20.125C13 19.9139 13.0763 19.7292 13.2292 19.5708C13.3819 19.4125 13.5711 19.3333 13.7967 19.3333H16.3333V17.5833H13.7917C13.5805 17.5833 13.3958 17.5042 13.2375 17.3458C13.0792 17.1875 13 17.0028 13 16.7917C13 16.5806 13.0763 16.3958 13.2292 16.2375C13.3819 16.0792 13.5694 16 13.7917 16H17.125C17.3361 16 17.5208 16.0764 17.6792 16.2292C17.8375 16.3819 17.9167 16.5694 17.9167 16.7917V20.125C17.9167 20.3361 17.8403 20.5208 17.6875 20.6792C17.5347 20.8375 17.3455 20.9167 17.12 20.9167H14.5833V22.8333H17.125C17.3361 22.8333 17.5208 22.9125 17.6792 23.0708C17.8375 23.2292 17.9167 23.4139 17.9167 23.625C17.9167 23.8361 17.8403 24.0208 17.6875 24.1792C17.5347 24.3375 17.3472 24.4167 17.125 24.4167Z" fill="#101828"/>
<path d="M24.9167 23.625V20.9167H22.375C22.1638 20.9167 21.9792 20.8403 21.8208 20.6875C21.6625 20.5347 21.5833 20.3472 21.5833 20.125V16.7917C21.5833 16.5806 21.6625 16.3958 21.8208 16.2375C21.9792 16.0792 22.1638 16 22.375 16C22.5861 16 22.7708 16.0764 22.9292 16.2292C23.0875 16.3819 23.1667 16.5711 23.1667 16.7967V19.3333H24.9167V16.7917C24.9167 16.5806 24.9958 16.3958 25.1542 16.2375C25.3125 16.0792 25.4972 16 25.7083 16C25.9194 16 26.1042 16.0764 26.2625 16.2292C26.4208 16.3819 26.5 16.5721 26.5 16.7996V23.625C26.5 23.8361 26.4208 24.0208 26.2625 24.1792C26.1042 24.3375 25.9194 24.4167 25.7083 24.4167C25.4972 24.4167 25.3125 24.3375 25.1542 24.1792C24.9958 24.0208 24.9167 23.8361 24.9167 23.625Z" fill="#101828"/>
</svg>
