<svg width="40" height="40" viewBox="0 0 40 40" fill="none" xmlns="http://www.w3.org/2000/svg">
<path d="M20.0834 22.2916L9.87508 32.4583C9.63066 32.7083 9.34033 32.8333 9.00425 32.8333C8.66816 32.8333 8.37508 32.7076 8.12508 32.4562C7.87508 32.2045 7.75008 31.9059 7.75008 31.5603C7.75008 31.2145 7.87508 30.9166 8.12508 30.6666L24.2501 14.5833H18.3334V16.6666C18.3334 17.0208 18.2128 17.3176 17.9717 17.557C17.7309 17.7968 17.4323 17.9166 17.0759 17.9166C16.7198 17.9166 16.4237 17.7968 16.1876 17.557C15.9515 17.3176 15.8334 17.0208 15.8334 16.6666V13.3333C15.8334 12.9791 15.9532 12.6822 16.193 12.4424C16.4324 12.203 16.7292 12.0833 17.0834 12.0833H25.3334C25.6692 12.0833 25.9892 12.1527 26.2934 12.2916C26.5978 12.4305 26.8612 12.611 27.0834 12.8333L32.2084 17.8749C32.8473 18.5138 33.5765 19.0277 34.3959 19.4166C35.2153 19.8055 36.0695 20.0833 36.9584 20.2499C37.3182 20.3124 37.6303 20.4738 37.8951 20.7341C38.1595 20.9947 38.264 21.3055 38.2084 21.6666C38.1528 22.0555 37.9792 22.3472 37.6876 22.5416C37.3959 22.736 37.0557 22.8055 36.6667 22.7499C35.5278 22.5833 34.4515 22.2708 33.4376 21.8124C32.4237 21.3541 31.5001 20.6943 30.6667 19.8333L28.7501 17.9166L24.0001 22.6666L26.4167 25.0833C26.7223 25.3888 26.8473 25.736 26.7917 26.1249C26.7362 26.5138 26.5278 26.8193 26.1667 27.0416L18.5001 31.4999C18.1945 31.6666 17.8734 31.7068 17.5367 31.6203C17.2001 31.5339 16.9501 31.3395 16.7867 31.037C16.6234 30.7345 16.5834 30.4166 16.6667 30.0833C16.7501 29.7499 16.9445 29.4999 17.2501 29.3333L23.5001 25.7083L20.0834 22.2916ZM6.25008 21.6666C5.89591 21.6666 5.59911 21.546 5.35966 21.3049C5.11994 21.0641 5.00008 20.7655 5.00008 20.4091C5.00008 20.053 5.11994 19.7568 5.35966 19.5208C5.59911 19.2847 5.89591 19.1666 6.25008 19.1666H12.0834C12.4376 19.1666 12.7345 19.2872 12.9742 19.5283C13.2137 19.7691 13.3334 20.0677 13.3334 20.4241C13.3334 20.7802 13.2137 21.0763 12.9742 21.3124C12.7345 21.5485 12.4376 21.6666 12.0834 21.6666H6.25008ZM2.91675 16.2499C2.56258 16.2499 2.26577 16.1293 2.02633 15.8883C1.78661 15.6474 1.66675 15.3488 1.66675 14.9924C1.66675 14.6363 1.78661 14.3402 2.02633 14.1041C2.26577 13.868 2.56258 13.7499 2.91675 13.7499H8.75008C9.10425 13.7499 9.40116 13.8705 9.64091 14.1116C9.88033 14.3524 10.0001 14.651 10.0001 15.0074C10.0001 15.3635 9.88033 15.6597 9.64091 15.8958C9.40116 16.1318 9.10425 16.2499 8.75008 16.2499H2.91675ZM32.9167 12.9166C32.1245 12.9166 31.4403 12.6306 30.8642 12.0587C30.2882 11.4868 30.0001 10.7993 30.0001 9.99617C30.0001 9.19308 30.2882 8.50684 30.8642 7.93742C31.4403 7.36798 32.1245 7.08325 32.9167 7.08325C33.709 7.08325 34.3932 7.36923 34.9692 7.94117C35.5453 8.51309 35.8334 9.20059 35.8334 10.0037C35.8334 10.8068 35.5453 11.493 34.9692 12.0624C34.3932 12.6318 33.709 12.9166 32.9167 12.9166ZM6.25008 10.8333C5.89591 10.8333 5.59911 10.7127 5.35966 10.4716C5.11994 10.2308 5.00008 9.93217 5.00008 9.57575C5.00008 9.21967 5.11994 8.9235 5.35966 8.68742C5.59911 8.45134 5.89591 8.33325 6.25008 8.33325H12.0834C12.4376 8.33325 12.7345 8.45384 12.9742 8.69492C13.2137 8.93575 13.3334 9.23434 13.3334 9.59075C13.3334 9.94684 13.2137 10.243 12.9742 10.4791C12.7345 10.7152 12.4376 10.8333 12.0834 10.8333H6.25008Z" fill="#101828"/>
</svg>
