<svg width="40" height="40" viewBox="0 0 40 40" fill="none" xmlns="http://www.w3.org/2000/svg">
<path d="M13.2502 30.2083H18.1668V28.625H14.8335V26.7083H18.1668V21.7917H13.2502V23.375H16.5835V25.125H13.2502V30.2083ZM25.1668 30.2083H26.7502V21.7917H25.1668V25.125H23.4168V21.7917H21.8335V26.7083H25.1668V30.2083ZM35.0002 18.375V32.5C35.0002 33.1667 34.7502 33.75 34.2502 34.25C33.7502 34.75 33.1668 35 32.5002 35H7.45846C6.7918 35 6.20846 34.75 5.70846 34.25C5.20846 33.75 4.95846 33.1667 4.95846 32.5V18.375C4.18069 17.7083 3.6668 16.8889 3.4168 15.9167C3.1668 14.9444 3.19457 13.9722 3.50013 13L5.2918 7.375C5.51402 6.625 5.90291 6.04167 6.45846 5.625C7.01402 5.20833 7.65291 5 8.37516 5H31.4168C32.1946 5 32.8752 5.21528 33.4585 5.64583C34.0418 6.07639 34.4446 6.65278 34.6668 7.375L36.5002 13C36.8057 13.9722 36.8265 14.9444 36.5627 15.9167C36.2987 16.8889 35.7779 17.7083 35.0002 18.375ZM23.7502 17.0833C24.5557 17.0833 25.2362 16.8194 25.7918 16.2917C26.3473 15.7639 26.5696 15.125 26.4585 14.375L25.4168 7.5H21.2502V14.375C21.2502 15.0972 21.4862 15.7292 21.9585 16.2708C22.4307 16.8125 23.0279 17.0833 23.7502 17.0833ZM15.9585 17.0833C16.7362 17.0833 17.396 16.8194 17.9377 16.2917C18.4793 15.7639 18.7502 15.125 18.7502 14.375V7.5H14.5835L13.5418 14.375C13.4307 15.0972 13.6252 15.7292 14.1252 16.2708C14.6252 16.8125 15.2362 17.0833 15.9585 17.0833ZM8.37516 17.0833C9.04183 17.0833 9.61817 16.8542 10.1043 16.3958C10.5904 15.9375 10.8752 15.375 10.9585 14.7083L12.0418 7.5H7.87513L5.95846 13.5833C5.68069 14.4444 5.7918 15.2431 6.2918 15.9792C6.7918 16.7153 7.48624 17.0833 8.37516 17.0833ZM31.5835 17.0833C32.4723 17.0833 33.1737 16.7222 33.6877 16C34.2015 15.2778 34.3196 14.4722 34.0418 13.5833L32.1252 7.5H27.9585L29.0418 14.7083C29.1252 15.375 29.4098 15.9375 29.896 16.3958C30.3821 16.8542 30.9446 17.0833 31.5835 17.0833ZM7.45846 32.5H32.5002V19.5417C32.5279 19.5694 32.4377 19.5833 32.2293 19.5833H31.5835C30.889 19.5833 30.2293 19.4375 29.6043 19.1458C28.9793 18.8542 28.3612 18.4027 27.7502 17.7917C27.3057 18.3472 26.7502 18.7847 26.0835 19.1042C25.4168 19.4236 24.6807 19.5833 23.8752 19.5833C23.0418 19.5833 22.3265 19.4652 21.7293 19.2292C21.1321 18.9931 20.5557 18.5972 20.0002 18.0417C19.5835 18.5417 19.0557 18.9236 18.4168 19.1875C17.7779 19.4514 17.0557 19.5833 16.2502 19.5833C15.389 19.5833 14.6252 19.4306 13.9585 19.125C13.2918 18.8194 12.7223 18.375 12.2502 17.7917C11.5835 18.375 10.9307 18.8194 10.2918 19.125C9.65292 19.4306 9.014 19.5833 8.37516 19.5833H7.81263C7.63207 19.5833 7.51402 19.5694 7.45846 19.5417V32.5Z" fill="#101828"/>
</svg>
