<svg width="40" height="40" viewBox="0 0 40 40" fill="none" xmlns="http://www.w3.org/2000/svg">
<path d="M8.70833 23.7916H11.6667V22.9166C11.6667 22.5555 11.7847 22.2568 12.0208 22.0208C12.2569 21.7847 12.5556 21.6666 12.9167 21.6666H27.0833C27.4444 21.6666 27.7431 21.7847 27.9792 22.0208C28.2153 22.2568 28.3333 22.5555 28.3333 22.9166V23.7916H31.2917C31.5972 23.7916 31.875 23.6874 32.125 23.4791C32.375 23.2708 32.5 23.0138 32.5 22.7083C32.5 22.4583 32.4306 22.236 32.2917 22.0416C32.1528 21.8472 31.9722 21.6943 31.75 21.5833L20.125 16.3333L8.25 21.5833C8.02778 21.6943 7.84723 21.8472 7.70833 22.0416C7.56944 22.236 7.5 22.4443 7.5 22.6666C7.5 22.9722 7.61806 23.236 7.85417 23.4583C8.09027 23.6805 8.375 23.7916 8.70833 23.7916ZM14.1667 34.1666H25.8333V24.1666H14.1667V34.1666ZM23.7083 7.79158C23.4028 7.93048 23.0833 7.93048 22.75 7.79158C22.4167 7.65269 22.1806 7.43048 22.0417 7.12492C21.875 6.73603 21.6111 6.42353 21.25 6.18742C20.8889 5.95131 20.4861 5.83325 20.0417 5.83325C19.4583 5.83325 18.9514 6.03464 18.5208 6.43742C18.0903 6.84019 17.875 7.33325 17.875 7.91658C17.875 8.5555 18.0903 9.09017 18.5208 9.52075C18.9514 9.95134 19.4861 10.1666 20.125 10.1666C20.4583 10.1666 20.75 10.2847 21 10.5208C21.25 10.7568 21.375 11.0416 21.375 11.3749V14.2083L32.8333 19.2083C33.5277 19.5138 34.0625 19.993 34.4375 20.6458C34.8125 21.2985 35 21.9999 35 22.7499C35 23.7499 34.6319 24.5902 33.8958 25.2708C33.1597 25.9513 32.2917 26.2916 31.2917 26.2916H28.3333V35.4166C28.3333 35.7777 28.2153 36.0763 27.9792 36.3124C27.7431 36.5485 27.4444 36.6666 27.0833 36.6666H12.9167C12.5556 36.6666 12.2569 36.5485 12.0208 36.3124C11.7847 36.0763 11.6667 35.7777 11.6667 35.4166V26.2916H8.70833C7.70833 26.2916 6.84027 25.9513 6.10417 25.2708C5.36806 24.5902 5 23.7499 5 22.7499C5 21.9999 5.1875 21.2985 5.5625 20.6458C5.9375 19.993 6.47222 19.5138 7.16667 19.2083L18.875 14.2083V12.4583C17.8472 12.1805 17.0069 11.618 16.3542 10.7708C15.7014 9.9235 15.375 8.97217 15.375 7.91658C15.375 6.63881 15.8333 5.55548 16.75 4.66659C17.6667 3.77769 18.7639 3.33325 20.0417 3.33325C21.0139 3.33325 21.8819 3.59714 22.6458 4.12492C23.4097 4.65269 23.9722 5.33325 24.3333 6.16659C24.4722 6.47214 24.4792 6.78464 24.3542 7.10409C24.2292 7.42353 24.0139 7.65269 23.7083 7.79158Z" fill="black"/>
</svg>
