<svg width="40" height="40" viewBox="0 0 40 40" fill="none" xmlns="http://www.w3.org/2000/svg">
<path d="M33.7499 29.1667H9.16659C8.47909 29.1667 7.89061 28.9218 7.40117 28.4321C6.91144 27.9427 6.66659 27.3542 6.66659 26.6667V7.5H4.58325C4.22909 7.5 3.93228 7.37944 3.69284 7.13833C3.45311 6.8975 3.33325 6.59889 3.33325 6.2425C3.33325 5.88639 3.45311 5.59027 3.69284 5.35417C3.93228 5.11806 4.22909 5 4.58325 5H6.66659C7.35408 5 7.94269 5.24472 8.43242 5.73417C8.92184 6.22389 9.16659 6.8125 9.16659 7.5V26.6667H33.7499C34.1041 26.6667 34.401 26.7873 34.6408 27.0283C34.8802 27.2692 34.9999 27.5677 34.9999 27.9242C34.9999 28.2802 34.8802 28.5764 34.6408 28.8125C34.401 29.0486 34.1041 29.1667 33.7499 29.1667ZM9.12992 36.6667C8.43217 36.6667 7.84714 36.4211 7.37492 35.93C6.90269 35.4392 6.66659 34.8489 6.66659 34.1592C6.66659 33.4698 6.90269 32.8819 7.37492 32.3958C7.84714 31.9097 8.43217 31.6667 9.12992 31.6667C9.82742 31.6667 10.4247 31.9122 10.9216 32.4033C11.4183 32.8942 11.6666 33.4844 11.6666 34.1742C11.6666 34.8636 11.4183 35.4514 10.9216 35.9375C10.4247 36.4236 9.82742 36.6667 9.12992 36.6667ZM13.3333 23.75C12.9791 23.75 12.6823 23.6302 12.4428 23.3904C12.2031 23.151 12.0833 22.8542 12.0833 22.5V15.8333C12.0833 15.4792 12.2031 15.1823 12.4428 14.9425C12.6823 14.7031 12.9791 14.5833 13.3333 14.5833H19.9999C20.3541 14.5833 20.651 14.7031 20.8908 14.9425C21.1302 15.1823 21.2499 15.4792 21.2499 15.8333V22.5C21.2499 22.8542 21.1302 23.151 20.8908 23.3904C20.651 23.6302 20.3541 23.75 19.9999 23.75H13.3333ZM14.5833 21.25H18.7499V17.0833H14.5833V21.25ZM24.9999 23.75C24.6458 23.75 24.3489 23.6302 24.1095 23.3904C23.8698 23.151 23.7499 22.8542 23.7499 22.5V15.8333C23.7499 15.4792 23.8698 15.1823 24.1095 14.9425C24.3489 14.7031 24.6458 14.5833 24.9999 14.5833H31.6666C32.0208 14.5833 32.3177 14.7031 32.5574 14.9425C32.7968 15.1823 32.9166 15.4792 32.9166 15.8333V22.5C32.9166 22.8542 32.7968 23.151 32.5574 23.3904C32.3177 23.6302 32.0208 23.75 31.6666 23.75H24.9999ZM26.2499 21.25H30.4166V17.0833H26.2499V21.25ZM32.4924 36.6667C31.803 36.6667 31.2152 36.4211 30.7291 35.93C30.243 35.4392 29.9999 34.8489 29.9999 34.1592C29.9999 33.4698 30.2455 32.8819 30.7366 32.3958C31.2274 31.9097 31.8177 31.6667 32.5074 31.6667C33.1968 31.6667 33.7847 31.9122 34.2708 32.4033C34.7568 32.8942 34.9999 33.4844 34.9999 34.1742C34.9999 34.8636 34.7543 35.4514 34.2633 35.9375C33.7724 36.4236 33.1822 36.6667 32.4924 36.6667Z" fill="#101828"/>
</svg>
