<svg width="41" height="40" viewBox="0 0 41 40" fill="none" xmlns="http://www.w3.org/2000/svg">
<path d="M19 14.583C17.3333 14.583 15.6806 14.8538 14.0417 15.3955C12.4028 15.9372 10.9167 16.6941 9.58333 17.6663L11.4167 34.1663H29.5833L31.5417 16.2497H29.5417C28.5139 16.2497 27.5694 16.1761 26.7083 16.0288C25.8472 15.8819 24.6667 15.5944 23.1667 15.1663C22.4722 14.9719 21.7847 14.8261 21.1042 14.7288C20.4236 14.6316 19.7222 14.583 19 14.583ZM9.29167 14.8747C10.7083 13.9858 12.2569 13.3053 13.9375 12.833C15.6181 12.3608 17.3056 12.1108 19 12.083C19.8333 12.083 20.6597 12.1386 21.4792 12.2497C22.2986 12.3608 23.0833 12.5274 23.8333 12.7497C25.2536 13.1386 26.3402 13.4024 27.0929 13.5413C27.8454 13.6803 28.6478 13.7497 29.5 13.7497H31.8333L32.7083 5.83301H8.29167L9.29167 14.8747ZM11.4167 36.6663C10.7778 36.6663 10.2175 36.459 9.73583 36.0443C9.25392 35.6295 8.98083 35.1008 8.91667 34.458L5.5 3.33301H35.5L32.0833 34.458C32.0192 35.1008 31.7461 35.6295 31.2642 36.0443C30.7825 36.459 30.2222 36.6663 29.5833 36.6663H11.4167Z" fill="#101828"/>
</svg>
