<svg width="40" height="40" viewBox="0 0 40 40" fill="none" xmlns="http://www.w3.org/2000/svg">
<path d="M20 34.7087C19 34.7087 18.125 34.3337 17.375 33.5837C16.625 32.8337 16.25 31.9587 16.25 30.9587C16.25 29.9587 16.625 29.0837 17.375 28.3337C18.125 27.5837 19 27.2087 20 27.2087C21 27.2087 21.875 27.5837 22.625 28.3337C23.375 29.0837 23.75 29.9587 23.75 30.9587C23.75 31.9587 23.375 32.8337 22.625 33.5837C21.875 34.3337 21 34.7087 20 34.7087ZM9.66667 25.1253L7.04167 22.5003C8.98608 20.5559 11.0208 19.0976 13.1458 18.1253C15.2708 17.1531 17.5556 16.667 20 16.667C22.4444 16.667 24.7292 17.1531 26.8542 18.1253C28.9792 19.0976 31.0139 20.5559 32.9583 22.5003L30.3333 25.1253C28.6389 23.4309 26.9306 22.2226 25.2083 21.5003C23.4861 20.7781 21.75 20.417 20 20.417C18.25 20.417 16.5139 20.7781 14.7917 21.5003C13.0694 22.2226 11.3611 23.4309 9.66667 25.1253ZM2.625 18.0837L0 15.4587C2.58333 12.8197 5.59027 10.6947 9.02083 9.08366C12.4514 7.47255 16.1111 6.66699 20 6.66699C23.8889 6.66699 27.5486 7.47255 30.9792 9.08366C34.4097 10.6947 37.4167 12.8197 40 15.4587L37.375 18.0837C34.9306 15.7503 32.2569 13.8892 29.3542 12.5003C26.4514 11.1114 23.3333 10.417 20 10.417C16.6667 10.417 13.5486 11.1114 10.6458 12.5003C7.74306 13.8892 5.06944 15.7503 2.625 18.0837Z" fill="#101828"/>
</svg>
